<?xml version="1.0" encoding="utf-8"?>
<!-- Generator: Adobe Illustrator 16.0.0, SVG Export Plug-In . SVG Version: 6.00 Build 0)  -->
<!DOCTYPE svg PUBLIC "-//W3C//DTD SVG 1.1//EN" "http://www.w3.org/Graphics/SVG/1.1/DTD/svg11.dtd">
<svg version="1.1" xmlns="http://www.w3.org/2000/svg" xmlns:xlink="http://www.w3.org/1999/xlink" x="0px" y="0px" width="1280px"
	 height="800px" viewBox="0 0 1280 800" enable-background="new 0 0 1280 800" xml:space="preserve">
<g id="Layer_2">
	<path fill="none" stroke="#1A1A1A" stroke-width="0.9938" stroke-miterlimit="10" d="M0,475"/>
	<rect fill="#F2F2F2" width="1280" height="800"/>
</g>
<g id="Layer_1">
	<rect x="32" y="31" fill="#B3DBAE" width="184" height="26"/>
	<rect x="32" y="68" fill="#FBBE9D" width="184" height="26"/>
	<rect x="32" y="105" fill="#F3F094" width="184" height="26"/>
	<rect x="32" y="142" fill="#B3DBAE" width="184" height="26"/>
	<rect x="32" y="179" fill="#F3C7D4" width="184" height="26"/>
	<rect x="32" y="216" fill="#F3F094" width="184" height="26"/>
	<rect x="32" y="253" fill="#F3C7D4" width="184" height="26"/>
	<rect x="32" y="290" fill="#FBBE9D" width="184" height="26"/>
	<rect x="32" y="327" fill="#F3C7D4" width="184" height="26"/>
	<rect x="32" y="364" fill="#B3DBAE" width="184" height="26"/>
	<rect x="32" y="401" fill="#CCD9EF" width="184" height="26"/>
	<rect x="32" y="438" fill="#CCD9EF" width="184" height="26"/>
	<rect x="32" y="475" fill="#CCD9EF" width="184" height="26"/>
	<rect x="32" y="512" fill="#CCD9EF" width="184" height="26"/>
	<rect x="32" y="549" fill="#CCD9EF" width="184" height="26"/>
	<rect x="32" y="586" fill="#CCD9EF" width="184" height="26"/>
	<rect x="32" y="623" fill="#CCD9EF" width="184" height="26"/>
	<rect x="32" y="660" fill="#CCD9EF" width="184" height="26"/>
	<rect x="32" y="697" fill="#CCD9EF" width="184" height="26"/>
	<rect x="32" y="734" fill="#CCD9EF" width="184" height="26"/>
	<rect x="237" y="31" fill="#FBBE9D" width="184" height="26"/>
	<rect x="237" y="68" fill="#F3C7D4" width="184" height="26"/>
	<rect x="237" y="105" fill="#B3DBAE" width="184" height="26"/>
	<rect x="237" y="142" fill="#F3C7D4" width="184" height="26"/>
	<rect x="237" y="179" fill="#F3F094" width="184" height="26"/>
	<rect x="237" y="216" fill="#F3C7D4" width="184" height="26"/>
	<rect x="237" y="253" fill="#F3F094" width="184" height="26"/>
	<rect x="237" y="290" fill="#B3DBAE" width="184" height="26"/>
	<rect x="237" y="327" fill="#F3C7D4" width="184" height="26"/>
	<rect x="237" y="364" fill="#FBBE9D" width="184" height="26"/>
	<rect x="237" y="401" fill="#CCD9EF" width="184" height="26"/>
	<rect x="237" y="438" fill="#CCD9EF" width="184" height="26"/>
	<rect x="237" y="475" fill="#CCD9EF" width="184" height="26"/>
	<rect x="237" y="512" fill="#CCD9EF" width="184" height="26"/>
	<rect x="237" y="549" fill="#CCD9EF" width="184" height="26"/>
	<rect x="237" y="586" fill="#CCD9EF" width="184" height="26"/>
	<rect x="237" y="623" fill="#CCD9EF" width="184" height="26"/>
	<rect x="237" y="660" fill="#CCD9EF" width="184" height="26"/>
	<rect x="237" y="697" fill="#CCD9EF" width="184" height="26"/>
	<rect x="237" y="734" fill="#CCD9EF" width="184" height="26"/>
	<rect x="442" y="31" fill="#B3DBAE" width="185" height="26"/>
	<rect x="442" y="68" fill="#F3F094" width="185" height="26"/>
	<rect x="442" y="105" fill="#F3C7D4" width="185" height="26"/>
	<rect x="442" y="142" fill="#FBBE9D" width="185" height="26"/>
	<rect x="442" y="179" fill="#F3C7D4" width="185" height="26"/>
	<rect x="442" y="216" fill="#B3DBAE" width="185" height="26"/>
	<rect x="442" y="253" fill="#FBBE9D" width="185" height="26"/>
	<rect x="442" y="290" fill="#F3C7D4" width="185" height="26"/>
	<rect x="442" y="327" fill="#F3F094" width="185" height="26"/>
	<rect x="442" y="364" fill="#B3DBAE" width="185" height="26"/>
	<rect x="442" y="401" fill="#CCD9EF" width="185" height="26"/>
	<rect x="442" y="438" fill="#CCD9EF" width="185" height="26"/>
	<rect x="442" y="475" fill="#CCD9EF" width="185" height="26"/>
	<rect x="442" y="512" fill="#CCD9EF" width="185" height="26"/>
	<rect x="442" y="549" fill="#CCD9EF" width="185" height="26"/>
	<rect x="442" y="586" fill="#CCD9EF" width="185" height="26"/>
	<rect x="442" y="623" fill="#CCD9EF" width="185" height="26"/>
	<rect x="442" y="660" fill="#CCD9EF" width="185" height="26"/>
	<rect x="442" y="697" fill="#CCD9EF" width="185" height="26"/>
	<rect x="442" y="734" fill="#CCD9EF" width="185" height="26"/>
	<rect x="647" y="31" fill="#F3C7D4" width="185" height="26"/>
	<rect x="647" y="68" fill="#FBBE9D" width="185" height="26"/>
	<rect x="647" y="105" fill="#F3C7D4" width="185" height="26"/>
	<rect x="647" y="142" fill="#B3DBAE" width="185" height="26"/>
	<rect x="647" y="179" fill="#F3C7D4" width="185" height="26"/>
	<rect x="647" y="216" fill="#F3F094" width="185" height="26"/>
	<rect x="647" y="253" fill="#F3C7D4" width="185" height="26"/>
	<rect x="647" y="290" fill="#F3F094" width="185" height="26"/>
	<rect x="647" y="327" fill="#FBBE9D" width="185" height="26"/>
	<rect x="647" y="364" fill="#F3C7D4" width="185" height="26"/>
	<rect x="647" y="401" fill="#CCD9EF" width="185" height="26"/>
	<rect x="647" y="438" fill="#CCD9EF" width="185" height="26"/>
	<rect x="647" y="475" fill="#CCD9EF" width="185" height="26"/>
	<rect x="647" y="512" fill="#CCD9EF" width="185" height="26"/>
	<rect x="647" y="549" fill="#CCD9EF" width="185" height="26"/>
	<rect x="647" y="586" fill="#CCD9EF" width="185" height="26"/>
	<rect x="647" y="623" fill="#CCD9EF" width="185" height="26"/>
	<rect x="647" y="660" fill="#CCD9EF" width="185" height="26"/>
	<rect x="647" y="697" fill="#CCD9EF" width="185" height="26"/>
	<rect x="647" y="734" fill="#CCD9EF" width="185" height="26"/>
	<rect x="852" y="31" fill="#B3DBAE" width="185" height="26"/>
	<rect x="852" y="68" fill="#F3C7D4" width="185" height="26"/>
	<rect x="852" y="105" fill="#F3F094" width="185" height="26"/>
	<rect x="852" y="142" fill="#F3C7D4" width="185" height="26"/>
	<rect x="852" y="179" fill="#FBBE9D" width="185" height="26"/>
	<rect x="852" y="216" fill="#F3C7D4" width="185" height="26"/>
	<rect x="852" y="253" fill="#B3DBAE" width="185" height="26"/>
	<rect x="852" y="290" fill="#F3C7D4" width="185" height="26"/>
	<rect x="852" y="327" fill="#F3F094" width="185" height="26"/>
	<rect x="852" y="364" fill="#FBBE9D" width="185" height="26"/>
	<rect x="852" y="401" fill="#CCD9EF" width="185" height="26"/>
	<rect x="852" y="438" fill="#CCD9EF" width="185" height="26"/>
	<rect x="852" y="475" fill="#CCD9EF" width="185" height="26"/>
	<rect x="852" y="512" fill="#CCD9EF" width="185" height="26"/>
	<rect x="852" y="549" fill="#CCD9EF" width="185" height="26"/>
	<rect x="852" y="586" fill="#CCD9EF" width="185" height="26"/>
	<rect x="852" y="623" fill="#CCD9EF" width="185" height="26"/>
	<rect x="852" y="660" fill="#CCD9EF" width="185" height="26"/>
	<rect x="852" y="697" fill="#CCD9EF" width="185" height="26"/>
	<rect x="852" y="734" fill="#CCD9EF" width="185" height="26"/>
	<rect x="1058" y="31" fill="#FBBE9D" width="184" height="26"/>
	<rect x="1058" y="68" fill="#F3C7D4" width="184" height="26"/>
	<rect x="1058" y="105" fill="#B3DBAE" width="184" height="26"/>
	<rect x="1058" y="142" fill="#F3C7D4" width="184" height="26"/>
	<rect x="1058" y="179" fill="#FBBE9D" width="184" height="26"/>
	<rect x="1058" y="216" fill="#F3F094" width="184" height="26"/>
	<rect x="1058" y="253" fill="#F3C7D4" width="184" height="26"/>
	<rect x="1058" y="290" fill="#FBBE9D" width="184" height="26"/>
	<rect x="1058" y="327" fill="#B3DBAE" width="184" height="26"/>
	<rect x="1058" y="364" fill="#F3F094" width="184" height="26"/>
	<rect x="1058" y="401" fill="#CCD9EF" width="184" height="26"/>
	<rect x="1058" y="438" fill="#CCD9EF" width="184" height="26"/>
	<rect x="1058" y="475" fill="#CCD9EF" width="184" height="26"/>
	<rect x="1058" y="512" fill="#CCD9EF" width="184" height="26"/>
	<rect x="1058" y="549" fill="#CCD9EF" width="184" height="26"/>
	<rect x="1058" y="586" fill="#CCD9EF" width="184" height="26"/>
	<rect x="1058" y="623" fill="#CCD9EF" width="184" height="26"/>
	<rect x="1058" y="660" fill="#CCD9EF" width="184" height="26"/>
	<rect x="1058" y="697" fill="#CCD9EF" width="184" height="26"/>
	<rect x="1058" y="734" fill="#CCD9EF" width="184" height="26"/>
</g>
</svg>
