<?xml version="1.0" encoding="utf-8"?>
<!-- Generator: Adobe Illustrator 16.0.0, SVG Export Plug-In . SVG Version: 6.00 Build 0)  -->
<!DOCTYPE svg PUBLIC "-//W3C//DTD SVG 1.1//EN" "http://www.w3.org/Graphics/SVG/1.1/DTD/svg11.dtd">
<svg version="1.1" id="Layer_1" xmlns="http://www.w3.org/2000/svg" xmlns:xlink="http://www.w3.org/1999/xlink" x="0px" y="0px"
	 width="612px" height="792px" viewBox="0 0 612 792" enable-background="new 0 0 612 792" xml:space="preserve">
<path fill-rule="evenodd" clip-rule="evenodd" fill="none" stroke="#E6E7E8" stroke-miterlimit="10" d="M218.888,306.647
	c-22.034-10.694-8.326-34.084-4.298-51.218c6.756-28.604,18.104-56.648,31.26-83.057c6.787-13.644,22-22.93,32.726-34.808
	c8.449-9.369,28.676-17.757,4.325-32.676c-1.775-1.082,3.492-13.613,6.104-23.042c-10.562-2.581-19.595-4.796-26.411-6.471
	c11.635-14.459,23.38-29.031,40.4-50.187c20.585,8.837,44.851,19.266,63.272,27.166c-11.288,26.981-21.768,52.095-33.77,80.761
	c44.063,5.531,49.718,43.207,63.291,76.209c7.775,18.919,22.695,34.777,32.808,52.901c4.491,8.062,2.167,21.083,7.91,27.033
	c18.816,19.502,39.912,36.8,63.966,58.402c-15.35-3.755-34.383-2.551-42.136-11.327c-29.33-33.146-71.928-55.811-84.609-102.7
	c-1.175-4.369-5.053-8.012-8.521-13.289c-12.685,32.084-15.767,55.138,19.664,75.731c19.503,11.306,33.115,40.001,40.484,63.627
	c27.774,89.215,52.096,179.486,77.085,269.534c2.654,9.592,1.246,20.309,1.47,24.94c-21.051,16.882-39.022,30.249-55.757,45.026
	c-15.154,13.367-40.964,12.877-50.443-0.655c-27.034,8.777-53.462,17.348-82.72,26.819c-1.421,32.165-32.913,21.389-52.547,25.696
	c-26.653,5.856-54.818,5.57-82.383,6.163c-49.891,1.06-74.364-28.168-64.505-75.885c17.694-85.457,33.186-171.48,54.443-256.038
	C180.037,385.359,201.345,348.244,218.888,306.647z M242.257,295.901c57.146-17.644,60.37-28.552,27.398-89.485
	C259.739,238.786,251.746,264.92,242.257,295.901z"/>
</svg>
