<?xml version="1.0" encoding="utf-8"?>
<!-- Generator: Adobe Illustrator 16.0.0, SVG Export Plug-In . SVG Version: 6.00 Build 0)  -->
<!DOCTYPE svg PUBLIC "-//W3C//DTD SVG 1.1//EN" "http://www.w3.org/Graphics/SVG/1.1/DTD/svg11.dtd">
<svg version="1.1" id="Layer_1" xmlns="http://www.w3.org/2000/svg" xmlns:xlink="http://www.w3.org/1999/xlink" x="0px" y="0px"
	 width="612px" height="792px" viewBox="0 0 612 792" enable-background="new 0 0 612 792" xml:space="preserve">
<g>
	<g>
		<path fill-rule="evenodd" clip-rule="evenodd" fill="none" stroke="#E6E7E7" stroke-miterlimit="10" d="M252.335,343.138
			c-8.296-3.082-5.168-7.281-1.662-11.892c8.843-11.462,6.717-19.945-5.207-27.933c-16.795-11.271-31.299-25.311-43.138-42.111
			c-4.699-6.64-5.225-13.957-2.15-21.458c12.15-29.617,27.599-57.219,47.417-82.123c6.515-8.193,14.513-12.176,25.093-11.431
			c7.585,0.531,15.278-0.496,23.524-2.222c-10.12-0.391-11.082-9.892-16.198-14.694c-8.597-8.106-9.595-17.953-11.813-28.104
			c-0.621-2.876-2.726-5.494-4.379-8.055c-5.492-8.5-7.114-17.54-4.327-27.489c7.287-25.967,32.178-43.537,56.313-38.911
			c14.44,2.757,25.842,10.909,31.025,25.542c3.471,9.847,4.998,20.427,7.725,30.583c0.773,2.875,2.261,5.747,4.099,8.08
			c2.676,3.434,5.835,6.464,8.995,9.47c8.344,7.982,12.165,17.637,10.369,30.313c-1.055-2.313-1.799-3.997-2.828-6.284
			c-0.54,1.115-0.995,1.667-1.044,2.256c-0.156,1.549,0,3.135-0.199,4.673c-1.62,13.512-1.712,13.77,11.608,17.596
			c11.433,3.268,19.591,10.032,21.831,22.218c2.562,13.955,5.152,28.082,5.792,42.225c1.065,23.891,0.579,47.854,0.774,71.791
			c0.064,9.924-2.229,18.949-8.322,26.9c-8.604,11.22-16.751,22.801-25.507,33.897c-3.202,4.064-3.945,7.663-2.542,12.711
			c5.258,18.667,8.697,37.926,3.555,56.909c-3.182,11.701-9.109,22.916-15.201,33.479c-8.572,14.881-18.701,28.833-27.728,43.465
			c-5.421,8.758-10.108,17.947-14.922,27.108c-4.863,9.18-4.719,17.967,0.89,27.21c14.539,23.771,16.212,50.042,14.644,77.409
			c-1.303,22.521-1.653,45.374,0.783,67.722c1.528,14.292,8.467,28.108,13.767,41.76c5.793,14.934,8.332,19.456-11.979,22.595
			c-14.984,2.313-17.214,0.807-18.609-14.674c-1.71-18.887-3.835-37.713-6.016-56.519c-0.428-3.768-1.838-7.393-4.687-11.132
			c-0.472,3.513-1.447,7.084-1.307,10.563c0.778,19.229,1.74,38.446,2.83,57.633c0.686,11.979-1.334,13.901-12.745,11.731
			c-8.876-1.65-17.829-3.056-26.7-4.729c-1.832-0.351-3.536-1.446-7.724-3.222c5.247-3.057,8.433-5.948,12.077-6.795
			c7.776-1.776,10.297-4.059,8.877-12.847c-3.056-18.949-6.836-37.766-10.191-56.63c-2.821-15.862-6.396-31.652-7.854-47.628
			c-1.12-12.309-0.171-24.958,1.136-37.299c2.743-25.807,0.46-50.642-8.39-75.157c-10.584-29.255-19.068-59.151-22.766-90.358
			C236.185,392.675,239.784,367.509,252.335,343.138z M265.517,292.271c0.61-2.536,1.328-4.235,1.369-5.959
			c0.439-18.914,1.157-37.847,0.966-56.755c-0.067-6.32-1.906-12.836-4.028-18.826c-1.999-5.685-6.532-6.975-10.207-1.574
			c-7.869,11.648-15.371,23.596-22.585,35.709c-1.239,2.044-1.513,6.238-0.292,8.029
			C240.533,267.197,248.835,282.991,265.517,292.271z M371.948,327.323c3.376-7.724,5.184-14.478,8.881-19.827
			c8.789-12.666,9.336-26.297,6.95-40.831c-1.726-10.555-2.872-21.202-4.256-31.813c-0.783,0-1.516,0-2.271,0.015
			C373.591,264.497,355.199,292.75,371.948,327.323z"/>
	</g>
</g>
</svg>
