<?xml version="1.0" encoding="utf-8"?>
<!-- Generator: Adobe Illustrator 16.0.0, SVG Export Plug-In . SVG Version: 6.00 Build 0)  -->
<!DOCTYPE svg PUBLIC "-//W3C//DTD SVG 1.1//EN" "http://www.w3.org/Graphics/SVG/1.1/DTD/svg11.dtd">
<svg version="1.1" xmlns="http://www.w3.org/2000/svg" xmlns:xlink="http://www.w3.org/1999/xlink" x="0px" y="0px" width="792px"
	 height="612px" viewBox="0 0 792 612" enable-background="new 0 0 792 612" xml:space="preserve">
<g id="Background">
	<rect stroke="#000000" stroke-miterlimit="10" width="792" height="612"/>
</g>
<g id="Text">
	<rect y="577" fill="none" width="769.625" height="35"/>
	<text transform="matrix(1 0 0 1 191.4473 597.6396)" fill="#E6E7E8" font-family="'LeagueSpartan-Bold'" font-size="24">This is so simple, take me back. </text>
</g>
<g id="Graphic">
	<g>
		<path fill="#FAAC54" d="M438.098,196.327c0,2.837-0.07,5.674-0.207,8.509c-0.141,2.834-0.349,5.664-0.627,8.489
			c-0.279,2.824-0.625,5.64-1.042,8.448c-0.416,2.807-0.903,5.603-1.456,8.386c-0.554,2.783-1.175,5.551-1.864,8.305
			c-0.689,2.753-1.448,5.487-2.271,8.203s-1.713,5.41-2.668,8.082c-0.956,2.672-1.979,5.32-3.063,7.941
			c-1.087,2.622-2.237,5.216-3.45,7.781c-1.214,2.565-2.49,5.1-3.827,7.603c-1.337,2.503-2.735,4.973-4.195,7.406
			c-1.458,2.435-2.977,4.833-4.553,7.191c-1.578,2.36-3.212,4.68-4.902,6.959c-1.688,2.279-3.437,4.516-5.236,6.71
			c-1.801,2.194-3.653,4.342-5.561,6.445c-1.904,2.103-3.863,4.157-5.867,6.165c-2.007,2.006-4.064,3.963-6.166,5.868
			c-2.102,1.906-4.252,3.759-6.444,5.56c-2.194,1.801-4.431,3.547-6.711,5.239c-2.278,1.688-4.599,3.321-6.959,4.897
			s-4.755,3.096-7.191,4.557c-2.434,1.459-4.901,2.856-7.405,4.195c-2.503,1.336-5.038,2.613-7.604,3.826
			c-2.564,1.214-5.159,2.361-7.78,3.449c-2.623,1.086-5.27,2.106-7.943,3.063c-2.669,0.956-5.365,1.847-8.081,2.67
			c-2.718,0.823-5.451,1.581-8.203,2.27c-2.753,0.691-5.521,1.313-8.305,1.865c-2.785,0.555-5.579,1.038-8.385,1.455
			c-2.811,0.417-5.625,0.765-8.451,1.043c-2.822,0.279-5.652,0.487-8.486,0.625c-2.836,0.14-5.671,0.21-8.51,0.21
			s-5.674-0.07-8.51-0.21c-2.833-0.138-5.663-0.346-8.488-0.625c-2.826-0.278-5.641-0.626-8.449-1.043
			c-2.804-0.417-5.601-0.9-8.385-1.455c-2.783-0.553-5.551-1.174-8.306-1.865c-2.753-0.688-5.487-1.446-8.203-2.27
			s-5.41-1.714-8.082-2.67c-2.673-0.956-5.318-1.977-7.94-3.063c-2.622-1.088-5.217-2.235-7.783-3.449
			c-2.563-1.213-5.1-2.49-7.6-3.826c-2.505-1.339-4.974-2.736-7.407-4.195c-2.437-1.461-4.831-2.98-7.19-4.557
			c-2.362-1.576-4.682-3.21-6.96-4.897c-2.281-1.692-4.518-3.438-6.712-5.239s-4.342-3.653-6.443-5.56
			c-2.104-1.905-4.159-3.862-6.164-5.868c-2.007-2.008-3.963-4.063-5.87-6.165c-1.907-2.104-3.759-4.251-5.56-6.445
			c-1.802-2.194-3.546-4.432-5.236-6.71c-1.689-2.279-3.324-4.599-4.901-6.959c-1.576-2.358-3.094-4.756-4.554-7.191
			c-1.461-2.433-2.856-4.903-4.196-7.406c-1.336-2.502-2.612-5.037-3.826-7.603c-1.213-2.565-2.363-5.159-3.449-7.781
			c-1.085-2.622-2.107-5.269-3.064-7.941c-0.956-2.672-1.846-5.366-2.67-8.082c-0.822-2.716-1.579-5.45-2.27-8.203
			c-0.689-2.754-1.312-5.522-1.863-8.305c-0.556-2.783-1.04-5.58-1.457-8.386c-0.416-2.808-0.764-5.624-1.042-8.448
			c-0.279-2.825-0.485-5.654-0.626-8.489c-0.138-2.835-0.208-5.672-0.208-8.509c0-2.838,0.07-5.674,0.208-8.509
			c0.141-2.835,0.347-5.666,0.626-8.489c0.278-2.824,0.626-5.641,1.042-8.448c0.417-2.808,0.901-5.603,1.457-8.386
			c0.552-2.784,1.174-5.553,1.863-8.305c0.69-2.753,1.447-5.487,2.27-8.204c0.824-2.716,1.714-5.41,2.67-8.082
			c0.957-2.673,1.979-5.319,3.064-7.941c1.086-2.623,2.236-5.217,3.449-7.782c1.214-2.565,2.49-5.099,3.826-7.603
			c1.34-2.502,2.735-4.971,4.196-7.406c1.46-2.434,2.978-4.83,4.554-7.191c1.577-2.359,3.212-4.679,4.901-6.958
			c1.69-2.28,3.435-4.516,5.236-6.71c1.801-2.193,3.652-4.342,5.56-6.445c1.907-2.103,3.863-4.158,5.87-6.165
			c2.005-2.006,4.061-3.962,6.164-5.869c2.102-1.905,4.249-3.759,6.443-5.559c2.194-1.801,4.431-3.547,6.712-5.236
			c2.278-1.691,4.598-3.325,6.96-4.902c2.359-1.576,4.754-3.095,7.19-4.554c2.434-1.459,4.902-2.857,7.407-4.196
			c2.5-1.337,5.036-2.613,7.6-3.826c2.566-1.213,5.161-2.363,7.783-3.449c2.622-1.087,5.268-2.106,7.94-3.064
			c2.672-0.956,5.366-1.846,8.082-2.669c2.716-0.824,5.45-1.581,8.203-2.271c2.755-0.69,5.522-1.312,8.306-1.865
			c2.784-0.554,5.581-1.039,8.385-1.455c2.809-0.416,5.623-0.763,8.449-1.042c2.825-0.278,5.655-0.487,8.488-0.626
			c2.836-0.14,5.671-0.209,8.51-0.209s5.674,0.069,8.51,0.209c2.834,0.139,5.664,0.348,8.486,0.626
			c2.826,0.279,5.641,0.626,8.451,1.042c2.806,0.417,5.6,0.901,8.385,1.455c2.783,0.553,5.552,1.175,8.305,1.865
			c2.752,0.689,5.485,1.446,8.203,2.271c2.716,0.823,5.412,1.713,8.081,2.669c2.674,0.958,5.32,1.977,7.943,3.064
			c2.621,1.086,5.216,2.236,7.78,3.449c2.565,1.213,5.101,2.489,7.604,3.826c2.504,1.339,4.972,2.737,7.405,4.196
			c2.437,1.459,4.831,2.978,7.191,4.554c2.36,1.577,4.681,3.21,6.959,4.902c2.28,1.689,4.517,3.435,6.711,5.236
			c2.192,1.8,4.343,3.653,6.444,5.559c2.102,1.907,4.159,3.863,6.166,5.869c2.004,2.007,3.963,4.062,5.867,6.165
			c1.907,2.104,3.76,4.252,5.561,6.445c1.8,2.194,3.548,4.431,5.236,6.71c1.69,2.28,3.324,4.599,4.902,6.958
			c1.576,2.361,3.095,4.757,4.553,7.191c1.46,2.435,2.858,4.904,4.195,7.406c1.337,2.503,2.613,5.037,3.827,7.603
			c1.213,2.565,2.363,5.16,3.45,7.782c1.084,2.622,2.107,5.268,3.063,7.941c0.955,2.672,1.845,5.366,2.668,8.082
			c0.823,2.716,1.582,5.451,2.271,8.204c0.689,2.752,1.311,5.521,1.864,8.305c0.553,2.783,1.04,5.578,1.456,8.386
			c0.417,2.807,0.763,5.624,1.042,8.448c0.278,2.824,0.486,5.654,0.627,8.489C438.027,190.653,438.098,193.488,438.098,196.327z"/>
		<text transform="matrix(1 0 0 1 228.0762 203.2646)" fill="#FFFFFF" font-family="'TimesNewRomanPSMT'" font-size="34.6833">F</text>
		<text transform="matrix(1 0 0 1 247.3643 203.2646)" fill="#FFFFFF" font-family="'TimesNewRomanPSMT'" font-size="34.6833">l</text>
		<text transform="matrix(1 0 0 1 257 203.2646)" fill="#FFFFFF" font-family="'TimesNewRomanPSMT'" font-size="34.6833">o</text>
		<text transform="matrix(1 0 0 1 274.3408 203.2646)" fill="#FFFFFF" font-family="'TimesNewRomanPSMT'" font-size="34.6833">r</text>
		<text transform="matrix(1 0 0 1 285.8906 203.2646)" fill="#FFFFFF" font-family="'TimesNewRomanPSMT'" font-size="34.6833">a</text>
		<text transform="matrix(1 0 0 1 221.3262 241.416)" fill="#FFFFFF" font-family="'TimesNewRomanPSMT'" font-size="34.6833">4</text>
		<text transform="matrix(1 0 0 1 238.6689 241.416)" fill="#FFFFFF" font-family="'TimesNewRomanPSMT'" font-size="34.6833">5</text>
		<text transform="matrix(1 0 0 1 256.0107 241.416)" fill="#FFFFFF" font-family="'TimesNewRomanPSMT'" font-size="34.6833">4</text>
		<text transform="matrix(1 0 0 1 273.3516 241.416)" fill="#FFFFFF" font-family="'TimesNewRomanPSMT'" font-size="34.6833">2</text>
		<text transform="matrix(1 0 0 1 290.6924 241.416)" fill="#FFFFFF" font-family="'TimesNewRomanPSMT'" font-size="34.6833">4</text>
		<path fill="#5B8CC1" d="M517.752,196.327c0,1.277-0.064,2.552-0.191,3.823c-0.125,1.271-0.312,2.534-0.56,3.787
			c-0.25,1.253-0.559,2.491-0.931,3.713c-0.37,1.222-0.801,2.424-1.287,3.604c-0.492,1.18-1.035,2.333-1.639,3.46
			c-0.604,1.126-1.257,2.221-1.967,3.282c-0.711,1.063-1.471,2.088-2.28,3.076c-0.812,0.987-1.668,1.932-2.57,2.836
			c-0.905,0.902-1.849,1.76-2.838,2.57c-0.988,0.811-2.012,1.57-3.074,2.28c-1.062,0.709-2.156,1.365-3.284,1.968
			c-1.127,0.602-2.279,1.147-3.459,1.636c-1.179,0.489-2.383,0.919-3.604,1.291c-1.223,0.369-2.46,0.68-3.713,0.929
			c-1.254,0.249-2.516,0.437-3.788,0.562c-1.271,0.125-2.545,0.188-3.821,0.188c-1.279,0-2.553-0.063-3.823-0.188
			c-1.272-0.125-2.534-0.313-3.788-0.562c-1.252-0.249-2.49-0.56-3.714-0.929c-1.222-0.372-2.423-0.802-3.603-1.291
			c-1.181-0.489-2.333-1.034-3.461-1.636c-1.127-0.603-2.219-1.259-3.283-1.968c-1.061-0.71-2.087-1.47-3.073-2.28
			c-0.987-0.81-1.933-1.668-2.839-2.57c-0.9-0.904-1.759-1.849-2.568-2.836c-0.811-0.988-1.572-2.013-2.281-3.076
			c-0.711-1.062-1.366-2.156-1.966-3.282c-0.604-1.127-1.149-2.28-1.638-3.46s-0.92-2.382-1.289-3.604
			c-0.371-1.222-0.681-2.46-0.931-3.713c-0.249-1.253-0.438-2.515-0.563-3.787c-0.124-1.271-0.188-2.546-0.188-3.823
			c0-1.277,0.064-2.552,0.188-3.823c0.125-1.271,0.313-2.533,0.563-3.787c0.25-1.253,0.56-2.49,0.931-3.713
			c0.369-1.223,0.801-2.423,1.289-3.604c0.488-1.18,1.033-2.333,1.638-3.459c0.6-1.127,1.255-2.222,1.966-3.284
			c0.709-1.062,1.471-2.087,2.281-3.076c0.81-0.987,1.668-1.932,2.568-2.836c0.906-0.903,1.852-1.759,2.839-2.57
			c0.986-0.81,2.013-1.571,3.073-2.28c1.064-0.709,2.156-1.366,3.283-1.968c1.128-0.603,2.28-1.148,3.461-1.637
			c1.18-0.489,2.381-0.918,3.603-1.289c1.224-0.372,2.462-0.681,3.714-0.93c1.254-0.25,2.516-0.437,3.788-0.563
			c1.271-0.126,2.544-0.187,3.823-0.187c1.276,0,2.551,0.061,3.821,0.187c1.272,0.125,2.534,0.313,3.788,0.563
			c1.253,0.249,2.49,0.559,3.713,0.93c1.221,0.371,2.425,0.8,3.604,1.289c1.18,0.488,2.332,1.034,3.459,1.637
			c1.128,0.602,2.223,1.259,3.284,1.968c1.063,0.709,2.086,1.47,3.074,2.28c0.989,0.811,1.933,1.667,2.838,2.57
			c0.902,0.904,1.759,1.849,2.57,2.836c0.81,0.988,1.569,2.014,2.28,3.076c0.71,1.062,1.363,2.156,1.967,3.284
			c0.604,1.126,1.146,2.279,1.639,3.459c0.486,1.181,0.917,2.382,1.287,3.604c0.372,1.223,0.681,2.46,0.931,3.713
			c0.248,1.253,0.435,2.515,0.56,3.787C517.688,193.775,517.752,195.049,517.752,196.327z"/>
		<text transform="matrix(1 0 0 1 469.5352 197.8877)" fill="#FFFFFF" font-family="'TimesNewRomanPSMT'" font-size="7.7969">W</text>
		<text transform="matrix(1 0 0 1 476.2695 197.8877)" fill="#FFFFFF" font-family="'TimesNewRomanPSMT'" font-size="7.7969">a</text>
		<text transform="matrix(1 0 0 1 479.7305 197.8877)" fill="#FFFFFF" font-family="'TimesNewRomanPSMT'" font-size="7.7969">t</text>
		<text transform="matrix(1 0 0 1 481.8965 197.8877)" fill="#FFFFFF" font-family="'TimesNewRomanPSMT'" font-size="7.7969">e</text>
		<text transform="matrix(1 0 0 1 485.3574 197.8877)" fill="#FFFFFF" font-family="'TimesNewRomanPSMT'" font-size="7.7969">r</text>
		<text transform="matrix(1 0 0 1 470.9482 206.4678)" fill="#FFFFFF" font-family="'TimesNewRomanPSMT'" font-size="7.7969">2</text>
		<text transform="matrix(1 0 0 1 474.8438 206.4678)" fill="#FFFFFF" font-family="'TimesNewRomanPSMT'" font-size="7.7969">2</text>
		<text transform="matrix(1 0 0 1 478.7432 206.4678)" fill="#FFFFFF" font-family="'TimesNewRomanPSMT'" font-size="7.7969">9</text>
		<text transform="matrix(1 0 0 1 482.6416 206.4678)" fill="#FFFFFF" font-family="'TimesNewRomanPSMT'" font-size="7.7969">8</text>
		<path fill="#7CB45A" d="M691.698,383.143c0,2.536-0.063,5.07-0.187,7.604c-0.123,2.533-0.309,5.062-0.56,7.587
			c-0.248,2.522-0.558,5.038-0.931,7.549c-0.372,2.508-0.807,5.005-1.301,7.494c-0.494,2.486-1.049,4.961-1.666,7.42
			s-1.292,4.904-2.029,7.331c-0.734,2.427-1.531,4.832-2.383,7.221c-0.857,2.388-1.77,4.755-2.74,7.096
			c-0.97,2.346-1.996,4.662-3.082,6.954c-1.084,2.293-2.222,4.558-3.42,6.793c-1.195,2.238-2.445,4.443-3.749,6.62
			c-1.302,2.173-2.66,4.316-4.068,6.427c-1.407,2.106-2.87,4.181-4.38,6.217c-1.511,2.037-3.071,4.035-4.678,5.996
			c-1.609,1.96-3.267,3.879-4.969,5.758c-1.704,1.88-3.452,3.717-5.245,5.51c-1.794,1.794-3.63,3.541-5.508,5.244
			c-1.88,1.703-3.801,3.361-5.761,4.968c-1.959,1.608-3.956,3.171-5.997,4.681c-2.036,1.511-4.109,2.971-6.217,4.381
			c-2.11,1.407-4.251,2.766-6.426,4.068s-4.383,2.553-6.618,3.747c-2.237,1.196-4.502,2.338-6.795,3.422
			c-2.291,1.083-4.609,2.11-6.953,3.082c-2.342,0.97-4.707,1.882-7.095,2.737c-2.39,0.855-4.795,1.648-7.223,2.384
			c-2.427,0.738-4.87,1.415-7.332,2.031c-2.459,0.615-4.933,1.17-7.421,1.665c-2.488,0.494-4.986,0.93-7.493,1.301
			c-2.509,0.373-5.024,0.681-7.55,0.931c-2.523,0.249-5.052,0.434-7.585,0.56c-2.532,0.125-5.065,0.187-7.603,0.187
			c-2.536,0-5.07-0.062-7.604-0.187c-2.532-0.126-5.062-0.311-7.584-0.56c-2.523-0.25-5.039-0.558-7.55-0.931
			c-2.508-0.371-5.006-0.807-7.492-1.301c-2.488-0.495-4.963-1.05-7.422-1.665c-2.46-0.616-4.904-1.293-7.332-2.031
			c-2.427-0.735-4.834-1.528-7.221-2.384c-2.389-0.855-4.754-1.768-7.098-2.737c-2.342-0.972-4.66-1.999-6.954-3.082
			c-2.292-1.084-4.556-2.226-6.791-3.422c-2.237-1.194-4.443-2.444-6.62-3.747c-2.175-1.303-4.315-2.661-6.426-4.068
			c-2.108-1.41-4.182-2.87-6.218-4.381c-2.037-1.51-4.036-3.072-5.995-4.681c-1.962-1.606-3.882-3.265-5.762-4.968
			c-1.879-1.703-3.713-3.45-5.508-5.244c-1.792-1.793-3.541-3.63-5.244-5.51c-1.703-1.879-3.359-3.798-4.968-5.758
			c-1.61-1.961-3.168-3.959-4.678-5.996c-1.513-2.036-2.974-4.11-4.381-6.217c-1.41-2.11-2.765-4.254-4.068-6.427
			c-1.305-2.177-2.554-4.382-3.75-6.62c-1.195-2.235-2.337-4.5-3.418-6.793c-1.086-2.292-2.113-4.608-3.083-6.954
			c-0.972-2.341-1.884-4.708-2.738-7.096c-0.854-2.389-1.649-4.794-2.387-7.221c-0.735-2.427-1.412-4.872-2.027-7.331
			c-0.616-2.459-1.174-4.934-1.668-7.42c-0.492-2.489-0.926-4.986-1.301-7.494c-0.371-2.511-0.683-5.026-0.93-7.549
			c-0.248-2.525-0.435-5.054-0.56-7.587s-0.188-5.067-0.188-7.604c0-2.535,0.063-5.07,0.188-7.603
			c0.125-2.533,0.312-5.063,0.56-7.585c0.247-2.524,0.559-5.041,0.93-7.55c0.375-2.508,0.809-5.007,1.301-7.495
			c0.494-2.486,1.052-4.96,1.668-7.419c0.615-2.462,1.292-4.906,2.027-7.334c0.737-2.425,1.532-4.832,2.387-7.221
			c0.854-2.388,1.767-4.752,2.738-7.096c0.97-2.342,1.997-4.659,3.083-6.952c1.081-2.295,2.223-4.559,3.418-6.794
			c1.196-2.237,2.445-4.443,3.75-6.619c1.304-2.175,2.658-4.317,4.068-6.425c1.407-2.107,2.868-4.182,4.381-6.219
			c1.51-2.038,3.067-4.035,4.678-5.995c1.608-1.961,3.265-3.88,4.968-5.761c1.703-1.878,3.452-3.713,5.244-5.508
			c1.795-1.792,3.629-3.541,5.508-5.244c1.88-1.703,3.8-3.358,5.762-4.968c1.959-1.608,3.958-3.168,5.995-4.678
			c2.036-1.511,4.109-2.972,6.218-4.38c2.11-1.41,4.251-2.765,6.426-4.069c2.177-1.304,4.383-2.553,6.62-3.75
			c2.235-1.196,4.499-2.335,6.791-3.419c2.294-1.084,4.612-2.111,6.954-3.083c2.344-0.97,4.709-1.882,7.098-2.737
			c2.387-0.854,4.794-1.65,7.221-2.387c2.428-0.736,4.872-1.412,7.332-2.029c2.459-0.616,4.934-1.171,7.422-1.665
			c2.486-0.495,4.984-0.929,7.492-1.301c2.511-0.372,5.026-0.682,7.55-0.931c2.522-0.249,5.052-0.435,7.584-0.56
			c2.534-0.125,5.068-0.186,7.604-0.186c2.537,0,5.07,0.061,7.603,0.186c2.533,0.125,5.062,0.311,7.585,0.56
			c2.525,0.249,5.041,0.559,7.55,0.931c2.507,0.372,5.005,0.806,7.493,1.301c2.488,0.494,4.962,1.049,7.421,1.665
			c2.462,0.617,4.905,1.292,7.332,2.029c2.428,0.737,4.833,1.533,7.223,2.387c2.388,0.855,4.753,1.767,7.095,2.737
			c2.344,0.971,4.662,1.998,6.953,3.083c2.293,1.084,4.558,2.224,6.795,3.419c2.235,1.196,4.443,2.445,6.618,3.75
			s4.315,2.659,6.426,4.069c2.107,1.408,4.181,2.869,6.217,4.38c2.041,1.51,4.038,3.07,5.997,4.678
			c1.96,1.61,3.881,3.265,5.761,4.968c1.878,1.703,3.714,3.452,5.508,5.244c1.793,1.795,3.541,3.63,5.245,5.508
			c1.702,1.881,3.359,3.8,4.969,5.761c1.606,1.96,3.167,3.958,4.678,5.995c1.51,2.038,2.973,4.112,4.38,6.219
			c1.408,2.108,2.767,4.25,4.068,6.425c1.304,2.176,2.554,4.382,3.749,6.619c1.198,2.235,2.336,4.499,3.42,6.794
			c1.086,2.293,2.112,4.61,3.082,6.952c0.971,2.344,1.883,4.708,2.74,7.096c0.852,2.389,1.648,4.796,2.383,7.221
			c0.737,2.428,1.412,4.872,2.029,7.334c0.617,2.459,1.172,4.933,1.666,7.419c0.494,2.488,0.929,4.987,1.301,7.495
			c0.373,2.509,0.683,5.025,0.931,7.55c0.251,2.522,0.437,5.052,0.56,7.585C691.636,378.072,691.698,380.607,691.698,383.143z"/>
		<text transform="matrix(1 0 0 1 498.8691 389.3408)" fill="#FFFFFF" font-family="'TimesNewRomanPSMT'" font-size="30.9889">F</text>
		<text transform="matrix(1 0 0 1 516.1035 389.3408)" fill="#FFFFFF" font-family="'TimesNewRomanPSMT'" font-size="30.9889">a</text>
		<text transform="matrix(1 0 0 1 529.8594 389.3408)" fill="#FFFFFF" font-family="'TimesNewRomanPSMT'" font-size="30.9889">u</text>
		<text transform="matrix(1 0 0 1 545.3525 389.3408)" fill="#FFFFFF" font-family="'TimesNewRomanPSMT'" font-size="30.9889">n</text>
		<text transform="matrix(1 0 0 1 560.8467 389.3408)" fill="#FFFFFF" font-family="'TimesNewRomanPSMT'" font-size="30.9889">a</text>
		<text transform="matrix(1 0 0 1 497.999 423.4346)" fill="#FFFFFF" font-family="'TimesNewRomanPSMT'" font-size="30.9889">3</text>
		<text transform="matrix(1 0 0 1 513.4922 423.4346)" fill="#FFFFFF" font-family="'TimesNewRomanPSMT'" font-size="30.9889">6</text>
		<text transform="matrix(1 0 0 1 528.9893 423.4346)" fill="#FFFFFF" font-family="'TimesNewRomanPSMT'" font-size="30.9889">2</text>
		<text transform="matrix(1 0 0 1 544.4814 423.4346)" fill="#FFFFFF" font-family="'TimesNewRomanPSMT'" font-size="30.9889">7</text>
		<text transform="matrix(1 0 0 1 559.9766 423.4346)" fill="#FFFFFF" font-family="'TimesNewRomanPSMT'" font-size="30.9889">1</text>
	</g>
</g>
</svg>
