<?xml version="1.0" encoding="utf-8"?>
<!-- Generator: Adobe Illustrator 16.0.0, SVG Export Plug-In . SVG Version: 6.00 Build 0)  -->
<!DOCTYPE svg PUBLIC "-//W3C//DTD SVG 1.1//EN" "http://www.w3.org/Graphics/SVG/1.1/DTD/svg11.dtd">
<svg version="1.1" xmlns="http://www.w3.org/2000/svg" xmlns:xlink="http://www.w3.org/1999/xlink" x="0px" y="0px" width="792px"
	 height="612px" viewBox="0 0 792 612" enable-background="new 0 0 792 612" xml:space="preserve">
<g id="Background">
	<rect stroke="#000000" stroke-miterlimit="10" width="792" height="612"/>
</g>
<g id="Text">
	<rect y="577" fill="none" width="794.239" height="35"/>
	<text transform="matrix(1 0 0 1 167.9941 597.6396)" fill="#E6E7E8" font-family="'LeagueSpartan-Bold'" font-size="24">Can you Please give me all the Tags? </text>
	<g>
		<path fill="#5B8CC1" d="M368.084,386.793c0,1.562-0.078,3.122-0.229,4.676c-0.154,1.555-0.383,3.1-0.688,4.631
			c-0.305,1.533-0.686,3.048-1.139,4.543c-0.453,1.494-0.979,2.963-1.578,4.406c-0.596,1.445-1.263,2.854-1.999,4.233
			c-0.737,1.378-1.541,2.717-2.407,4.014c-0.869,1.301-1.798,2.555-2.789,3.761c-0.992,1.209-2.04,2.365-3.145,3.47
			c-1.105,1.105-2.261,2.154-3.468,3.145c-1.208,0.991-2.461,1.921-3.763,2.788c-1.299,0.87-2.637,1.672-4.015,2.406
			c-1.377,0.738-2.788,1.403-4.23,2.003c-1.443,0.599-2.913,1.125-4.409,1.577c-1.496,0.453-3.009,0.832-4.543,1.139
			c-1.531,0.304-3.076,0.534-4.63,0.686c-1.554,0.154-3.113,0.23-4.677,0.23c-1.561,0-3.119-0.076-4.676-0.23
			c-1.555-0.151-3.098-0.382-4.632-0.686c-1.532-0.307-3.047-0.686-4.54-1.139c-1.496-0.452-2.965-0.979-4.408-1.577
			c-1.443-0.6-2.855-1.265-4.231-2.003c-1.38-0.734-2.718-1.536-4.017-2.406c-1.299-0.867-2.554-1.797-3.76-2.788
			c-1.208-0.99-2.365-2.039-3.469-3.145c-1.105-1.104-2.153-2.261-3.145-3.47c-0.992-1.206-1.921-2.46-2.787-3.761
			c-0.871-1.297-1.674-2.636-2.408-4.014c-0.737-1.379-1.403-2.788-2.003-4.233c-0.598-1.443-1.122-2.912-1.577-4.406
			c-0.452-1.495-0.832-3.01-1.139-4.543c-0.303-1.531-0.531-3.076-0.686-4.631c-0.152-1.554-0.229-3.114-0.229-4.676
			c0-1.563,0.076-3.122,0.229-4.675c0.154-1.556,0.383-3.099,0.686-4.632c0.307-1.533,0.687-3.047,1.139-4.542
			c0.455-1.494,0.979-2.965,1.577-4.408c0.6-1.444,1.266-2.854,2.003-4.232c0.734-1.377,1.537-2.717,2.408-4.014
			c0.866-1.301,1.795-2.554,2.787-3.763c0.991-1.206,2.039-2.363,3.145-3.468c1.104-1.104,2.261-2.153,3.469-3.146
			c1.206-0.991,2.461-1.92,3.76-2.789c1.299-0.867,2.637-1.67,4.017-2.406c1.376-0.736,2.788-1.404,4.231-2.001
			c1.443-0.599,2.912-1.124,4.408-1.576c1.493-0.455,3.008-0.834,4.54-1.139c1.534-0.305,3.077-0.533,4.632-0.688
			c1.557-0.153,3.115-0.229,4.676-0.229c1.563,0,3.123,0.075,4.677,0.229c1.554,0.154,3.099,0.383,4.63,0.688
			c1.534,0.305,3.047,0.684,4.543,1.139c1.496,0.452,2.966,0.978,4.409,1.576c1.442,0.597,2.854,1.265,4.23,2.001
			c1.378,0.736,2.716,1.539,4.015,2.406c1.302,0.869,2.555,1.798,3.763,2.789c1.207,0.992,2.362,2.041,3.468,3.146
			c1.104,1.104,2.152,2.262,3.145,3.468c0.991,1.209,1.92,2.462,2.789,3.763c0.866,1.297,1.67,2.637,2.407,4.014
			c0.736,1.379,1.403,2.788,1.999,4.232c0.599,1.443,1.125,2.914,1.578,4.408c0.453,1.495,0.834,3.009,1.139,4.542
			s0.533,3.076,0.688,4.632C368.006,383.671,368.084,385.23,368.084,386.793z"/>
		<text transform="matrix(1 0 0 1 305.2871 388.6992)" fill="#FFFFFF" font-family="'TimesNewRomanPSMT'" font-size="9.5332">A</text>
		<text transform="matrix(1 0 0 1 312.1729 388.6992)" fill="#FFFFFF" font-family="'TimesNewRomanPSMT'" font-size="9.5332">q</text>
		<text transform="matrix(1 0 0 1 316.9375 388.6992)" fill="#FFFFFF" font-family="'TimesNewRomanPSMT'" font-size="9.5332">u</text>
		<text transform="matrix(1 0 0 1 321.7051 388.6992)" fill="#FFFFFF" font-family="'TimesNewRomanPSMT'" font-size="9.5332">a</text>
		<text transform="matrix(1 0 0 1 325.9365 388.6992)" fill="#FFFFFF" font-family="'TimesNewRomanPSMT'" font-size="9.5332">t</text>
		<text transform="matrix(1 0 0 1 328.5859 388.6992)" fill="#FFFFFF" font-family="'TimesNewRomanPSMT'" font-size="9.5332">i</text>
		<text transform="matrix(1 0 0 1 331.2344 388.6992)" fill="#FFFFFF" font-family="'TimesNewRomanPSMT'" font-size="9.5332">c</text>
		<text transform="matrix(1 0 0 1 310.8428 399.1973)" fill="#FFFFFF" font-family="'TimesNewRomanPSMT'" font-size="9.5332">1</text>
		<text transform="matrix(1 0 0 1 315.6104 399.1973)" fill="#FFFFFF" font-family="'TimesNewRomanPSMT'" font-size="9.5332">9</text>
		<text transform="matrix(1 0 0 1 320.377 399.1973)" fill="#FFFFFF" font-family="'TimesNewRomanPSMT'" font-size="9.5332">9</text>
		<text transform="matrix(1 0 0 1 325.1436 399.1973)" fill="#FFFFFF" font-family="'TimesNewRomanPSMT'" font-size="9.5332">5</text>
		<path fill="#7C8686" d="M584.578,277.615c0,1.491-0.072,2.978-0.22,4.459c-0.145,1.481-0.365,2.956-0.654,4.416
			c-0.291,1.462-0.654,2.905-1.084,4.331c-0.434,1.426-0.935,2.826-1.505,4.202c-0.569,1.378-1.206,2.723-1.909,4.036
			c-0.701,1.313-1.468,2.591-2.294,3.83c-0.83,1.239-1.717,2.432-2.659,3.584c-0.945,1.153-1.945,2.254-3,3.309
			c-1.053,1.055-2.154,2.053-3.307,2.999c-1.152,0.943-2.348,1.83-3.585,2.658c-1.239,0.828-2.516,1.592-3.83,2.295
			s-2.659,1.338-4.035,1.91c-1.377,0.568-2.778,1.07-4.204,1.504c-1.426,0.431-2.869,0.793-4.33,1.083
			c-1.462,0.292-2.934,0.509-4.416,0.656c-1.483,0.146-2.97,0.216-4.458,0.216c-1.491,0-2.977-0.069-4.46-0.216
			c-1.483-0.147-2.955-0.364-4.417-0.656c-1.46-0.29-2.903-0.652-4.329-1.083c-1.426-0.434-2.827-0.936-4.205-1.504
			c-1.374-0.572-2.721-1.207-4.035-1.91c-1.313-0.703-2.589-1.467-3.828-2.295c-1.238-0.828-2.435-1.715-3.585-2.658
			c-1.153-0.946-2.255-1.944-3.309-2.999s-2.053-2.156-2.999-3.309c-0.945-1.152-1.832-2.346-2.657-3.584
			c-0.83-1.239-1.595-2.517-2.296-3.83c-0.703-1.313-1.34-2.658-1.91-4.036c-0.57-1.376-1.07-2.776-1.502-4.202
			c-0.435-1.426-0.795-2.869-1.086-4.331c-0.292-1.46-0.509-2.935-0.655-4.416c-0.147-1.481-0.219-2.968-0.219-4.459
			s0.071-2.975,0.219-4.459c0.146-1.481,0.363-2.953,0.655-4.416c0.291-1.462,0.651-2.903,1.086-4.329
			c0.432-1.426,0.932-2.827,1.502-4.205c0.57-1.375,1.207-2.722,1.91-4.035c0.701-1.315,1.466-2.591,2.296-3.829
			c0.825-1.239,1.712-2.435,2.657-3.587c0.946-1.151,1.945-2.255,2.999-3.306c1.054-1.054,2.155-2.053,3.309-2.999
			c1.15-0.946,2.347-1.832,3.585-2.659c1.239-0.829,2.516-1.593,3.828-2.297c1.314-0.701,2.661-1.337,4.035-1.906
			c1.378-0.572,2.779-1.073,4.205-1.506c1.426-0.432,2.869-0.793,4.329-1.083c1.462-0.292,2.934-0.51,4.417-0.657
			c1.483-0.145,2.969-0.22,4.46-0.22c1.488,0,2.975,0.075,4.458,0.22c1.482,0.147,2.954,0.365,4.416,0.657
			c1.461,0.29,2.904,0.651,4.33,1.083c1.426,0.433,2.827,0.934,4.204,1.506c1.376,0.569,2.721,1.205,4.035,1.906
			c1.314,0.704,2.591,1.469,3.83,2.297c1.237,0.827,2.433,1.713,3.585,2.659s2.254,1.945,3.307,2.999
			c1.055,1.051,2.055,2.155,3,3.306c0.942,1.153,1.829,2.348,2.659,3.587c0.826,1.238,1.593,2.514,2.294,3.829
			c0.703,1.313,1.34,2.659,1.909,4.035c0.57,1.378,1.071,2.779,1.505,4.205c0.43,1.426,0.793,2.867,1.084,4.329
			c0.289,1.462,0.51,2.934,0.654,4.416C584.506,274.641,584.578,276.124,584.578,277.615z"/>
		<text transform="matrix(1 0 0 1 526.457 279.4346)" fill="#FFFFFF" font-family="'TimesNewRomanPSMT'" font-size="9.0961">I</text>
		<text transform="matrix(1 0 0 1 529.4854 279.4346)" fill="#FFFFFF" font-family="'TimesNewRomanPSMT'" font-size="9.0961">n</text>
		<text transform="matrix(1 0 0 1 534.0352 279.4346)" fill="#FFFFFF" font-family="'TimesNewRomanPSMT'" font-size="9.0961">s</text>
		<text transform="matrix(1 0 0 1 537.5742 279.4346)" fill="#FFFFFF" font-family="'TimesNewRomanPSMT'" font-size="9.0961">e</text>
		<text transform="matrix(1 0 0 1 541.6123 279.4346)" fill="#FFFFFF" font-family="'TimesNewRomanPSMT'" font-size="9.0961">c</text>
		<text transform="matrix(1 0 0 1 545.6484 279.4346)" fill="#FFFFFF" font-family="'TimesNewRomanPSMT'" font-size="9.0961">t</text>
		<text transform="matrix(1 0 0 1 548.1738 279.4346)" fill="#FFFFFF" font-family="'TimesNewRomanPSMT'" font-size="9.0961">s</text>
		<text transform="matrix(1 0 0 1 529.9893 289.4424)" fill="#FFFFFF" font-family="'TimesNewRomanPSMT'" font-size="9.0961">1</text>
		<text transform="matrix(1 0 0 1 534.5371 289.4424)" fill="#FFFFFF" font-family="'TimesNewRomanPSMT'" font-size="9.0961">8</text>
		<text transform="matrix(1 0 0 1 539.0869 289.4424)" fill="#FFFFFF" font-family="'TimesNewRomanPSMT'" font-size="9.0961">1</text>
		<text transform="matrix(1 0 0 1 543.6348 289.4424)" fill="#FFFFFF" font-family="'TimesNewRomanPSMT'" font-size="9.0961">4</text>
		<path fill="#FAAC54" d="M590.837,429.581c0,1.858-0.047,3.716-0.139,5.571c-0.09,1.858-0.227,3.711-0.41,5.56
			c-0.182,1.851-0.409,3.694-0.68,5.532c-0.273,1.837-0.592,3.67-0.954,5.49c-0.362,1.824-0.769,3.638-1.222,5.439
			c-0.451,1.804-0.946,3.595-1.486,5.373c-0.538,1.777-1.122,3.541-1.747,5.292c-0.627,1.749-1.296,3.483-2.007,5.202
			c-0.713,1.715-1.466,3.414-2.261,5.095c-0.794,1.681-1.628,3.339-2.505,4.979c-0.877,1.636-1.792,3.254-2.747,4.848
			c-0.956,1.594-1.949,3.163-2.981,4.708c-1.033,1.547-2.104,3.065-3.21,4.559c-1.107,1.494-2.251,2.957-3.43,4.394
			s-2.392,2.842-3.64,4.22c-1.248,1.377-2.529,2.724-3.844,4.038c-1.314,1.315-2.659,2.593-4.035,3.843
			c-1.379,1.248-2.787,2.461-4.223,3.64c-1.437,1.18-2.9,2.324-4.394,3.43c-1.494,1.108-3.012,2.179-4.558,3.211
			c-1.547,1.033-3.115,2.024-4.708,2.981c-1.593,0.954-3.21,1.87-4.85,2.745c-1.64,0.879-3.299,1.714-4.979,2.507
			c-1.681,0.795-3.38,1.549-5.097,2.259c-1.716,0.712-3.451,1.382-5.199,2.007c-1.752,0.628-3.516,1.209-5.294,1.749
			s-3.569,1.036-5.371,1.486c-1.803,0.452-3.616,0.858-5.438,1.222s-3.653,0.68-5.492,0.951c-1.838,0.273-3.684,0.502-5.531,0.683
			c-1.85,0.182-3.703,0.32-5.559,0.41c-1.857,0.092-3.713,0.138-5.572,0.138s-3.717-0.046-5.574-0.138
			c-1.854-0.09-3.707-0.229-5.556-0.41c-1.851-0.181-3.694-0.409-5.534-0.683c-1.838-0.271-3.667-0.588-5.49-0.951
			c-1.824-0.363-3.635-0.77-5.438-1.222c-1.804-0.45-3.593-0.946-5.372-1.486s-3.543-1.121-5.291-1.749
			c-1.752-0.625-3.484-1.295-5.203-2.007c-1.716-0.71-3.414-1.464-5.094-2.259c-1.68-0.793-3.34-1.628-4.979-2.507
			c-1.641-0.875-3.255-1.791-4.852-2.745c-1.594-0.957-3.164-1.948-4.708-2.981c-1.545-1.032-3.063-2.103-4.556-3.211
			c-1.494-1.105-2.959-2.25-4.396-3.43c-1.437-1.179-2.843-2.392-4.221-3.64c-1.375-1.25-2.721-2.527-4.034-3.843
			c-1.315-1.314-2.597-2.661-3.844-4.038c-1.249-1.378-2.462-2.783-3.641-4.22c-1.181-1.437-2.323-2.899-3.431-4.394
			c-1.105-1.493-2.177-3.012-3.209-4.559c-1.032-1.545-2.027-3.114-2.981-4.708c-0.956-1.594-1.873-3.212-2.747-4.848
			c-0.876-1.641-1.713-3.299-2.506-4.979c-0.797-1.681-1.549-3.38-2.26-5.095c-0.711-1.719-1.379-3.453-2.005-5.202
			c-0.627-1.751-1.209-3.515-1.749-5.292c-0.54-1.778-1.036-3.569-1.488-5.373c-0.448-1.802-0.857-3.615-1.219-5.439
			c-0.363-1.82-0.681-3.653-0.954-5.49c-0.272-1.838-0.501-3.682-0.683-5.532c-0.182-1.849-0.316-3.701-0.41-5.56
			c-0.091-1.855-0.137-3.713-0.137-5.571c0-1.859,0.046-3.716,0.137-5.573c0.094-1.855,0.229-3.707,0.41-5.559
			c0.182-1.848,0.41-3.69,0.683-5.53c0.273-1.839,0.591-3.669,0.954-5.492c0.361-1.823,0.771-3.634,1.219-5.439
			c0.452-1.802,0.948-3.591,1.488-5.371c0.54-1.778,1.122-3.543,1.749-5.291c0.626-1.75,1.294-3.485,2.005-5.201
			c0.711-1.719,1.463-3.414,2.26-5.095c0.793-1.682,1.63-3.339,2.506-4.979c0.874-1.64,1.791-3.254,2.747-4.852
			c0.954-1.593,1.949-3.163,2.981-4.707c1.032-1.545,2.104-3.066,3.209-4.556c1.107-1.494,2.25-2.959,3.431-4.396
			c1.179-1.436,2.392-2.844,3.641-4.22c1.247-1.378,2.528-2.722,3.844-4.036c1.313-1.314,2.659-2.597,4.034-3.842
			c1.378-1.25,2.784-2.465,4.221-3.644c1.438-1.179,2.902-2.32,4.396-3.429c1.492-1.105,3.011-2.177,4.556-3.209
			c1.544-1.033,3.114-2.027,4.708-2.98c1.597-0.958,3.211-1.874,4.852-2.749c1.639-0.876,3.299-1.71,4.979-2.508
			c1.68-0.793,3.378-1.547,5.094-2.257c1.719-0.711,3.451-1.38,5.203-2.006c1.748-0.626,3.512-1.208,5.291-1.748
			c1.779-0.539,3.568-1.035,5.372-1.487c1.804-0.45,3.614-0.86,5.438-1.22c1.823-0.363,3.652-0.681,5.49-0.955
			c1.84-0.273,3.684-0.501,5.534-0.682c1.849-0.183,3.701-0.318,5.556-0.409c1.857-0.093,3.715-0.136,5.574-0.136
			s3.715,0.043,5.572,0.136c1.855,0.091,3.709,0.227,5.559,0.409c1.848,0.181,3.693,0.408,5.531,0.682
			c1.839,0.274,3.67,0.592,5.492,0.955c1.822,0.359,3.636,0.77,5.438,1.22c1.802,0.452,3.593,0.948,5.371,1.487
			c1.778,0.54,3.542,1.122,5.294,1.748c1.748,0.626,3.483,1.295,5.199,2.006c1.717,0.71,3.416,1.464,5.097,2.257
			c1.68,0.798,3.339,1.632,4.979,2.508c1.64,0.875,3.257,1.791,4.85,2.749c1.593,0.953,3.161,1.947,4.708,2.98
			c1.546,1.032,3.063,2.104,4.558,3.209c1.493,1.108,2.957,2.25,4.394,3.429c1.436,1.179,2.844,2.394,4.223,3.644
			c1.376,1.245,2.721,2.527,4.035,3.842s2.596,2.658,3.844,4.036c1.248,1.376,2.461,2.784,3.64,4.22
			c1.179,1.438,2.322,2.902,3.43,4.396c1.106,1.489,2.177,3.011,3.21,4.556c1.032,1.544,2.025,3.114,2.981,4.707
			c0.955,1.598,1.87,3.212,2.747,4.852c0.877,1.641,1.711,3.298,2.505,4.979c0.795,1.681,1.548,3.376,2.261,5.095
			c0.711,1.716,1.38,3.451,2.007,5.201c0.625,1.748,1.209,3.513,1.747,5.291c0.54,1.78,1.035,3.569,1.486,5.371
			c0.453,1.806,0.859,3.616,1.222,5.439s0.681,3.653,0.954,5.492c0.271,1.84,0.498,3.683,0.68,5.53
			c0.184,1.852,0.32,3.703,0.41,5.559C590.79,425.865,590.837,427.722,590.837,429.581z"/>
		<text transform="matrix(1 0 0 1 452.6689 434.124)" fill="#FFFFFF" font-family="'TimesNewRomanPSMT'" font-size="22.7091">B</text>
		<text transform="matrix(1 0 0 1 467.8154 434.124)" fill="#FFFFFF" font-family="'TimesNewRomanPSMT'" font-size="22.7091">i</text>
		<text transform="matrix(1 0 0 1 474.127 434.124)" fill="#FFFFFF" font-family="'TimesNewRomanPSMT'" font-size="22.7091">r</text>
		<text transform="matrix(1 0 0 1 481.6875 434.124)" fill="#FFFFFF" font-family="'TimesNewRomanPSMT'" font-size="22.7091">d</text>
		<text transform="matrix(1 0 0 1 493.042 434.124)" fill="#FFFFFF" font-family="'TimesNewRomanPSMT'" font-size="22.7091">s</text>
		<text transform="matrix(1 0 0 1 449.3115 459.1055)" fill="#FFFFFF" font-family="'TimesNewRomanPSMT'" font-size="22.7091">1</text>
		<text transform="matrix(1 0 0 1 459.8213 459.1055)" fill="#FFFFFF" font-family="'TimesNewRomanPSMT'" font-size="22.7091">1</text>
		<text transform="matrix(1 0 0 1 471.1777 459.1055)" fill="#FFFFFF" font-family="'TimesNewRomanPSMT'" font-size="22.7091">3</text>
		<text transform="matrix(1 0 0 1 482.5322 459.1055)" fill="#FFFFFF" font-family="'TimesNewRomanPSMT'" font-size="22.7091">0</text>
		<text transform="matrix(1 0 0 1 493.8838 459.1055)" fill="#FFFFFF" font-family="'TimesNewRomanPSMT'" font-size="22.7091">4</text>
		<path fill="#7CB45A" d="M511.889,184.012c0,2.542-0.063,5.084-0.188,7.624c-0.125,2.539-0.313,5.074-0.563,7.604
			c-0.246,2.53-0.559,5.053-0.931,7.568c-0.374,2.515-0.808,5.02-1.304,7.514c-0.495,2.494-1.053,4.974-1.672,7.44
			c-0.617,2.466-1.295,4.916-2.033,7.349c-0.737,2.433-1.535,4.847-2.392,7.241c-0.857,2.394-1.771,4.766-2.744,7.115
			c-0.973,2.349-2.003,4.673-3.09,6.971c-1.089,2.298-2.23,4.569-3.429,6.812c-1.199,2.242-2.453,4.454-3.758,6.635
			c-1.311,2.181-2.668,4.329-4.082,6.443c-1.411,2.114-2.875,4.192-4.391,6.235c-1.514,2.041-3.078,4.045-4.691,6.012
			c-1.612,1.965-3.272,3.889-4.98,5.773c-1.707,1.885-3.461,3.726-5.258,5.523c-1.798,1.797-3.639,3.551-5.522,5.258
			c-1.884,1.707-3.809,3.369-5.774,4.981c-1.967,1.613-3.97,3.177-6.012,4.692c-2.042,1.514-4.121,2.978-6.234,4.39
			c-2.114,1.412-4.261,2.773-6.442,4.079c-2.182,1.308-4.393,2.562-6.636,3.759c-2.241,1.198-4.512,2.342-6.812,3.429
			c-2.297,1.087-4.621,2.117-6.97,3.091c-2.35,0.973-4.723,1.888-7.115,2.744c-2.396,0.857-4.809,1.653-7.241,2.392
			c-2.435,0.737-4.882,1.416-7.35,2.035c-2.466,0.618-4.946,1.173-7.44,1.669c-2.493,0.496-4.998,0.932-7.513,1.304
			c-2.516,0.374-5.038,0.687-7.568,0.935s-5.063,0.436-7.604,0.561c-2.539,0.124-5.081,0.187-7.623,0.187
			c-2.543,0-5.084-0.063-7.625-0.187c-2.539-0.125-5.073-0.313-7.604-0.561c-2.528-0.248-5.053-0.561-7.567-0.935
			c-2.515-0.372-5.02-0.808-7.512-1.304c-2.496-0.496-4.975-1.051-7.441-1.669c-2.467-0.619-4.917-1.298-7.35-2.035
			c-2.434-0.738-4.848-1.534-7.241-2.392c-2.394-0.856-4.765-1.771-7.115-2.744c-2.348-0.974-4.673-2.004-6.971-3.091
			s-4.569-2.23-6.811-3.429c-2.242-1.197-4.454-2.451-6.636-3.759c-2.182-1.306-4.328-2.667-6.441-4.079s-4.193-2.876-6.235-4.39
			c-2.042-1.516-4.047-3.079-6.012-4.692c-1.966-1.613-3.89-3.274-5.774-4.981c-1.883-1.708-3.725-3.461-5.522-5.258
			c-1.797-1.797-3.551-3.638-5.258-5.523c-1.707-1.884-3.368-3.808-4.982-5.773c-1.612-1.967-3.177-3.971-4.691-6.012
			c-1.514-2.043-2.978-4.121-4.39-6.235s-2.773-4.262-4.08-6.443c-1.306-2.181-2.56-4.393-3.759-6.635
			c-1.198-2.242-2.343-4.513-3.43-6.812c-1.085-2.298-2.116-4.623-3.088-6.971c-0.974-2.349-1.888-4.721-2.745-7.115
			c-0.855-2.394-1.654-4.808-2.391-7.241c-0.739-2.433-1.417-4.883-2.034-7.349c-0.618-2.466-1.176-4.947-1.672-7.44
			c-0.496-2.494-0.929-4.999-1.304-7.514c-0.374-2.515-0.684-5.038-0.934-7.568c-0.25-2.531-0.437-5.065-0.561-7.604
			c-0.125-2.54-0.188-5.082-0.188-7.624c0-2.543,0.063-5.083,0.188-7.624c0.124-2.54,0.311-5.074,0.561-7.605
			c0.25-2.53,0.56-5.053,0.934-7.568c0.375-2.515,0.808-5.02,1.304-7.513c0.496-2.495,1.054-4.975,1.672-7.441
			c0.617-2.466,1.295-4.917,2.034-7.349c0.736-2.434,1.535-4.847,2.391-7.241c0.857-2.394,1.771-4.766,2.745-7.114
			c0.972-2.349,2.003-4.673,3.088-6.972c1.087-2.298,2.231-4.568,3.43-6.811c1.199-2.243,2.453-4.454,3.759-6.635
			c1.307-2.181,2.668-4.328,4.08-6.443c1.412-2.113,2.876-4.191,4.39-6.234c1.515-2.042,3.079-4.046,4.691-6.012
			c1.614-1.965,3.275-3.89,4.982-5.773c1.707-1.884,3.461-3.726,5.258-5.523c1.798-1.798,3.64-3.55,5.522-5.259
			c1.885-1.708,3.809-3.367,5.774-4.98c1.965-1.613,3.97-3.177,6.012-4.691s4.122-2.978,6.235-4.391
			c2.113-1.412,4.26-2.773,6.441-4.079c2.182-1.307,4.394-2.56,6.636-3.759c2.241-1.198,4.513-2.341,6.811-3.429
			c2.298-1.087,4.623-2.117,6.971-3.09c2.351-0.973,4.722-1.888,7.115-2.744c2.394-0.857,4.808-1.655,7.241-2.393
			c2.433-0.738,4.883-1.416,7.35-2.033c2.467-0.619,4.945-1.176,7.441-1.671c2.492-0.496,4.997-0.931,7.512-1.304
			c2.515-0.373,5.039-0.684,7.567-0.933c2.531-0.249,5.065-0.436,7.604-0.562c2.541-0.125,5.082-0.187,7.625-0.187
			c2.542,0,5.084,0.062,7.623,0.187c2.541,0.125,5.074,0.313,7.604,0.562c2.53,0.249,5.053,0.561,7.568,0.933
			c2.515,0.374,5.02,0.808,7.513,1.304c2.494,0.496,4.975,1.053,7.44,1.671c2.468,0.617,4.915,1.295,7.35,2.033
			c2.433,0.738,4.846,1.536,7.241,2.393c2.393,0.856,4.766,1.771,7.115,2.744c2.349,0.973,4.673,2.003,6.97,3.09
			c2.3,1.087,4.57,2.23,6.812,3.429c2.243,1.199,4.454,2.452,6.636,3.759c2.182,1.306,4.328,2.667,6.442,4.079
			c2.113,1.413,4.192,2.876,6.234,4.391s4.045,3.079,6.012,4.691c1.966,1.613,3.891,3.273,5.774,4.98
			c1.884,1.708,3.725,3.46,5.522,5.259c1.797,1.797,3.551,3.639,5.258,5.523c1.708,1.884,3.368,3.809,4.98,5.773
			c1.613,1.966,3.178,3.97,4.691,6.012c1.516,2.042,2.979,4.121,4.391,6.234c1.414,2.115,2.771,4.262,4.082,6.443
			c1.305,2.181,2.559,4.392,3.758,6.635c1.198,2.243,2.34,4.513,3.429,6.811c1.087,2.299,2.117,4.623,3.09,6.972
			c0.974,2.349,1.887,4.72,2.744,7.114c0.856,2.394,1.654,4.807,2.392,7.241c0.738,2.433,1.416,4.883,2.033,7.349
			c0.619,2.466,1.177,4.946,1.672,7.441c0.496,2.493,0.93,4.998,1.304,7.513c0.372,2.515,0.685,5.038,0.931,7.568
			c0.25,2.531,0.438,5.065,0.563,7.605C511.825,178.929,511.889,181.469,511.889,184.012z"/>
		<text transform="matrix(1 0 0 1 303.8887 190.2256)" fill="#FFFFFF" font-family="'TimesNewRomanPSMT'" font-size="31.0663">A</text>
		<text transform="matrix(1 0 0 1 326.3242 190.2256)" fill="#FFFFFF" font-family="'TimesNewRomanPSMT'" font-size="31.0663">n</text>
		<text transform="matrix(1 0 0 1 341.8555 190.2256)" fill="#FFFFFF" font-family="'TimesNewRomanPSMT'" font-size="31.0663">i</text>
		<text transform="matrix(1 0 0 1 350.4873 190.2256)" fill="#FFFFFF" font-family="'TimesNewRomanPSMT'" font-size="31.0663">m</text>
		<text transform="matrix(1 0 0 1 374.6514 190.2256)" fill="#FFFFFF" font-family="'TimesNewRomanPSMT'" font-size="31.0663">a</text>
		<text transform="matrix(1 0 0 1 388.4404 190.2256)" fill="#FFFFFF" font-family="'TimesNewRomanPSMT'" font-size="31.0663">l</text>
		<text transform="matrix(1 0 0 1 397.0723 190.2256)" fill="#FFFFFF" font-family="'TimesNewRomanPSMT'" font-size="31.0663">s</text>
		<text transform="matrix(1 0 0 1 318.2686 224.4063)" fill="#FFFFFF" font-family="'TimesNewRomanPSMT'" font-size="31.0663">2</text>
		<text transform="matrix(1 0 0 1 333.8027 224.4063)" fill="#FFFFFF" font-family="'TimesNewRomanPSMT'" font-size="31.0663">1</text>
		<text transform="matrix(1 0 0 1 348.1816 224.4063)" fill="#FFFFFF" font-family="'TimesNewRomanPSMT'" font-size="31.0663">1</text>
		<text transform="matrix(1 0 0 1 363.7158 224.4063)" fill="#FFFFFF" font-family="'TimesNewRomanPSMT'" font-size="31.0663">5</text>
		<text transform="matrix(1 0 0 1 379.249 224.4063)" fill="#FFFFFF" font-family="'TimesNewRomanPSMT'" font-size="31.0663">8</text>
	</g>
</g>
<g id="Graphic">
</g>
</svg>
