<?xml version="1.0" encoding="utf-8"?>
<!-- Generator: Adobe Illustrator 16.0.0, SVG Export Plug-In . SVG Version: 6.00 Build 0)  -->
<!DOCTYPE svg PUBLIC "-//W3C//DTD SVG 1.1//EN" "http://www.w3.org/Graphics/SVG/1.1/DTD/svg11.dtd">
<svg version="1.1" xmlns="http://www.w3.org/2000/svg" xmlns:xlink="http://www.w3.org/1999/xlink" x="0px" y="0px" width="792px"
	 height="612px" viewBox="0 0 792 612" enable-background="new 0 0 792 612" xml:space="preserve">
<g id="Background">
	<rect stroke="#000000" stroke-miterlimit="10" width="792" height="612"/>
</g>
<g id="Text">
	<rect x="-1.12" y="577" fill="none" width="794.239" height="35"/>
	<text transform="matrix(1 0 0 1 311.7246 597.6396)" fill="#E6E7E8" font-family="'LeagueSpartan-Bold'" font-size="24">Tell me more! </text>
	<g>
		<path fill="#6FAAA2" d="M420.13,285.449c0,2.995-0.075,5.989-0.22,8.98c-0.146,2.991-0.367,5.978-0.662,8.957
			c-0.293,2.981-0.661,5.954-1.098,8.915c-0.44,2.965-0.953,5.914-1.538,8.852c-0.582,2.938-1.239,5.859-1.969,8.766
			c-0.726,2.904-1.526,5.791-2.394,8.656c-0.871,2.865-1.81,5.711-2.818,8.527c-1.008,2.822-2.086,5.613-3.234,8.381
			c-1.145,2.77-2.357,5.506-3.637,8.215c-1.282,2.705-2.628,5.381-4.039,8.021c-1.414,2.641-2.889,5.246-4.43,7.816
			c-1.54,2.568-3.141,5.098-4.804,7.588c-1.664,2.49-3.39,4.938-5.173,7.344s-3.627,4.766-5.527,7.082
			c-1.899,2.314-3.855,4.582-5.865,6.803c-2.012,2.219-4.077,4.387-6.195,6.504s-4.287,4.182-6.505,6.193
			c-2.219,2.014-4.487,3.965-6.802,5.865c-2.314,1.902-4.676,3.744-7.082,5.529c-2.404,1.783-4.852,3.508-7.343,5.17
			c-2.491,1.664-5.021,3.268-7.588,4.809c-2.567,1.537-5.175,3.014-7.818,4.426c-2.639,1.412-5.315,2.758-8.022,4.039
			c-2.707,1.279-5.444,2.492-8.211,3.639c-2.768,1.148-5.561,2.225-8.381,3.234c-2.819,1.01-5.662,1.947-8.527,2.818
			c-2.867,0.867-5.752,1.666-8.658,2.395c-2.904,0.727-5.828,1.383-8.765,1.969c-2.938,0.584-5.888,1.096-8.851,1.535
			c-2.961,0.439-5.934,0.805-8.914,1.1c-2.979,0.293-5.969,0.514-8.959,0.66c-2.991,0.146-5.983,0.219-8.979,0.219
			c-2.994,0-5.99-0.072-8.981-0.219s-5.975-0.367-8.956-0.66c-2.982-0.295-5.952-0.66-8.916-1.1
			c-2.963-0.439-5.912-0.951-8.852-1.535c-2.938-0.586-5.857-1.242-8.762-1.969c-2.905-0.729-5.793-1.527-8.658-2.395
			c-2.865-0.871-5.709-1.809-8.529-2.818c-2.819-1.01-5.611-2.086-8.379-3.234c-2.77-1.146-5.506-2.359-8.213-3.639
			c-2.707-1.281-5.382-2.627-8.025-4.039c-2.638-1.412-5.245-2.889-7.813-4.426c-2.57-1.541-5.099-3.145-7.589-4.809
			c-2.49-1.662-4.936-3.387-7.344-5.17c-2.406-1.785-4.768-3.627-7.082-5.529c-2.314-1.9-4.582-3.852-6.801-5.865
			c-2.219-2.012-4.387-4.076-6.506-6.193s-4.182-4.285-6.191-6.504c-2.014-2.221-3.969-4.488-5.869-6.803
			c-1.899-2.316-3.741-4.676-5.524-7.082c-1.786-2.406-3.51-4.854-5.176-7.344c-1.663-2.49-3.263-5.02-4.806-7.588
			c-1.539-2.57-3.014-5.176-4.424-7.816c-1.415-2.641-2.76-5.316-4.039-8.021c-1.281-2.709-2.494-5.445-3.641-8.215
			c-1.148-2.768-2.224-5.559-3.234-8.381c-1.009-2.816-1.95-5.662-2.816-8.527c-0.869-2.865-1.668-5.752-2.396-8.656
			c-0.729-2.906-1.384-5.828-1.967-8.766c-0.586-2.938-1.098-5.887-1.535-8.852c-0.44-2.961-0.807-5.933-1.102-8.915
			c-0.292-2.979-0.512-5.965-0.66-8.957c-0.146-2.991-0.221-5.985-0.221-8.98c0-2.994,0.074-5.989,0.221-8.981
			c0.148-2.992,0.368-5.976,0.66-8.956c0.295-2.981,0.661-5.954,1.102-8.915c0.438-2.963,0.949-5.915,1.535-8.851
			c0.583-2.938,1.238-5.859,1.967-8.765s1.527-5.792,2.396-8.657c0.866-2.867,1.808-5.71,2.816-8.529
			c1.011-2.821,2.086-5.614,3.234-8.381c1.146-2.768,2.359-5.504,3.641-8.213c1.279-2.707,2.624-5.382,4.039-8.023
			c1.41-2.641,2.885-5.246,4.424-7.815c1.543-2.569,3.143-5.098,4.806-7.589c1.666-2.49,3.39-4.938,5.176-7.344
			c1.783-2.406,3.625-4.765,5.524-7.081c1.9-2.315,3.855-4.583,5.869-6.802c2.01-2.219,4.072-4.389,6.191-6.506
			c2.119-2.117,4.287-4.182,6.506-6.193c2.219-2.012,4.486-3.968,6.801-5.868s4.676-3.742,7.082-5.525
			c2.408-1.785,4.854-3.509,7.344-5.172c2.49-1.665,5.019-3.266,7.589-4.806c2.568-1.54,5.176-3.015,7.813-4.427
			c2.644-1.412,5.318-2.758,8.025-4.039c2.707-1.28,5.443-2.494,8.213-3.641c2.768-1.146,5.56-2.223,8.379-3.231
			c2.82-1.009,5.664-1.949,8.529-2.817c2.865-0.87,5.753-1.668,8.658-2.396c2.904-0.729,5.824-1.384,8.762-1.968
			c2.939-0.585,5.889-1.097,8.852-1.537c2.964-0.439,5.934-0.805,8.916-1.1c2.981-0.293,5.965-0.513,8.956-0.661
			c2.991-0.146,5.987-0.219,8.981-0.219c2.995,0,5.987,0.073,8.979,0.219c2.99,0.147,5.98,0.367,8.959,0.661
			c2.98,0.294,5.953,0.661,8.914,1.1c2.963,0.439,5.913,0.952,8.851,1.537c2.937,0.583,5.86,1.239,8.765,1.968
			c2.906,0.728,5.791,1.526,8.658,2.396c2.865,0.869,5.708,1.809,8.527,2.817c2.82,1.008,5.613,2.086,8.381,3.231
			c2.767,1.147,5.504,2.36,8.211,3.641c2.707,1.281,5.384,2.627,8.022,4.039c2.644,1.412,5.251,2.887,7.818,4.427
			s5.097,3.141,7.588,4.806c2.491,1.664,4.938,3.387,7.343,5.172c2.406,1.783,4.768,3.625,7.082,5.525s4.583,3.856,6.802,5.868
			c2.218,2.011,4.387,4.076,6.505,6.193c2.118,2.118,4.184,4.287,6.195,6.506c2.01,2.219,3.966,4.486,5.865,6.802
			c1.9,2.315,3.744,4.675,5.527,7.081s3.509,4.854,5.173,7.344c1.663,2.491,3.264,5.02,4.804,7.589
			c1.541,2.57,3.016,5.175,4.43,7.815c1.411,2.641,2.757,5.316,4.039,8.023c1.279,2.708,2.492,5.445,3.637,8.213
			c1.148,2.767,2.227,5.56,3.234,8.381c1.009,2.819,1.947,5.662,2.818,8.529c0.867,2.865,1.668,5.751,2.394,8.657
			c0.729,2.905,1.387,5.827,1.969,8.765c0.585,2.937,1.098,5.888,1.538,8.851c0.437,2.961,0.805,5.933,1.098,8.915
			c0.295,2.979,0.516,5.964,0.662,8.956C420.055,279.46,420.13,282.455,420.13,285.449z"/>
		<text transform="matrix(1 0 0 1 159.8926 292.7725)" fill="#FFFFFF" font-family="'TimesNewRomanPSMT'" font-size="36.5924">B</text>
		<text transform="matrix(1 0 0 1 184.2998 292.7725)" fill="#FFFFFF" font-family="'TimesNewRomanPSMT'" font-size="36.5924">u</text>
		<text transform="matrix(1 0 0 1 202.5967 292.7725)" fill="#FFFFFF" font-family="'TimesNewRomanPSMT'" font-size="36.5924">t</text>
		<text transform="matrix(1 0 0 1 212.7607 292.7725)" fill="#FFFFFF" font-family="'TimesNewRomanPSMT'" font-size="36.5924">t</text>
		<text transform="matrix(1 0 0 1 222.9297 292.7725)" fill="#FFFFFF" font-family="'TimesNewRomanPSMT'" font-size="36.5924">e</text>
		<text transform="matrix(1 0 0 1 239.1689 292.7725)" fill="#FFFFFF" font-family="'TimesNewRomanPSMT'" font-size="36.5924">r</text>
		<text transform="matrix(1 0 0 1 251.3545 292.7725)" fill="#FFFFFF" font-family="'TimesNewRomanPSMT'" font-size="36.5924">f</text>
		<text transform="matrix(1 0 0 1 263.541 292.7725)" fill="#FFFFFF" font-family="'TimesNewRomanPSMT'" font-size="36.5924">l</text>
		<text transform="matrix(1 0 0 1 273.708 292.7725)" fill="#FFFFFF" font-family="'TimesNewRomanPSMT'" font-size="36.5924">i</text>
		<text transform="matrix(1 0 0 1 283.875 292.7725)" fill="#FFFFFF" font-family="'TimesNewRomanPSMT'" font-size="36.5924">e</text>
		<text transform="matrix(1 0 0 1 300.1162 292.7725)" fill="#FFFFFF" font-family="'TimesNewRomanPSMT'" font-size="36.5924">s</text>
		<text transform="matrix(1 0 0 1 209.6797 333.0332)" fill="#FFFFFF" font-family="'TimesNewRomanPSMT'" font-size="36.5924">8</text>
		<text transform="matrix(1 0 0 1 227.9756 333.0332)" fill="#FFFFFF" font-family="'TimesNewRomanPSMT'" font-size="36.5924">5</text>
		<text transform="matrix(1 0 0 1 246.2705 333.0332)" fill="#FFFFFF" font-family="'TimesNewRomanPSMT'" font-size="36.5924">7</text>
		<path fill="#D4A44F" d="M737.885,285.449c0,2.586-0.063,5.172-0.189,7.755c-0.125,2.583-0.317,5.16-0.568,7.733
			c-0.254,2.574-0.571,5.141-0.95,7.697c-0.382,2.561-0.823,5.107-1.328,7.645c-0.503,2.537-1.069,5.061-1.698,7.568
			c-0.627,2.508-1.318,5-2.069,7.473c-0.751,2.477-1.562,4.934-2.432,7.367c-0.872,2.436-1.802,4.85-2.792,7.236
			c-0.992,2.389-2.037,4.752-3.144,7.09c-1.104,2.34-2.268,4.648-3.487,6.928c-1.221,2.283-2.494,4.531-3.824,6.75
			c-1.328,2.217-2.711,4.402-4.148,6.553c-1.437,2.15-2.926,4.264-4.467,6.342c-1.541,2.076-3.131,4.115-4.77,6.113
			c-1.644,2-3.332,3.959-5.068,5.873c-1.736,1.916-3.518,3.789-5.346,5.619c-1.828,1.826-3.701,3.611-5.621,5.348
			c-1.914,1.738-3.872,3.424-5.873,5.066c-1.997,1.639-4.035,3.23-6.114,4.773c-2.074,1.539-4.19,3.027-6.34,4.465
			c-2.151,1.438-4.335,2.82-6.552,4.15c-2.219,1.328-4.469,2.602-6.75,3.82c-2.279,1.221-4.592,2.383-6.929,3.49
			c-2.336,1.105-4.702,2.152-7.091,3.143c-2.389,0.988-4.803,1.92-7.236,2.789c-2.434,0.871-4.888,1.684-7.365,2.436
			c-2.475,0.75-4.967,1.439-7.475,2.068c-2.508,0.627-5.031,1.193-7.568,1.697c-2.537,0.506-5.084,0.949-7.643,1.328
			c-2.557,0.379-5.123,0.693-7.698,0.949c-2.573,0.254-5.149,0.445-7.733,0.57c-2.584,0.127-5.17,0.189-7.753,0.189
			c-2.588,0-5.173-0.063-7.756-0.189c-2.583-0.125-5.159-0.316-7.733-0.57c-2.574-0.256-5.143-0.57-7.697-0.949
			c-2.561-0.379-5.107-0.822-7.646-1.328c-2.536-0.504-5.06-1.07-7.565-1.697c-2.51-0.629-5.002-1.318-7.477-2.068
			c-2.475-0.752-4.929-1.564-7.364-2.436c-2.437-0.869-4.849-1.801-7.237-2.789c-2.39-0.99-4.754-2.037-7.089-3.143
			c-2.339-1.107-4.649-2.27-6.929-3.49c-2.283-1.219-4.532-2.492-6.75-3.82c-2.217-1.33-4.404-2.713-6.553-4.15
			c-2.15-1.438-4.266-2.926-6.342-4.465c-2.076-1.543-4.115-3.135-6.114-4.773c-1.998-1.643-3.958-3.328-5.874-5.066
			c-1.916-1.736-3.789-3.521-5.617-5.348c-1.828-1.83-3.612-3.703-5.348-5.619c-1.738-1.914-3.426-3.873-5.068-5.873
			c-1.639-1.998-3.23-4.037-4.771-6.113c-1.54-2.078-3.027-4.191-4.465-6.342c-1.439-2.15-2.821-4.336-4.15-6.553
			c-1.331-2.219-2.604-4.467-3.822-6.75c-1.22-2.279-2.384-4.588-3.486-6.928c-1.106-2.338-2.155-4.701-3.144-7.09
			c-0.99-2.387-1.922-4.801-2.792-7.236c-0.87-2.434-1.684-4.891-2.437-7.367c-0.748-2.473-1.438-4.965-2.066-7.473
			c-0.627-2.508-1.193-5.031-1.698-7.568s-0.948-5.084-1.327-7.645c-0.38-2.556-0.695-5.123-0.948-7.697
			c-0.255-2.574-0.444-5.151-0.572-7.733c-0.126-2.583-0.188-5.169-0.188-7.755s0.063-5.171,0.188-7.755
			c0.128-2.583,0.317-5.159,0.572-7.734c0.253-2.574,0.568-5.14,0.948-7.697c0.379-2.559,0.822-5.106,1.327-7.643
			s1.071-5.061,1.698-7.568c0.629-2.509,1.318-5,2.066-7.474c0.753-2.476,1.566-4.931,2.437-7.366
			c0.87-2.435,1.802-4.848,2.792-7.237c0.988-2.389,2.037-4.753,3.144-7.089c1.103-2.339,2.267-4.648,3.486-6.93
			c1.218-2.281,2.491-4.53,3.822-6.749c1.329-2.217,2.711-4.402,4.15-6.552c1.438-2.15,2.925-4.264,4.465-6.341
			c1.54-2.078,3.132-4.117,4.771-6.115c1.643-1.999,3.33-3.957,5.068-5.873c1.735-1.917,3.52-3.789,5.348-5.617
			c1.828-1.83,3.701-3.612,5.617-5.349s3.876-3.425,5.874-5.066c1.999-1.641,4.038-3.231,6.114-4.771
			c2.076-1.541,4.191-3.03,6.342-4.467c2.148-1.437,4.336-2.82,6.553-4.149c2.218-1.33,4.467-2.604,6.75-3.823
			c2.279-1.22,4.59-2.382,6.929-3.487c2.335-1.105,4.699-2.155,7.089-3.144c2.389-0.99,4.801-1.921,7.237-2.792
			c2.436-0.872,4.89-1.683,7.364-2.434c2.475-0.75,4.967-1.44,7.477-2.069c2.506-0.628,5.029-1.195,7.565-1.699
			c2.538-0.505,5.085-0.946,7.646-1.325c2.555-0.379,5.123-0.697,7.697-0.95c2.574-0.254,5.15-0.443,7.733-0.57
			c2.583-0.126,5.168-0.191,7.756-0.191c2.583,0,5.169,0.064,7.753,0.191c2.584,0.127,5.16,0.316,7.733,0.57
			c2.575,0.253,5.142,0.571,7.698,0.95c2.559,0.379,5.105,0.82,7.643,1.325c2.537,0.504,5.061,1.071,7.568,1.699
			c2.508,0.629,5,1.318,7.475,2.069c2.478,0.751,4.932,1.562,7.365,2.434c2.434,0.871,4.848,1.802,7.236,2.792
			c2.389,0.989,4.755,2.038,7.091,3.144c2.337,1.105,4.649,2.267,6.929,3.487c2.281,1.219,4.531,2.494,6.75,3.823
			c2.217,1.329,4.4,2.712,6.552,4.149c2.149,1.437,4.263,2.926,6.34,4.467c2.079,1.54,4.117,3.131,6.114,4.771
			c2.001,1.641,3.959,3.329,5.873,5.066c1.92,1.737,3.793,3.52,5.621,5.349c1.828,1.828,3.609,3.7,5.346,5.617
			c1.736,1.916,3.425,3.874,5.068,5.873c1.639,1.999,3.229,4.038,4.77,6.115c1.541,2.077,3.03,4.19,4.467,6.341
			c1.438,2.15,2.82,4.335,4.148,6.552c1.33,2.219,2.604,4.468,3.824,6.749c1.22,2.281,2.383,4.591,3.487,6.93
			c1.106,2.336,2.151,4.7,3.144,7.089c0.99,2.389,1.92,4.802,2.792,7.237c0.87,2.436,1.681,4.89,2.432,7.366
			c0.751,2.474,1.442,4.965,2.069,7.474c0.629,2.508,1.195,5.032,1.698,7.568c0.505,2.537,0.946,5.084,1.328,7.643
			c0.379,2.557,0.696,5.124,0.95,7.697c0.251,2.575,0.443,5.151,0.568,7.734C737.822,280.278,737.885,282.863,737.885,285.449z"/>
		<text transform="matrix(1 0 0 1 535.9893 291.7725)" fill="#FFFFFF" font-family="'TimesNewRomanPSMT'" font-size="31.5989">I</text>
		<text transform="matrix(1 0 0 1 546.5127 291.7725)" fill="#FFFFFF" font-family="'TimesNewRomanPSMT'" font-size="31.5989">n</text>
		<text transform="matrix(1 0 0 1 562.3125 291.7725)" fill="#FFFFFF" font-family="'TimesNewRomanPSMT'" font-size="31.5989">s</text>
		<text transform="matrix(1 0 0 1 574.6094 291.7725)" fill="#FFFFFF" font-family="'TimesNewRomanPSMT'" font-size="31.5989">e</text>
		<text transform="matrix(1 0 0 1 588.6348 291.7725)" fill="#FFFFFF" font-family="'TimesNewRomanPSMT'" font-size="31.5989">c</text>
		<text transform="matrix(1 0 0 1 602.6582 291.7725)" fill="#FFFFFF" font-family="'TimesNewRomanPSMT'" font-size="31.5989">t</text>
		<text transform="matrix(1 0 0 1 611.4375 291.7725)" fill="#FFFFFF" font-family="'TimesNewRomanPSMT'" font-size="31.5989">s</text>
		<text transform="matrix(1 0 0 1 556.1631 326.5361)" fill="#FFFFFF" font-family="'TimesNewRomanPSMT'" font-size="31.5989">6</text>
		<text transform="matrix(1 0 0 1 571.9629 326.5361)" fill="#FFFFFF" font-family="'TimesNewRomanPSMT'" font-size="31.5989">3</text>
		<text transform="matrix(1 0 0 1 587.7607 326.5361)" fill="#FFFFFF" font-family="'TimesNewRomanPSMT'" font-size="31.5989">9</text>
		<path fill="#CB5A61" d="M489.443,447.242c0,2.088-0.103,4.17-0.307,6.248c-0.205,2.076-0.512,4.143-0.918,6.189
			c-0.408,2.047-0.915,4.07-1.521,6.068s-1.309,3.961-2.106,5.891c-0.8,1.928-1.692,3.813-2.675,5.654
			c-0.984,1.844-2.057,3.631-3.217,5.367c-1.162,1.736-2.402,3.412-3.727,5.025c-1.326,1.613-2.727,3.158-4.201,4.633
			c-1.477,1.479-3.021,2.879-4.635,4.203c-1.617,1.324-3.291,2.568-5.026,3.729c-1.735,1.158-3.526,2.232-5.365,3.217
			c-1.845,0.982-3.729,1.875-5.657,2.674c-1.929,0.799-3.893,1.502-5.891,2.107c-2,0.605-4.022,1.113-6.068,1.521
			c-2.049,0.406-4.111,0.711-6.188,0.916c-2.079,0.205-4.16,0.309-6.25,0.309s-4.174-0.104-6.248-0.309
			c-2.08-0.205-4.143-0.51-6.189-0.916c-2.048-0.408-4.07-0.916-6.068-1.521s-3.963-1.309-5.889-2.107
			c-1.933-0.799-3.816-1.691-5.659-2.674c-1.841-0.984-3.63-2.059-5.368-3.217c-1.732-1.16-3.408-2.404-5.023-3.729
			c-1.613-1.324-3.158-2.725-4.635-4.203c-1.477-1.475-2.875-3.02-4.201-4.633c-1.323-1.613-2.566-3.289-3.726-5.025
			c-1.161-1.736-2.233-3.523-3.218-5.367c-0.984-1.842-1.876-3.727-2.674-5.654c-0.799-1.93-1.504-3.893-2.109-5.891
			c-0.604-1.998-1.111-4.021-1.521-6.068c-0.402-2.047-0.711-4.113-0.916-6.189c-0.205-2.078-0.307-4.16-0.307-6.248
			s0.102-4.172,0.307-6.25s0.514-4.141,0.916-6.189c0.41-2.047,0.917-4.068,1.521-6.066c0.605-2,1.311-3.963,2.109-5.893
			c0.798-1.93,1.689-3.814,2.674-5.656c0.984-1.84,2.057-3.629,3.218-5.365c1.159-1.734,2.402-3.41,3.726-5.023
			c1.326-1.615,2.725-3.16,4.201-4.637c1.477-1.479,3.021-2.877,4.635-4.201c1.615-1.326,3.291-2.568,5.023-3.729
			c1.738-1.158,3.527-2.23,5.368-3.215c1.843-0.984,3.727-1.877,5.659-2.676c1.926-0.799,3.891-1.502,5.889-2.107
			s4.021-1.113,6.068-1.52c2.047-0.408,4.109-0.713,6.189-0.918c2.074-0.207,4.158-0.307,6.248-0.307s4.171,0.1,6.25,0.307
			c2.076,0.205,4.139,0.51,6.188,0.918c2.046,0.406,4.068,0.914,6.068,1.52c1.998,0.605,3.962,1.309,5.891,2.107
			c1.928,0.799,3.813,1.691,5.657,2.676c1.839,0.984,3.63,2.057,5.365,3.215c1.735,1.16,3.409,2.402,5.026,3.729
			c1.613,1.324,3.158,2.723,4.635,4.201c1.475,1.477,2.875,3.021,4.201,4.637c1.324,1.613,2.564,3.289,3.727,5.023
			c1.16,1.736,2.232,3.525,3.217,5.365c0.982,1.842,1.875,3.727,2.675,5.656c0.798,1.93,1.5,3.893,2.106,5.893
			c0.606,1.998,1.113,4.02,1.521,6.066c0.406,2.049,0.713,4.111,0.918,6.189C489.341,443.07,489.443,445.154,489.443,447.242z"/>
		<text transform="matrix(1 0 0 1 395.6055 449.792)" fill="#FFFFFF" font-family="'TimesNewRomanPSMT'" font-size="12.7472">D</text>
		<text transform="matrix(1 0 0 1 404.8096 449.792)" fill="#FFFFFF" font-family="'TimesNewRomanPSMT'" font-size="12.7472">r</text>
		<text transform="matrix(1 0 0 1 409.0537 449.792)" fill="#FFFFFF" font-family="'TimesNewRomanPSMT'" font-size="12.7472">a</text>
		<text transform="matrix(1 0 0 1 414.7109 449.792)" fill="#FFFFFF" font-family="'TimesNewRomanPSMT'" font-size="12.7472">g</text>
		<text transform="matrix(1 0 0 1 421.0859 449.792)" fill="#FFFFFF" font-family="'TimesNewRomanPSMT'" font-size="12.7472">o</text>
		<text transform="matrix(1 0 0 1 427.46 449.792)" fill="#FFFFFF" font-family="'TimesNewRomanPSMT'" font-size="12.7472">n</text>
		<text transform="matrix(1 0 0 1 433.832 449.792)" fill="#FFFFFF" font-family="'TimesNewRomanPSMT'" font-size="12.7472">f</text>
		<text transform="matrix(1 0 0 1 438.0781 449.792)" fill="#FFFFFF" font-family="'TimesNewRomanPSMT'" font-size="12.7472">l</text>
		<text transform="matrix(1 0 0 1 441.6191 449.792)" fill="#FFFFFF" font-family="'TimesNewRomanPSMT'" font-size="12.7472">i</text>
		<text transform="matrix(1 0 0 1 445.1621 449.792)" fill="#FFFFFF" font-family="'TimesNewRomanPSMT'" font-size="12.7472">e</text>
		<text transform="matrix(1 0 0 1 450.8193 449.792)" fill="#FFFFFF" font-family="'TimesNewRomanPSMT'" font-size="12.7472">s</text>
		<text transform="matrix(1 0 0 1 416.1328 463.8174)" fill="#FFFFFF" font-family="'TimesNewRomanPSMT'" font-size="12.7472">1</text>
		<text transform="matrix(1 0 0 1 422.5049 463.8174)" fill="#FFFFFF" font-family="'TimesNewRomanPSMT'" font-size="12.7472">0</text>
		<text transform="matrix(1 0 0 1 428.8799 463.8174)" fill="#FFFFFF" font-family="'TimesNewRomanPSMT'" font-size="12.7472">4</text>
		<path fill="#5B8CC1" d="M481.779,134.208c0,1.854-0.092,3.703-0.272,5.548c-0.181,1.846-0.454,3.677-0.815,5.497
			c-0.361,1.818-0.812,3.614-1.351,5.388c-0.538,1.775-1.161,3.519-1.872,5.231c-0.707,1.713-1.5,3.387-2.372,5.022
			c-0.876,1.635-1.825,3.223-2.858,4.766c-1.029,1.541-2.133,3.028-3.309,4.461c-1.175,1.433-2.418,2.805-3.73,4.116
			c-1.314,1.312-2.684,2.555-4.117,3.731c-1.434,1.176-2.921,2.28-4.461,3.31c-1.543,1.029-3.132,1.981-4.764,2.855
			c-1.638,0.874-3.311,1.666-5.025,2.375c-1.71,0.709-3.456,1.333-5.226,1.872c-1.776,0.538-3.575,0.989-5.392,1.35
			c-1.82,0.362-3.65,0.633-5.496,0.815c-1.844,0.182-3.692,0.273-5.549,0.273c-1.854,0-3.705-0.091-5.549-0.273
			c-1.844-0.183-3.676-0.454-5.495-0.815c-1.817-0.361-3.614-0.812-5.388-1.35c-1.774-0.538-3.517-1.163-5.229-1.872
			c-1.715-0.709-3.39-1.502-5.024-2.375c-1.636-0.875-3.226-1.826-4.767-2.855c-1.54-1.03-3.025-2.134-4.461-3.31
			c-1.432-1.176-2.805-2.419-4.117-3.731c-1.31-1.311-2.552-2.683-3.729-4.116c-1.177-1.433-2.279-2.921-3.308-4.461
			c-1.031-1.542-1.983-3.13-2.857-4.766s-1.666-3.309-2.375-5.022c-0.709-1.712-1.332-3.456-1.871-5.231
			c-0.539-1.773-0.99-3.57-1.35-5.388c-0.362-1.819-0.633-3.651-0.814-5.497c-0.183-1.845-0.275-3.694-0.275-5.548
			c0-1.854,0.093-3.704,0.275-5.549c0.182-1.845,0.452-3.677,0.814-5.494c0.359-1.819,0.811-3.616,1.35-5.389
			c0.539-1.774,1.162-3.518,1.871-5.23c0.709-1.714,1.501-3.388,2.375-5.022s1.826-3.225,2.857-4.765
			c1.028-1.542,2.131-3.03,3.308-4.462c1.178-1.434,2.42-2.806,3.729-4.118c1.313-1.31,2.686-2.554,4.117-3.73
			c1.436-1.176,2.921-2.279,4.461-3.31c1.541-1.03,3.131-1.981,4.767-2.856c1.635-0.874,3.31-1.665,5.024-2.375
			c1.712-0.709,3.454-1.333,5.229-1.872c1.773-0.538,3.57-0.987,5.388-1.349c1.819-0.361,3.651-0.634,5.495-0.815
			c1.844-0.182,3.695-0.272,5.549-0.272c1.856,0,3.705,0.09,5.549,0.272c1.846,0.182,3.676,0.454,5.496,0.815
			c1.816,0.362,3.615,0.811,5.392,1.349c1.77,0.539,3.516,1.163,5.226,1.872c1.715,0.71,3.388,1.501,5.025,2.375
			c1.632,0.875,3.221,1.826,4.764,2.856c1.54,1.031,3.027,2.134,4.461,3.31c1.434,1.176,2.803,2.42,4.117,3.73
			c1.313,1.312,2.556,2.684,3.73,4.118c1.176,1.432,2.279,2.92,3.309,4.462c1.033,1.54,1.982,3.13,2.858,4.765
			c0.872,1.635,1.665,3.308,2.372,5.022c0.711,1.712,1.334,3.456,1.872,5.23c0.539,1.773,0.989,3.57,1.351,5.389
			c0.361,1.817,0.635,3.649,0.815,5.494C481.688,130.505,481.779,132.354,481.779,134.208z"/>
		<text transform="matrix(1 0 0 1 411.3389 136.4746)" fill="#FFFFFF" font-family="'TimesNewRomanPSMT'" font-size="11.3156">S</text>
		<text transform="matrix(1 0 0 1 417.6328 136.4746)" fill="#FFFFFF" font-family="'TimesNewRomanPSMT'" font-size="11.3156">n</text>
		<text transform="matrix(1 0 0 1 423.2891 136.4746)" fill="#FFFFFF" font-family="'TimesNewRomanPSMT'" font-size="11.3156">a</text>
		<text transform="matrix(1 0 0 1 428.3115 136.4746)" fill="#FFFFFF" font-family="'TimesNewRomanPSMT'" font-size="11.3156">i</text>
		<text transform="matrix(1 0 0 1 431.457 136.4746)" fill="#FFFFFF" font-family="'TimesNewRomanPSMT'" font-size="11.3156">l</text>
		<text transform="matrix(1 0 0 1 434.5986 136.4746)" fill="#FFFFFF" font-family="'TimesNewRomanPSMT'" font-size="11.3156">s</text>
		<text transform="matrix(1 0 0 1 419.5137 148.9297)" fill="#FFFFFF" font-family="'TimesNewRomanPSMT'" font-size="11.3156">8</text>
		<text transform="matrix(1 0 0 1 425.1719 148.9297)" fill="#FFFFFF" font-family="'TimesNewRomanPSMT'" font-size="11.3156">2</text>
		<path fill="#7C8686" d="M384.249,76.175c0,1.545-0.073,3.088-0.226,4.626s-0.378,3.065-0.68,4.582
			c-0.303,1.516-0.678,3.013-1.127,4.493c-0.449,1.479-0.967,2.933-1.561,4.36c-0.591,1.429-1.25,2.824-1.979,4.188
			c-0.729,1.363-1.522,2.687-2.381,3.973c-0.86,1.285-1.779,2.525-2.761,3.72c-0.979,1.194-2.014,2.339-3.11,3.431
			c-1.091,1.093-2.235,2.13-3.431,3.111c-1.196,0.981-2.434,1.901-3.722,2.759c-1.285,0.859-2.608,1.653-3.972,2.382
			c-1.362,0.729-2.761,1.389-4.187,1.98c-1.428,0.591-2.884,1.111-4.361,1.56c-1.479,0.448-2.976,0.824-4.491,1.125
			c-1.518,0.302-3.045,0.529-4.582,0.68c-1.539,0.151-3.08,0.227-4.624,0.227c-1.55,0-3.089-0.076-4.627-0.227
			c-1.541-0.151-3.067-0.378-4.581-0.68c-1.52-0.301-3.017-0.677-4.496-1.125c-1.48-0.449-2.932-0.969-4.36-1.56
			c-1.429-0.592-2.826-1.252-4.187-1.98c-1.364-0.729-2.689-1.523-3.974-2.382c-1.284-0.858-2.524-1.778-3.72-2.759
			c-1.196-0.98-2.337-2.018-3.433-3.111c-1.091-1.092-2.128-2.237-3.11-3.431c-0.98-1.195-1.9-2.435-2.76-3.72
			c-0.858-1.286-1.652-2.609-2.38-3.973c-0.729-1.364-1.39-2.759-1.981-4.188c-0.592-1.427-1.111-2.881-1.559-4.36
			c-0.449-1.48-0.824-2.978-1.125-4.493c-0.303-1.516-0.529-3.043-0.682-4.582c-0.151-1.539-0.226-3.081-0.226-4.626
			s0.074-3.088,0.226-4.626c0.152-1.538,0.379-3.066,0.682-4.582c0.301-1.516,0.676-3.013,1.125-4.493
			c0.447-1.48,0.967-2.934,1.559-4.362c0.592-1.428,1.252-2.823,1.981-4.187c0.728-1.362,1.521-2.687,2.38-3.973
			c0.859-1.284,1.779-2.525,2.76-3.72c0.982-1.195,2.02-2.339,3.11-3.432c1.096-1.093,2.236-2.129,3.433-3.11
			c1.195-0.981,2.436-1.901,3.72-2.758c1.284-0.859,2.609-1.653,3.974-2.383c1.36-0.728,2.758-1.388,4.187-1.98
			c1.429-0.591,2.88-1.111,4.36-1.56c1.479-0.448,2.977-0.824,4.496-1.125c1.514-0.301,3.04-0.528,4.581-0.679
			c1.538-0.151,3.077-0.228,4.627-0.228c1.544,0,3.085,0.076,4.624,0.228c1.537,0.151,3.064,0.378,4.582,0.679
			c1.516,0.302,3.012,0.677,4.491,1.125c1.478,0.449,2.934,0.969,4.361,1.56c1.426,0.592,2.824,1.252,4.187,1.98
			c1.363,0.729,2.687,1.524,3.972,2.383c1.288,0.857,2.525,1.777,3.722,2.758c1.195,0.98,2.34,2.017,3.431,3.11
			c1.097,1.093,2.132,2.237,3.11,3.432c0.981,1.195,1.9,2.436,2.761,3.72c0.858,1.286,1.651,2.61,2.381,3.973
			c0.729,1.364,1.389,2.759,1.979,4.187c0.594,1.428,1.111,2.882,1.561,4.362c0.449,1.479,0.824,2.977,1.127,4.493
			c0.302,1.516,0.527,3.043,0.68,4.582S384.249,74.629,384.249,76.175z"/>
		<text transform="matrix(1 0 0 1 318.1797 78.0645)" fill="#FFFFFF" font-family="'TimesNewRomanPSMT'" font-size="9.4373">S</text>
		<text transform="matrix(1 0 0 1 323.4268 78.0645)" fill="#FFFFFF" font-family="'TimesNewRomanPSMT'" font-size="9.4373">c</text>
		<text transform="matrix(1 0 0 1 327.6162 78.0645)" fill="#FFFFFF" font-family="'TimesNewRomanPSMT'" font-size="9.4373">o</text>
		<text transform="matrix(1 0 0 1 332.335 78.0645)" fill="#FFFFFF" font-family="'TimesNewRomanPSMT'" font-size="9.4373">r</text>
		<text transform="matrix(1 0 0 1 335.4766 78.0645)" fill="#FFFFFF" font-family="'TimesNewRomanPSMT'" font-size="9.4373">p</text>
		<text transform="matrix(1 0 0 1 340.1973 78.0645)" fill="#FFFFFF" font-family="'TimesNewRomanPSMT'" font-size="9.4373">i</text>
		<text transform="matrix(1 0 0 1 342.8203 78.0645)" fill="#FFFFFF" font-family="'TimesNewRomanPSMT'" font-size="9.4373">o</text>
		<text transform="matrix(1 0 0 1 347.5371 78.0645)" fill="#FFFFFF" font-family="'TimesNewRomanPSMT'" font-size="9.4373">n</text>
		<text transform="matrix(1 0 0 1 352.2559 78.0645)" fill="#FFFFFF" font-family="'TimesNewRomanPSMT'" font-size="9.4373">s</text>
		<text transform="matrix(1 0 0 1 332.335 88.4473)" fill="#FFFFFF" font-family="'TimesNewRomanPSMT'" font-size="9.4373">5</text>
		<text transform="matrix(1 0 0 1 337.0557 88.4473)" fill="#FFFFFF" font-family="'TimesNewRomanPSMT'" font-size="9.4373">7</text>
		<path fill="#7CB45A" d="M372.949,499.131c0,1.531-0.074,3.063-0.224,4.588c-0.149,1.521-0.376,3.037-0.675,4.541
			c-0.299,1.502-0.67,2.986-1.115,4.453s-0.961,2.906-1.549,4.324c-0.586,1.412-1.239,2.797-1.961,4.148
			c-0.723,1.352-1.51,2.664-2.359,3.936c-0.852,1.275-1.764,2.506-2.736,3.689c-0.971,1.184-1.999,2.316-3.082,3.4
			c-1.082,1.084-2.217,2.111-3.402,3.084c-1.182,0.971-2.414,1.883-3.688,2.734c-1.275,0.852-2.586,1.637-3.938,2.359
			c-1.35,0.725-2.734,1.377-4.147,1.965c-1.416,0.586-2.857,1.1-4.323,1.545s-2.951,0.816-4.454,1.115
			c-1.504,0.299-3.016,0.523-4.541,0.674c-1.524,0.15-3.055,0.227-4.587,0.227s-3.06-0.076-4.583-0.227
			c-1.524-0.15-3.04-0.375-4.545-0.674c-1.5-0.299-2.982-0.67-4.451-1.115c-1.465-0.445-2.906-0.959-4.322-1.545
			c-1.416-0.588-2.799-1.24-4.15-1.965c-1.352-0.723-2.664-1.508-3.937-2.359c-1.274-0.852-2.504-1.764-3.688-2.734
			c-1.183-0.973-2.317-2-3.401-3.084c-1.086-1.084-2.113-2.217-3.084-3.4c-0.973-1.184-1.885-2.414-2.732-3.689
			c-0.854-1.271-1.641-2.584-2.361-3.936c-0.725-1.352-1.377-2.736-1.965-4.148c-0.585-1.418-1.102-2.857-1.543-4.324
			c-0.447-1.467-0.818-2.951-1.119-4.453c-0.299-1.504-0.523-3.02-0.672-4.541c-0.152-1.525-0.226-3.057-0.226-4.588
			s0.073-3.059,0.226-4.584c0.148-1.525,0.373-3.037,0.672-4.541c0.301-1.502,0.672-2.988,1.119-4.453
			c0.441-1.467,0.958-2.906,1.543-4.322c0.588-1.416,1.24-2.801,1.965-4.15c0.721-1.352,1.508-2.664,2.361-3.938
			c0.848-1.273,1.76-2.504,2.732-3.688c0.971-1.186,1.998-2.318,3.084-3.402c1.084-1.082,2.219-2.113,3.401-3.082
			c1.184-0.973,2.413-1.883,3.688-2.736c1.272-0.852,2.585-1.639,3.937-2.361c1.352-0.719,2.734-1.375,4.15-1.959
			c1.416-0.588,2.857-1.104,4.322-1.549c1.469-0.443,2.951-0.818,4.451-1.115c1.505-0.299,3.021-0.523,4.545-0.674
			c1.523-0.15,3.051-0.227,4.583-0.227s3.063,0.076,4.587,0.227c1.525,0.15,3.037,0.375,4.541,0.674
			c1.503,0.297,2.988,0.672,4.454,1.115c1.466,0.445,2.907,0.961,4.323,1.549c1.413,0.584,2.798,1.24,4.147,1.959
			c1.353,0.723,2.663,1.51,3.938,2.361c1.273,0.854,2.506,1.764,3.688,2.736c1.186,0.969,2.32,2,3.402,3.082
			c1.083,1.084,2.111,2.217,3.082,3.402c0.973,1.184,1.885,2.414,2.736,3.688c0.85,1.273,1.637,2.586,2.359,3.938
			c0.722,1.35,1.375,2.734,1.961,4.15c0.588,1.416,1.104,2.855,1.549,4.322c0.445,1.465,0.816,2.951,1.115,4.453
			c0.299,1.504,0.525,3.016,0.675,4.541S372.949,497.6,372.949,499.131z"/>
		<text transform="matrix(1 0 0 1 317.0869 501.0049)" fill="#FFFFFF" font-family="'TimesNewRomanPSMT'" font-size="9.3457">B</text>
		<text transform="matrix(1 0 0 1 323.3184 501.0049)" fill="#FFFFFF" font-family="'TimesNewRomanPSMT'" font-size="9.3457">e</text>
		<text transform="matrix(1 0 0 1 327.4668 501.0049)" fill="#FFFFFF" font-family="'TimesNewRomanPSMT'" font-size="9.3457">e</text>
		<text transform="matrix(1 0 0 1 331.6143 501.0049)" fill="#FFFFFF" font-family="'TimesNewRomanPSMT'" font-size="9.3457">s</text>
		<text transform="matrix(1 0 0 1 321.4971 511.2959)" fill="#FFFFFF" font-family="'TimesNewRomanPSMT'" font-size="9.3457">5</text>
		<text transform="matrix(1 0 0 1 326.168 511.2959)" fill="#FFFFFF" font-family="'TimesNewRomanPSMT'" font-size="9.3457">6</text>
		<path fill="#B0688B" d="M535.268,112.823c0,0.892-0.045,1.782-0.133,2.67s-0.217,1.771-0.391,2.646
			c-0.174,0.875-0.391,1.74-0.65,2.593c-0.261,0.854-0.561,1.693-0.903,2.518c-0.339,0.824-0.72,1.631-1.139,2.417
			c-0.423,0.787-0.882,1.551-1.376,2.293c-0.498,0.742-1.027,1.459-1.594,2.149c-0.566,0.689-1.166,1.351-1.794,1.981
			c-0.634,0.631-1.294,1.229-1.983,1.795c-0.69,0.566-1.404,1.097-2.148,1.593c-0.74,0.496-1.508,0.954-2.293,1.375
			c-0.787,0.42-1.596,0.802-2.417,1.143c-0.825,0.341-1.663,0.642-2.519,0.9c-0.854,0.259-1.719,0.476-2.592,0.651
			c-0.879,0.173-1.758,0.305-2.648,0.392c-0.887,0.087-1.778,0.131-2.67,0.131c-0.893,0-1.781-0.044-2.67-0.131
			c-0.889-0.087-1.771-0.218-2.646-0.392c-0.875-0.175-1.74-0.392-2.594-0.651c-0.852-0.258-1.691-0.559-2.518-0.9
			c-0.824-0.341-1.629-0.723-2.418-1.143c-0.787-0.42-1.554-0.879-2.293-1.375c-0.74-0.496-1.457-1.027-2.148-1.593
			c-0.689-0.567-1.348-1.165-1.979-1.795s-1.23-1.292-1.796-1.981c-0.568-0.69-1.098-1.407-1.592-2.149
			c-0.496-0.742-0.955-1.506-1.377-2.293c-0.421-0.787-0.805-1.593-1.143-2.417c-0.343-0.825-0.643-1.664-0.902-2.518
			c-0.258-0.854-0.477-1.718-0.648-2.593c-0.176-0.875-0.305-1.757-0.395-2.646c-0.086-0.888-0.129-1.779-0.129-2.67
			c0-0.894,0.043-1.784,0.129-2.671c0.09-0.888,0.219-1.77,0.395-2.646c0.172-0.875,0.391-1.739,0.648-2.594
			c0.26-0.854,0.56-1.692,0.902-2.518c0.338-0.825,0.722-1.631,1.143-2.418c0.422-0.787,0.881-1.551,1.377-2.293
			c0.494-0.742,1.023-1.458,1.592-2.148c0.565-0.69,1.164-1.35,1.796-1.98c0.632-0.631,1.29-1.23,1.979-1.796
			c0.691-0.566,1.408-1.097,2.148-1.593c0.739-0.497,1.506-0.954,2.293-1.375c0.789-0.42,1.594-0.801,2.418-1.143
			c0.826-0.342,1.666-0.642,2.518-0.901c0.854-0.259,1.719-0.475,2.594-0.649c0.876-0.174,1.758-0.305,2.646-0.393
			c0.889-0.087,1.777-0.131,2.67-0.131c0.892,0,1.783,0.044,2.67,0.131c0.891,0.088,1.77,0.219,2.648,0.393
			c0.873,0.174,1.737,0.39,2.592,0.649c0.855,0.259,1.693,0.559,2.519,0.901c0.821,0.342,1.63,0.723,2.417,1.143
			c0.785,0.422,1.553,0.879,2.293,1.375c0.744,0.496,1.458,1.026,2.148,1.593c0.689,0.566,1.35,1.165,1.983,1.796
			c0.628,0.63,1.228,1.291,1.794,1.98c0.566,0.691,1.096,1.406,1.594,2.148c0.494,0.742,0.953,1.506,1.376,2.293
			c0.419,0.787,0.8,1.593,1.139,2.418c0.343,0.825,0.643,1.663,0.903,2.518c0.26,0.854,0.477,1.719,0.65,2.594
			c0.174,0.875,0.303,1.757,0.391,2.646C535.223,111.039,535.268,111.929,535.268,112.823z"/>
		<text transform="matrix(1 0 0 1 499.8594 113.9141)" fill="#FFFFFF" font-family="'TimesNewRomanPSMT'" font-size="5.4402">Spiders</text>
		<text transform="matrix(1 0 0 1 505.2988 119.9092)" fill="#FFFFFF" font-family="'TimesNewRomanPSMT'" font-size="5.4402">19</text>
	</g>
</g>
<g id="Graphic">
</g>
</svg>
