<?xml version="1.0" encoding="utf-8"?>
<!-- Generator: Adobe Illustrator 16.0.0, SVG Export Plug-In . SVG Version: 6.00 Build 0)  -->
<!DOCTYPE svg PUBLIC "-//W3C//DTD SVG 1.1//EN" "http://www.w3.org/Graphics/SVG/1.1/DTD/svg11.dtd">
<svg version="1.1" xmlns="http://www.w3.org/2000/svg" xmlns:xlink="http://www.w3.org/1999/xlink" x="0px" y="0px" width="792px"
	 height="612px" viewBox="0 0 792 612" enable-background="new 0 0 792 612" xml:space="preserve">
<g id="Background">
	<rect stroke="#000000" stroke-miterlimit="10" width="792" height="612"/>
</g>
<g id="Text">
</g>
<g id="Graphic">
	<g>
		<path fill-rule="evenodd" clip-rule="evenodd" fill="#B0688A" d="M194.149,194.996c5.896-1.022,12.048-3.51,17.594-2.536
			c3.495,0.613,6.313,6.24,8.964,9.956c1.176,1.646,1.189,4.125,1.729,6.229c0.832,0.078,1.666,0.158,2.496,0.237
			c1.198-4.317,2.395-8.634,3.711-13.377c1.277,0.14,3.83,0.42,6.84,0.751c-0.539-6.505-1.014-12.229-1.488-17.955
			c2.093,9.877,5.5,18.701,13.49,26.448c2.766-12.189,0.734-15.813-9.523-17.891c1.381-3.792,2.723-7.482,3.965-10.897
			c2.125,1.838,4.121,3.565,7.379,6.383c0.386-3.826,0.591-5.845,0.719-7.128c3.203,0.146,6.063,0.273,8.922,0.403
			c0.025-0.502,0.051-1.003,0.076-1.505c-3.146-1.998-6.293-3.998-10.094-6.413c-0.729,0.59-2.438,1.972-5.105,4.133
			c-2.918-3.694-5.654-7.162-9.592-12.148c7.365,1.261,10.426,0.51,10.078-6.22c-0.146-2.817,4.031-5.856,7.188-10.053
			c-10.686,0-20.173,0-29.258,0c1.085-5.067,2.18-10.192,3.277-15.319c0.77,0.131,1.539,0.261,2.309,0.391
			c0.771,2.66,1.547,5.319,2.263,7.79c5.456-0.773,10.74-1.521,16.519-2.338c-0.156-0.751-0.439-2.096-0.725-3.442l-0.234,0.17
			c1.736-0.901,4.733-1.52,5.006-2.747c1.916-8.612,8.918-11.779,15.81-13.919c2.417-0.751,6.327,3.314,9.787,5.317
			c2.273,0,5.354,0,9.014,0c-0.703-1.756-1.673-4.179-2.788-6.974c2.418-1.367,4.844-2.737,7.541-4.261
			c-1.131-1.645-1.979-2.875-3.496-5.082c4.551,0.768,10.631-2.189,7.047,6.143c-0.307,0.712,1.427,3.224,2.521,3.461
			c5.959,1.293,4.434,5.537,4.086,9.353c-13.17-2.64-6.246,9.108-9.418,13.134c-4.738,0.327-9.227,0.635-13.711,0.944
			c-0.032,0.669-0.064,1.338-0.096,2.005c3.324,0.534,6.648,1.068,8.206,1.319c-3.121,4.834-6.351,9.845-9.583,14.853
			c0.523,0.292,1.047,0.585,1.568,0.877c6.617-6.326,13.234-12.652,17.99-17.201c1.984-6.469,3.451-11.25,4.916-16.032
			c2.703,3.625,5.408,7.249,8.615,11.549c3.033-4.111,5.969-6.282,4.094-12.078c-2.465-7.619,4.206-10.722,15.188-7.546
			c-0.209-1.628-0.422-3.28-0.635-4.932l-0.234,0.229c6.663,1.377,13.348,2.667,19.982,4.17c3.072,0.696,6.051,1.814,9.986,3.022
			c1.303-0.43,4.193-1.382,7.086-2.335c0.193,4.747,0.387,9.493,0.53,13.023c6.349,0.447,10.593,0.194,14.552,1.14
			c7.625,1.821,13.486-1.979,14.35-9.737c-6.689-1.525-13.42-3.062-20.148-4.596c0.139-0.925,0.278-1.848,0.415-2.771
			c6.925-0.082,11.286-11.949,20.029-3.66l-0.354-0.334c0.041,6.549,3.143,11.858,9.156,13.407
			c4.203,1.083,9.184-0.856,15.449-1.654c5.895,5.719,7.984,5.819,10.557-1.211l-0.275,0.309c3.658-0.595,7.316-1.193,11.959-1.95
			c-1.297-3.248-3.09-7.739-5.033-12.612c4.234-4.236,9.206-9.205,14.176-14.174c0.648,0.389,1.293,0.778,1.941,1.167
			c-0.659-4.262-1.318-8.526-2.301-14.895c3.399,2.834,6.209,5.176,8.215,6.848c2.32,6.297-8.809,10.278-0.777,16.225l-0.148-0.17
			c-3.4,3-6.801,6-10.007,8.827c3.063,2.937,4.81,4.614,6.558,6.291c0.178,2.288,0.352,4.578,0.529,6.868
			c1.824,2.901,3.223,6.243,5.607,8.566c1.896,1.85,5.005,2.459,5.999,2.908c3.903-6.777,6.062-12.903,10.201-17.047
			c4.247-4.25,9.329-1.055,10.082,5.107c0.304,2.495,1.681,4.859,2.792,7.888c4.074-4.472,6.758-7.421,9.164-10.061
			c5.943,6.869,11.604,14.101,18.131,20.438c1.529,1.484,6.141,0.454,9.083-0.345c3.392-0.92,6.504-2.865,10.388-4.667
			c0.4-1.66,1.198-4.998,2-8.336c0.85-0.167,1.7-0.333,2.551-0.5c2.338,3.304,4.676,6.609,7.117,10.06
			c0.706-1.746,1.479-3.66,3.035-7.512c1.82,3.72,2.859,5.839,4.004,8.17c0.746-3.659,1.457-7.116,2.162-10.572l-0.057-0.003
			c3.17,6.107,11.768,10.083,7.269,19.53c-2.102,0.103-4.446,0.217-6.668,0.324c2.278,2.722,6.458,6.324,5.911,7.314
			c-1.925,3.483-5.473,6.068-9.723,7.831c1.405-2.792,2.812-5.583,4.217-8.375c-1.17,0.819-2.341,1.638-3.508,2.458
			c-3.717-4.027-7.43-8.055-11.145-12.082c0.803-0.856,1.604-1.713,2.406-2.572c-3.964,0-7.977-0.363-11.87,0.162
			c-1.79,0.243-3.344,2.225-5.005,3.418c1.962,0.85,3.924,1.7,6.398,2.77c0.42,5.008,4.154,7.77,13.385,9.408
			c-3.143,5.2-6.504,10.766-9.863,16.331c0.874,0.562,1.75,1.125,2.626,1.686c2.04-2.817,4.081-5.635,5.009-6.918
			c4.594,3.178,9.242,6.393,16.52,11.426c1.421-7.411,2.068-12.34,3.416-17.069c0.572-2.008,2.33-4.092,4.129-5.133
			c0.703-0.406,2.993,1.986,4.588,3.063c1.823,1.23,3.679,2.415,5.639,3.696c0.865-1.95,1.495-3.365,2.662-5.997
			c2.896,4.334,5.191,7.77,7.486,11.203c-2.393,0.293-4.822,0.427-7.157,0.961c-0.884,0.201-1.556,1.329-2.323,2.036
			c-2.205,0.538-4.479,0.884-6.594,1.655c-3.607,1.315-7.893,2.166-10.293,4.717c-1.004,1.064,2.088,5.982,3.316,9.149
			c0.914-0.067,1.826-0.135,2.738-0.202c0.708-3.327,1.416-6.655,2.296-10.796c2.139-0.177,5.446-0.454,8.756-0.73
			c0.009,0.844,0.353,2.216-0.022,2.454c-6.33,4.02-9.527,9.442-8.09,17.104l0.018-0.575c-3.857,7.541-2.941,12.846,7.521,13.682
			c-0.855,0.673-1.711,1.35-2.568,2.024c3.525,3.339,7.047,6.679,11.463,10.863c-1.695-6.104-3.158-11.37-4.62-16.634
			c0.413-0.374,0.828-0.746,1.242-1.118c2.828,3.166,5.649,6.334,8.491,9.486c0.18,0.197,0.603,0.438,0.74,0.359
			c0.365-0.209,0.635-0.583,0.943-0.891l0.008-0.131c0.09,3.423,0.434,6.861,0.203,10.262c-0.229,3.384-0.909,6.756-1.635,10.08
			c-0.406,1.86-1.836,3.596-1.891,5.415c-0.228,7.211-0.094,14.433-0.094,21.736c2.438-1.884,5.244-4.049,8.168-6.309
			c-1.213-1.913-2.515-3.967-4.846-7.645c7.323,3.546,12.672,6.135,18.184,8.803c-3.621,13.003-14.471,13.343-25.001,13.365
			c-0.796,3.398-1.501,6.411-2.772,11.843c3.256,5.015,6.074-3.957,9.811-3.738c3.146,1.49,6.389,3.026,10.053,4.761
			c0.512,4.02,0.814,9.163,1.998,14.095c0.38,1.574,2.932,3.305,4.77,3.722c5.57,1.259,11.278,1.909,18.159,2.988
			c0.409-0.437,2.329-2.491,3.651-3.908c5.959,3.186,11.311,6.051,17.326,9.268c-3.186,1.748-7.086,3.887-11.281,6.189
			c-5.016-13.986-16.16,4.408-23.379-3.422c-0.176,3.512-0.31,6.087-0.324,6.389c4.27,2.354,7.416,5.242,10.832,5.608
			c2.752,0.293,5.828-2.469,8.994-3.985c0.59,2.438,1.549,6.384,2.504,10.333c-6.127-6.116-9.098-1.9-11.629,3.374
			c-2.5-3.903-4.598-7.178-7.564-11.808c0.496,9.193,0.887,16.421,1.311,24.27c4.376-1.195,7.869-3.045,11.068-2.632
			c1.498,0.194,3.778,4.991,3.385,7.309c-1.727,10.204-11.047,12.925-20.156,6.309c-0.357-2.354-0.715-4.708-1.07-7.062
			c-2.008-5.633-4.012-11.268-5.893-16.545c2.09-3.992,4.494-8.587,6.898-13.183c-0.658-0.711-1.318-1.423-1.973-2.137
			c-2.166,0.436-4.331,0.869-8.895,1.782c3.523,1.479,5.033,2.113,7.916,3.323c-7.438,3.218-12.461,5.392-19.004,8.221
			c3.307,1.468,4.891,2.168,6.697,2.971c-3.006,1.697-5.502,3.11-8.004,4.522c8.209-1.048,11.018,1.098,9.131,8.503
			c-1.575,6.179,1.295,15.831-10.404,15.652c-0.793-0.012-1.734,2.529-2.422,3.97c-2.163,4.527-4.24,9.096-6.349,13.649
			c-0.705-0.271-1.411-0.542-2.115-0.813c0.972,3.015,1.944,6.028,3.726,11.552c0.854-6.138,1.358-9.769,2.062-14.835
			c4.356,4.737,7.651,8.323,11.112,12.089c-2.417,1.161-4.785,2.301-7.153,3.441l0.205-0.252c-2.444,0.381-4.89,0.76-10.07,1.565
			c5.687,4.633,9.731,7.93,13.925,11.346c-3.371,0.161-6.584,0.313-9.356,0.443c2.082,2.261,4.014,4.358,5.948,6.458
			c-0.293,0.439-0.586,0.88-0.882,1.32c-3.741-1.327-7.485-2.657-9.448-3.353c-4.939,1.185-8.635,2.071-13.813,3.312
			c0.557-3.235,0.074-7.115,1.606-8.233c9.604-7.015,5.286-16.816,5.446-25.547c0.036-1.918-3.027-5.082-5.168-5.603
			c-4.538-1.107-9.41-0.851-14.075-0.167c6.142,2.612,12.282,5.228,18.423,7.84c-0.362,1.092-0.723,2.184-1.086,3.276
			c-2.115-0.577-4.234-1.153-9.344-2.546c8.789,10.272,6.727,18.896,0.748,27.826c-2.486-0.466-5.232-0.98-8.454-1.585
			c-1.481,2.321-3.055,4.79-5.305,8.314c4.052-0.999,6.833-1.686,10.706-2.641c-1.764,3.79-2.977,6.397-4.193,9.001
			c-1.809-1.203-3.612-2.401-5.15-3.425c-0.549,5.24-1.047,9.985-1.592,15.183c7.158-2.457,10.113-5.742,6.67-11.89
			c3.205-0.088,6.406-0.177,9.609-0.265c0.898,0.688,1.797,1.377,2.695,2.064c2.522,2.151,5.047,4.302,8.074,6.884
			c-2.912,0.496-5.051,0.861-7.078,1.206c-0.213,0.856-0.595,1.739-0.436,1.852c1.949,1.364,5.406,4.056,5.776,3.688
			c5.904-5.856,11.044-0.519,18.511,1.25c-3.713,4.529-6.834,8.331-9.955,12.135c-0.844-0.293-1.689-0.586-2.533-0.879
			c-0.58-3.016-1.16-6.031-1.954-10.157c-2.587,3.941-4.683,7.136-6.778,10.328c0.467,0.202,0.935,0.402,1.402,0.604
			c-3.982,1.795-7.965,3.592-11.494,5.184c0-4.837,0-10.517,0-16.196c-4.527,4.9-5.728,13.796-14.566,7.613
			c-1.357,5.383-2.635,10.432-3.907,15.479c-1.524-0.722-3.048-1.442-5.196-2.462c-1.117,2.278-2.322,4.732-3.527,7.186
			c-11.352,0.089-21.535,11.861-18.611,21.513c-10.467-2.303-11.008-1.795-13.249,8.668c-0.739,3.457-2.616,6.67-3.975,9.994
			c-1.029-0.464-2.06-0.931-3.087-1.395c1.66-3.593,3.322-7.186,5.229-11.313c-3.997,0.804-7.221,1.451-10.388,2.087
			c0.787,2.463,1.607,5.015,2.174,6.776c-3.17,1.338-5.736,2.421-10.316,4.354c1.163-4.86,2.217-9.26,3.27-13.658
			c0.988,0.003,1.975,0.005,2.961,0.008c-3.067-6.835-6.135-13.67-9.202-20.504c-2.628,0.012-6.731-1.009-7.604,0.237
			c-2.444,3.484-3.553,7.904-5.19,11.955c-0.77,2.722-1.539,5.443-2.311,8.166c-1.723,2.62-3.443,5.245-5.204,7.844
			c-0.048,0.068-0.747-0.267-0.769-0.224c-1.369,2.716-2.697,5.449-4.029,8.181c-3.51-4.331-6.545-3.824-9.431,1.306
			c1.444,0.506,2.788,0.978,6.628,2.324c-5.203,0.343-7.854,0.518-11.477,0.754c0.129,2.237,0.276,4.8,0.427,7.406
			c-1.573-0.237-3.414-0.514-6.038-0.91c0.792,2.444,1.356,4.187,1.342,4.142c-3.428,3.349-5.969,5.828-9.168,8.95
			c0-2.756,0-5.021-0.008-7.284c-5.18-1.106-9.125-4.402-15.844-0.311c-5.768,3.51-6.07-5.582-7.662-9.925
			c-0.447-1.213-0.561-2.548-0.324-1.417c-5.299-1.448-8.871-3.154-12.469-3.211c-3.904-0.063-8.475,0.456-11.547,2.521
			c-2.393,1.607-2.938,5.972-4.305,9.109l0.283-0.284c-6.945-3.372-10.48-3.206-16.357,0.889c1.42,0.799,2.758,1.554,4.328,2.436
			c-1.832,1.353-3.336,2.457-4.867,3.588c2.457,3.005,4.617,5.645,7.727,9.449c-3.932,0.6-6.973,1.063-9.772,1.49
			c0-2.952,0.667-5.818-0.292-7.957c-0.457-1.02-5.678-1.305-5.874-0.802c-1.044,2.672-1.181,5.7-1.729,9.224
			c-1.762,0.814-4.545,2.101-7.328,3.387c0.078,0.436,0.155,0.868,0.234,1.304c2.752-0.368,5.506-0.738,8.256-1.106
			c0.195,0.475,0.39,0.949,0.584,1.424c-3.422,1.893-6.842,3.783-11.242,6.215c0-9.008,0-16.217,0-25.288
			c3.27,2.498,4.889,3.735,7.434,5.683c0-4.096,0-7.484,0-10.787c1.256-0.34,2.807-0.758,3.977-1.074
			c-3.321-8.207-6.508-16.08-9.966-24.623c-0.718,1.488-1.399,2.909-2.085,4.328c-0.652-0.185-1.304-0.37-1.957-0.555
			c0.503-1.736,0.568-3.807,1.592-5.146c2.777-3.637,6.334-6.279-0.508-10.213c-1.52-0.872,1.033-9.075,1.996-13.845
			c0.242-1.198,1.58-2.179,2.764-3.711c-9.26,2.064-9.754,3.628-8.256,23.8c-2.572-3.506-5.245-7.144-7.912-10.771
			c-2.183-1.781-4.367-3.574-6.555-5.368c-6.814-6.094-13.629-12.189-21.268-19.02c0.143-1.331,0.477-4.502,0.779-7.362
			c-4.143,3.093-7.996,5.97-11.852,8.847l0.295,0.196c1.633-2.547,3.265-5.092,4.898-7.638c-0.365-0.625-0.733-1.247-1.099-1.872
			c-5.399,2.155-10.802,4.308-16.521,6.592c0.414,1.574,0.965,3.675,2.006,7.642c-5.709-1.154-9.914-2.002-15.285-3.086
			c0.794,3.589,1.357,6.144,2.417,10.948c6.29-8.894,10.548-3.114,16.257,0.174c-3.572,5.228-7.122,10.424-10.675,15.62
			c-0.942-1.734-1.884-3.47-2.828-5.204c0.544-0.265,1.089-0.531,1.634-0.796c-3.74-4.007-7.482-8.016-11.242-12.044
			c-9.536,9.131-8.131-5.804-12.83-8.766c2.943,0.594,5.885,1.186,8.568,1.727c-1.672-5.251-3.1-10.72-5.28-15.872
			c-0.53-1.247-3.497-1.75-5.427-2.051c-3.262-0.505-6.589-0.573-9.887-0.826c2.07-1.962,4.141-3.923,6.635-6.286
			c-4.609-6.023-13.359-11.331-8.697-22.078c-7.691-1.855-10.809-0.104-8.408,7.443c1.586,4.99,3.211,10.13-5.826,8.575
			c2.66,4.651,2.66,4.651,14.856-0.781c-0.28,3.734-0.743,6.688-0.604,9.612c0.055,1.145,1.455,2.225,2.242,3.334
			c-0.254,5.182-0.509,10.36-0.822,16.724c-3.466-2.567-8.058-5.969-12.652-9.369c-0.392,0.531-0.783,1.061-1.178,1.591
			c1.117,3.027,2.236,6.052,3.354,9.08c-0.544,0.628-1.086,1.254-1.629,1.88c-4.068-2.217-8.14-4.435-12.208-6.653
			c0.337-0.814,0.675-1.628,1.011-2.441c1.781-0.308,3.563-0.614,4.975-0.858c-1.098-4.94-2.067-9.292-3.035-13.645
			c-0.422,0.042-0.844,0.085-1.266,0.128c0.135-0.514,0.151-1.104,0.424-1.53c1.81-2.825,5.887-6.896,5.137-8.19
			c-3.109-5.36-8.569-4.567-13.744-2.608l0.24,0.256c4.286-2.381,8.572-4.763,12.49-6.939c-2.785-1.158-6.627-2.751-10.449-4.337
			c-1.401,2.405-3.014,5.169-4.627,7.934c-0.625-0.298-1.25-0.594-1.872-0.892c0.39-1.82,0.78-3.643,1.153-5.376
			c-2.502,0.341-5.027,0.686-7.549,1.03c2.298-5.013,4.588-10.027,7.066-15.444c-1.459-0.995-3.209-2.189-5.684-3.877
			c3.098-1.308,5.331-2.248,7.93-3.343c0.891,2.521,1.574,4.457,2.492,7.052c3.254-2.597,5.549-5.229,8.438-6.426
			c1.676-0.695,4.307,0.918,7.398,1.724c-0.092,0.16,0.663-1.166,1.537-2.707c1.225,1.895,2.245,3.47,3.184,4.922
			c0.727-3.579,1.416-6.976,1.875-9.231c-4.619,0.368-9.438,0.754-14.943,1.193c1.563-3.167,2.483-5.03,3.402-6.894
			c-1.941,0.017-3.893,0.167-5.822,0.016c-2.078-0.164-4.133-0.609-6.02-0.904c2.358-4.872,4.368-9.027,6.379-13.181
			c-0.871-0.509-1.74-1.017-2.611-1.525c-3.431,3.864-8.695,7.262-9.828,11.713c-1.441,5.67,1.723,12.318-6.457,15.728
			c-1.629,0.68-1.193,6.265-1.754,9.581c-0.438,2.596-0.943,5.184-1.766,9.664c0.729,0.236,3.059,0.99,5.385,1.745
			c-0.102,2.025-0.203,4.052-0.327,6.478c-3.27-1.52-6.402-2.975-8.509-3.953c-2.604-5.778-3.789-11.82-7.375-15.562
			c-5.293-5.518-0.654-5.752,3.338-7.113c-0.461-0.85-0.921-1.699-1.38-2.549c-1.634,0.625-3.254,1.288-4.905,1.872
			c-2.305,0.813-4.649,2.146-6.941,2.076c-0.971-0.03-1.85-3.062-2.77-4.729c1.918-0.96,3.832-1.932,5.765-2.865
			c0.235-0.114,0.791,0.041,0.819-0.048c3.57-11.455,15.914-5.349,22.173-11.145c1.761-1.628,3.226-4.23,3.577-6.571
			c0.583-3.891,0.158-7.932,0.158-11.413c-7.742,6.492-7.018-9.284-14.197-4.836c-0.548-0.893-1.094-1.785-1.64-2.679
			c4.188-6.062,8.376-12.124,12.629-18.277c-4.595-1.451-11.076-3.495-18.216-5.748c3.654-4.408,6.139-7.4,8.992-10.841
			c3.584,4.536,4.592,12.205,12.932,7.171c1.73-1.042,6.272,2.578,8.3,3.496c5.165-3.267,9.509-6.012,13.802-8.727
			c-3.508-5.012-9.002-4.727-14.211,1.442c-2.932-10.586-10.58-14.133-20.068-14.159c-7.148-11.356,8.43-8.792,9.483-17.126
			c-6.947,0.696-13.571,1.7-20.213,1.834c-2.208,0.044-4.46-2.142-6.302-3.104c3.646-3.592,5.686-5.6,7.725-7.607l-0.177,0.194
			c4.697,0.951,9.396,1.901,14.505,2.933c0.83-1.222,2.584-3.805,4.338-6.388c0.617,0.332,1.238,0.665,1.855,0.998
			c-0.941-2.957-1.629-6.028-2.881-8.849c-2.386-5.372,1.029-8.012,4.811-9.964c4.388-2.266,9.259-3.597,13.688-5.8
			c0.931-0.462,0.853-2.954,1.39-5.104c-3.28,0.331-5.85,0.59-9.111,0.92c2.797-3.991,5.084-7.254,7.609-10.856
			c1.188,1.34,3.279,3.701,6.842,7.722c0-7.401,0-12.621,0-18.333c-8.861-1.569-13.604,5.105-18.316,12.625
			c-2.252-2.024-4.057-3.645-7.617-6.848c1.609,3.862,2.375,5.696,2.787,6.684c-2.53,4.169-4.753,7.829-7.076,11.657
			c-2.961-1.442-2.961-1.442,0.713-13.576c-4.862-1.331-9.717-2.659-15.799-4.324c4.633-3.942,8.375-7.124,13.248-11.269
			c1.496,6.109-0.49,14.037,8.524,9.772c-1.716-3.124-3.419-6.232-6.308-11.5c6.35,2.713,10.006,4.275,13.66,5.836
			c0.287-0.524,0.57-1.048,0.855-1.57c-1.483-1.273-2.965-2.544-4.449-3.817c0.226-0.807,0.451-1.614,0.674-2.421
			c5.85,0.746,11.701,1.493,18.465,2.356c0.594-0.942,2.365-3.749,4.26-6.754c-1.549-0.306-3.137-0.618-5.922-1.166
			c2.256-1.521,3.693-2.49,5.627-3.792c-3.377-3.344-2.043-11.89-11.161-8.296c-2.323,0.915-5.569-0.517-8.396-0.87l0.016,0.038
			c1.338-0.778,2.676-1.557,3.716-2.159c-2.728-1.177-5.206-2.246-7.685-3.315L194.149,194.996z M413.823,500.952
			c0.114,2.256,0.231,4.512,0.368,7.186c2.178,1.068,5.074,2.491,9.016,4.423c-1.037-6.848,1.473-14.95-9.639-11.404
			c8.533-6.382-1.586-13.75,2.387-21.353c-5.777,5.966-10.487,10.828-15.645,16.153
			C404.381,497.491,409.064,499.252,413.823,500.952z M508.976,175.179c-0.354-2.253-0.706-4.505-1.024-6.531
			c2.605,0.5,5.025,0.966,7.447,1.432c0.124-0.966,0.246-1.932,0.369-2.897c-3.237-0.875-6.474-1.751-9.867-2.667
			c0.865-1.421,1.717-2.816,2.748-4.505c-3.48-1.211-6.6-2.299-12.07-4.206c2.832,3.814,3.97,5.344,5.313,7.153
			c-11.11,2.616-11.404,3.442-4.813,11.271c3.609-1.504,7.898-8.731,10.152,1.198c-2.012-0.234-4.021-0.47-6.032-0.703
			c-0.319,0.938-0.638,1.877-0.956,2.816c5.473,2.783,10.945,5.568,16.416,8.351c0.563-0.695,1.124-1.389,1.686-2.083
			C515.222,180.931,512.098,178.054,508.976,175.179z M536.675,257.427c-1.554-4.106-2.399-7.396-3.974-10.292
			c-3.682-6.778-7.826-13.304-11.568-20.052c-3.361-6.063-6.115-12.486-9.774-18.353c-1.854-2.969-4.825-5.502-7.8-7.462
			c-8.725-5.749-16.303-12.313-19.822-22.61c-0.387-1.128-1.957-1.85-3.52-3.242c0.654,3.139,1.137,5.457,1.936,9.29
			c-8.629-6.259-15.428-14.882-23.066-15.703c-7.787-0.837-5.664-2.298-4.404-6.586c0.395-1.343-0.291-3.003-0.168-2.036
			c-4.922,1.356-9.463,3.731-13.887,3.532c-5.092-0.228-10.017-3.004-15.13-4.189c-7.073-1.642-14.375-4.384-21.356-3.833
			c-9.488,0.748-19.113,6.205-26.121-5.051c-0.484-0.778-2.008-1.396-2.938-1.268c-0.941,0.13-2.551,1.434-2.449,1.949
			c0.279,1.449,1.289,2.755,2.013,4.118c0.679-0.851,1.356-1.701,2.034-2.553c0.646,0.783,1.287,1.565,1.932,2.348
			c-2.287,1.691-4.35,4.181-6.907,4.896c-4.54,1.27-9.379,1.456-14.093,2.103c-3.088,0.425-7.002,2.254-9.094,1.01
			c-4.66-2.771-6.338-0.41-8.587,2.715c-1.04,1.446-2.563,2.618-4.05,3.654c-8.619,6-13.672-2.079-21.176-4.048
			c3.557,3.802,7.109,7.603,10.236,10.945c-8.301,4.295-16.34,8.455-25.619,13.257c-4.918,6.324-10.742,14.088-16.885,21.588
			c-2.799,3.415-7.529,5.752-9.147,9.534c-6.344,14.836-11.791,30.054-17.589,45.125c-1.146,2.982-2.721,5.849-3.472,8.921
			c-1.632,6.677-2.862,13.454-4.253,20.177c0.417,0.205,1.904,0.936,3.391,1.667c-0.171,0.662-0.346,1.326-0.516,1.988
			c-3.678-0.464-7.355-0.928-13.4-1.693c3.16,2.114,4.458,3.249,5.959,3.93c2.496,1.129,7.307,1.966,7.307,2.929
			c0.005,3.894-1.12,7.91-2.483,11.643c-1.103,3.017-3.144,5.692-3.833,6.889c3.413,2.614,5.389,4.128,7.365,5.644
			c-1.867,1.847-3.734,3.692-6.352,6.286c8.42-0.938,9.521,5.116,10.525,11.604c0.822,5.308,2.308,10.512,3.867,17.389
			c4.529,1.889,8.571,6.411,10.947,14.413c2.199,7.397,8.297,13.746,13.113,20.234c7.924,10.675,16.066,20.915,28.586,27.158
			c9.125,4.549,17.223,11.155,25.494,16.654c2.145,0.297,4.631,0.323,6.911,1.025c5.077,1.566,10.17,5.243,15.044,4.909
			c14.625-0.999,28.244,7.051,43.217,3.418c8.451-2.049,17.812-0.285,26.313-2.213c10.12-2.297,20.009-6.147,29.546-10.354
			c11.412-5.03,22.807-10.171,30.787-20.828c4.029-5.385,9.855-9.495,15.207-13.759c1.062-0.845,3.655,0.237,3.14,0.185
			c6.368-9.915,12.188-18.974,18.007-28.031c0.702,0.452,1.404,0.905,2.105,1.359c0-2.293,0-4.587,0-6.329
			c2.945-1.674,5.509-3.131,7.921-4.503c-1.532-1.189-4.007-2.635-3.843-3.055c3.615-9.302,7.521-18.489,11.723-28.535
			c-0.331-2.655-1.268-6.807-1.25-10.956c0.018-4.455,0.93-8.907,1.498-13.758c0.92,0.167,2.734,0.493,5.313,0.957
			c-8.77-6.838-8.441-24.646-0.374-29.685c-0.292-3.65-0.567-7.088-0.837-10.428c-2.506,0.85-4.78,1.62-9.33,3.162
			c0.68-7.673,1.203-13.604,1.719-19.417C539.981,255.633,538.404,256.49,536.675,257.427z M610.39,299.853
			c-5.413,4.906-16.214,6.633-18.246,3.005c-2.846-5.082-8.439-5.413-11.606-4.135c-5.252,2.121-12.652,4.536-10.84,12.813
			c2.525-0.64,4.696-1.189,6.867-1.739c0.689,3.365,1.377,6.729,2.275,11.118c4.982-3.474,10.451-7.283,16.203-11.292
			c1.176,1.977,2.482,4.167,2.571,4.317c5.557-1.583,10.437-2.974,15.112-4.306C612.105,307.036,611.297,303.652,610.39,299.853z
			 M306.598,151.835c12.301-5.5,23.086-10.322,33.463-14.96c-3.933-5.887-7.205-10.785-11.025-16.503
			c-0.043,0.019-1.672,0.729-2.425,1.058c-2.188-2.742-4.188-5.254-6.192-7.764c-0.679,0.475-1.357,0.949-2.037,1.423
			c2.967,6.372,5.934,12.744,8.901,19.115c-0.337,0.328-0.677,0.653-1.014,0.979c-1.901-2.058-3.802-4.116-6.094-6.594
			C316.207,135.383,312.242,142.171,306.598,151.835z M266.99,151.154c3.057-1.263,4.209-1.739,5.358-2.215
			c-0.899-2.111-1.544-4.385-2.782-6.276c-0.934-1.43-3.93-2.708-3.732-3.46c0.559-2.142,1.857-4.696,3.651-5.761
			c2.366-1.403,5.708-1.107,8.191-2.391c1.505-0.778,2.182-3.159,3.75-5.642c-5.334-0.01-9.733,4.773-12.222-2.283
			c-0.307-0.874-6.713,0.01-10.095,0.864c-0.96,0.242-2.038,4.586-1.677,4.809c11.547,7.122,0.43,8.15-3.76,11.876
			C258.715,144.642,263.588,148.477,266.99,151.154z M227.705,239.898c-6.294,5.587-11.953,10.341-17.234,15.478
			c-1.385,1.345-1.611,3.88-2.369,5.87c0.469,0.196,0.938,0.394,1.406,0.59c1.471-1.273,2.943-2.544,5.096-4.406
			c-0.33,5.715-0.563,9.715-0.929,16.075c6.159-4.603,10.317-7.708,13.88-10.371c-3.781-2.85-7.34-5.532-12.48-9.405
			c9.502-2.408,16.396-4.154,24.773-6.275C234.314,244.011,230.381,241.563,227.705,239.898z M423.063,498.619
			c7.428,1.199,14.729,13.834,23.385,0.173c-2.961-4.463-6.046-9.112-9.959-15.009c-0.404,4.24-0.627,6.581-0.967,10.142
			c-4.031-1.719-7.12-3.036-9.877-4.214C424.9,492.278,424.066,495.156,423.063,498.619z M202.027,358.93
			c3.094-5.564,6.029-10.85,9.33-16.789c-3.641-1.836-6.828-3.441-9.939-5.011c2.129-2.408,4.447-5.035,6.766-7.659
			c-0.533-0.512-1.064-1.024-1.594-1.533c-4.047,4.427-8.092,8.857-13.023,14.258c3.884,0,5.826,0,7.768,0
			C201.381,347.829,191.846,351.955,202.027,358.93z M513.982,460.34c-8.307-8.055-10.215-7.611-14.199,2.839
			c-0.875,2.297-2.622,4.295-4.123,6.313c-4.783,6.437-3.695,12.491,2.793,15.103C495.328,476.02,503.752,462.859,513.982,460.34z
			 M561.117,293.305c5.229,0.765,10.539,1.539,16.885,2.466c-3.645-5.74-6.92-10.901-11.209-17.656
			c3.826,1.41,5.949,2.193,8.072,2.976c0.346-0.708,0.694-1.417,1.04-2.125c-1.932-1.115-4.069-3.436-5.768-3.153
			C559.975,277.512,562.343,286.269,561.117,293.305z M519.614,423.995c0.646,4.382,1.433,9.705,2.295,15.53
			c7.378-4.621,13.487-8.446,17.737-11.109C534.199,427.213,527.318,425.696,519.614,423.995z M389.082,459.477
			c-5.799,4.976-10.672,9.157-17.422,14.951c9.129-2.238,16.654-4.081,23.393-5.732c3.816-3.434,7.561-6.8,11.938-10.733
			C399.598,455.709,396.027,470.912,389.082,459.477z M244.008,388.74c-4.291-0.829-8.033-1.553-14.054-2.715
			c3.812,2.66,5.829,4.068,8.612,6.012c-9.537,5.725,1.848,7.441,0.191,14.117c3.998-4.731,6.182-7.314,8.34-9.87
			c-0.646-1.425-1.277-2.705-1.811-4.022C244.756,390.95,244.318,389.601,244.008,388.74z M540.328,211.507
			c-8.879,2.888-16.147,6.3-8.133,16.518C533.596,221.993,548.449,222.689,540.328,211.507z M491.642,466.441
			c9.601-9.31-2.091-17.096,0.587-23.517c-4.43,1.148-8.49,2.199-14.303,3.705C489.898,448.795,495.684,454.4,491.642,466.441z
			 M568.135,199.927c-0.71-0.43-1.42-0.86-2.133-1.29c-4.086,3.805-8.355,7.441-12.146,11.521c-1.09,1.171-0.797,3.625-1.137,5.488
			c1.76,0.168,4.594,1.104,5.109,0.382C561.527,210.852,564.756,205.336,568.135,199.927z M232.283,376.445
			c-2.104-2.825-3.777-5.074-5.682-7.633c0,5.02,0,9.26,0,15.935c4.414-3.203,7.748-5.624,11.082-8.046
			c-0.552-0.795-1.102-1.592-1.654-2.387C234.694,375.074,233.359,375.832,232.283,376.445z M569.324,263.674
			c1.061,0.099,2.123,0.196,3.184,0.295c0.83-4.217,1.664-8.432,2.432-12.66c0.004-0.025-0.904-0.218-1.614-0.387
			c-0.133,2.211-0.263,4.354-0.46,7.641c-2.52-2.783-4.144-4.578-5.768-6.374c-0.836,0.477-1.674,0.951-2.512,1.427
			C566.166,256.968,567.745,260.321,569.324,263.674z M347.387,488.244c0.977,7.859,1.652,13.302,2.416,19.447
			c3.035-4.559,5.124-7.693,7.136-10.715C354.967,495.172,352.287,492.725,347.387,488.244z M362.424,493.738
			c5.588-1.756,10.574-3.322,15.561-4.889c-2.533-2.596-6.285-4.814-8.221-3.744C366.453,486.935,359.861,487.743,362.424,493.738z
			 M553.086,340.449c-0.498-0.021-0.998-0.042-1.496-0.063c-2.313,4.391-4.623,8.781-6.144,11.667
			c2.153,3.158,3.704,5.435,4.966,7.286C551.268,353.298,552.178,346.873,553.086,340.449z M237.295,214.181
			c0.431,0.563,0.861,1.126,1.289,1.688c5.168-1.645,10.339-3.29,15.508-4.935c-0.223-0.396-0.441-0.792-0.664-1.188
			c-3.67-0.418-7.338-0.838-11.66-1.331C240.664,209.84,238.979,212.01,237.295,214.181z M238.438,365.369
			c-4.358-3.996-7.866-7.214-12.638-11.587c0.884,5.384,1.397,8.511,1.9,11.587C230.93,365.369,234.203,365.369,238.438,365.369z
			 M261.469,194.004c-4.021,0.226-6.988,0.393-9.955,0.559c0.057,1.047,0.115,2.097,0.174,3.145
			c4.402,0.386,8.803,0.77,12.344,1.079c1.205-4.159,2.178-7.512,3.867-13.344C264.693,189.711,262.877,192.13,261.469,194.004z
			 M258.956,438.399c-2.768-2.539-5.075-4.654-7.407-6.794c-1.535,1.26-3.244,2.663-4.35,3.57c2.055,2.967,3.955,5.713,6.127,8.846
			C255.338,442.014,257.305,440.049,258.956,438.399z"/>
		<path fill-rule="evenodd" clip-rule="evenodd" fill="#B0688A" d="M285.949,454.476c3.855-2.877,7.709-5.754,11.852-8.847
			c-0.303,2.86-0.637,6.031-0.779,7.362c7.639,6.83,14.453,12.926,21.268,19.02c-9.639,4.172-8.389-6.046-11.785-9.416
			c-3.6,2.309-6.707,4.3-9.385,6.017c4.246,6.246,16.003,3.755,13.062,14.031c-1.95,2.412-3.897,4.823-5.847,7.234l0.307-0.111
			c-1.08-1.825-2.16-3.651-3.732-6.307c-3.149,1.74-6.705,3.703-8.724,4.818c-6.606-1.977-13.164-3.939-19.284-5.772
			c2.446,4.688,4.791,9.178,7.137,13.669c-0.719,0.489-1.439,0.978-2.156,1.466c-3.133-4.415-6.264-8.831-9.394-13.245
			c0.183-0.497,0.101-0.943-0.244-1.343c3.553-5.196,7.103-10.393,10.675-15.62c-5.709-3.288-9.967-9.067-16.257-0.174
			c-1.06-4.805-1.623-7.359-2.417-10.948c5.371,1.084,9.576,1.932,15.285,3.086c-1.041-3.967-1.592-6.067-2.006-7.642
			c5.719-2.284,11.121-4.437,16.521-6.592c0.365,0.625,0.733,1.247,1.099,1.872c-1.634,2.546-3.266,5.091-4.877,7.646
			c-1.467-0.867-2.953-1.742-4.439-2.616c-0.604,0.498-1.211,0.998-1.815,1.496c3.2,5.68,6.4,11.358,9.601,17.037
			c0.98-0.352,1.962-0.701,2.945-1.051c0.599-3.729,1.197-7.457,1.791-11.135C291.168,456.921,288.556,455.698,285.949,454.476z"/>
		<path fill-rule="evenodd" clip-rule="evenodd" fill="#B0688A" d="M304.334,489.877c1.949-2.411,3.896-4.822,5.847-7.234
			c2.941-10.276-8.815-7.785-13.062-14.031c2.678-1.717,5.785-3.708,9.385-6.017c3.396,3.37,2.146,13.588,11.785,9.416
			c2.188,1.794,4.372,3.587,6.555,5.368c0.544,6.89,1.271,13.783,1.416,20.69c0.02,0.862-3.046,1.791-4.536,4.993
			c3.06-0.37,6.122-0.741,9.179-1.11c-0.379,0.551-0.757,1.103-1.137,1.655c2.109,1.653,4.447,3.091,6.266,5.02
			c2.09,2.217,3.719,4.867,6.24,8.258c-9.721,0-16.68,0-23.416,0C321.139,505.047,309.414,499.142,304.334,489.877z"/>
		<path fill-rule="evenodd" clip-rule="evenodd" fill="#B0688A" d="M268.487,484.395c3.13,4.414,6.261,8.83,9.394,13.245
			c0.717-0.488,1.438-0.977,2.156-1.466c-2.346-4.491-4.69-8.98-7.137-13.669c6.12,1.833,12.678,3.796,19.284,5.772
			c2.019-1.115,5.574-3.078,8.724-4.818c1.572,2.655,2.652,4.481,3.732,6.307c-4.375,3.872-8.752,7.742-13.303,11.768
			c1.341,2.438,2.85,5.18,4.973,9.036c-2.809-1.021-4.471-1.626-5.926-2.154c-1.962,2.191-3.5,4.439-5.604,5.842
			c-0.463,0.309-2.924-2.375-5.084-4.205c-1.598,0.979-4.277,2.616-6.957,4.255c-0.6-0.532-1.201-1.066-1.802-1.6
			c2.137-3.514,4.273-7.025,7.294-11.991c-4.631,1.576-8.156,2.775-12.854,4.374c-1.787-1.534-4.948-4.242-7.256-6.217
			c2.529-3.729,4.563-6.729,6.598-9.731c-0.586-0.447-1.17-0.893-1.754-1.339c-1.485,1.346-2.967,2.691-4.911,4.457
			c-1.256-2.087-2.372-3.941-3.808-6.329C259.557,485.357,264.021,484.875,268.487,484.395z"/>
		<path fill-rule="evenodd" clip-rule="evenodd" fill="#B0688A" d="M536.135,95.062c-3.256,1.585-6.611,3.218-10.387,5.055
			c0.354-1.42,0.756-3.036,1.18-4.726c-7.494,0.536-7.044,0.33-4.253,6.408c1.813,3.945,4.001,8.863-2.052,12.058
			c-1.467,0.775-2.416,2.527-5.297,5.689c4.512-0.87,6.459-1.245,10.471-2.02c-3.872,6.629-6.874,11.77-9.875,16.907
			c-0.938-0.539-1.875-1.077-2.811-1.616c1.151-2.03,2.301-4.063,3.473-6.127c-12.391-4.133-13.871-6.497-14.318-23.015
			c1.682,0.337,3.254,0.653,4.822,0.967c0.191-0.491,0.381-0.983,0.57-1.474c-2.02-1.277-4.04-2.554-6.35-4.014
			c8.934-5.16,22.859-2.722,23.459-17.933C528.633,85.929,532.283,90.373,536.135,95.062z"/>
		<path fill-rule="evenodd" clip-rule="evenodd" fill="#B0688A" d="M530.279,508.168c-0.406,4.043-8.867,10.599,4.108,10.747
			c0.707,0.007,1.351,5.449,0.936,8.971c-9.761-6.37-24.468-6.235-24.962-22.81c0.799,11.618-5.249,16.521-22.531,11.987
			c1.611-1.834,3.051-3.478,4.651-5.304c-1.591-1.083-2.996-2.043-4.403-3.003c0.215-0.568,0.428-1.136,0.643-1.704
			c2.438,0.681,6.582,0.81,7.007,2.136c1.788,5.562,5.713,5.986,9.429,3.917c1.273-0.71,0.202-5.63,0.202-10.43
			c2.958-3.56,8.671-1.094,11.679,1.642c4.076,3.709,6.998,2.495,10.799,1.03c10.797-4.165,11.061-4.077,18.695,4.452
			c0.756-1.39,1.437-2.64,2.338-4.3c2.451,3.086,4.648,5.854,7.126,8.98c-1.54,1.938-3.399,4.276-5.519,6.94
			c-5.938-5.326-11.592-10.397-17.246-15.47C532.246,506.69,531.262,507.43,530.279,508.168z"/>
		<path fill-rule="evenodd" clip-rule="evenodd" fill="#B0688A" d="M393.856,107.333c-8.743-8.289-13.104,3.579-20.029,3.66
			c-0.137,0.923-0.276,1.846-0.415,2.771c6.729,1.534,13.459,3.07,20.148,4.596c-0.863,7.757-6.725,11.558-14.35,9.737
			c-3.959-0.946-8.203-0.693-14.552-1.14c-0.144-3.53-0.337-8.276-0.53-13.023l-0.295,0.285c1.584-0.201,3.166-0.405,4.748-0.606
			c-0.92-2.053-1.841-4.105-2.967-6.617c2.481,0.711,4.818,1.382,7.154,2.053c0.789-0.457,1.576-0.915,2.365-1.372
			c-1.793-4.119-3.584-8.24-5.336-12.268c2.357,1.152,4.776,2.336,7.198,3.522c2.958-2.079,6.313-2.205,9.337-3.269
			c4.229-1.484,8.213-3.668,12.301-5.554c1.788-0.469,3.576-0.938,5.367-1.407c-2.488,3.164-4.363,7.416-7.602,9.231
			C391.559,100.646,391.879,103.441,393.856,107.333z"/>
		<path fill-rule="evenodd" clip-rule="evenodd" fill="#B0688A" d="M194.426,194.708c-2.149-0.282-4.301-0.565-5.576-0.732
			c0,5.067,0,9.541,0,14.266c-4.768-0.849-8.406-1.496-12.725-2.266c1.012-3.227,2.088-6.662,3.318-10.585
			c-2.084-0.74-4.597-1.633-8.437-2.995c6.36-3.667,8.022-9.95,15.464-12.274c8.256-2.579-0.829-5.403-3.274-9.582
			c3.431-0.872,6.507-2.698,8.715-1.952c2.765,0.932,5.86,3.549,6.946,6.203c2.052,5.012,1.664,4.703,7.682,6.582
			c2.439,0.761,3.973,4.432,5.92,6.778l-0.26-0.302c-2.903,0.837-5.787,2.254-8.723,2.37c-4.047,0.161-8.428-1.256-9.322,4.769
			C194.149,194.996,194.426,194.708,194.426,194.708z"/>
		<path fill-rule="evenodd" clip-rule="evenodd" fill="#B0688A" d="M398.635,90.108c-4.088,1.886-8.071,4.07-12.301,5.554
			c-3.023,1.063-6.379,1.19-9.337,3.269c-2.422-1.187-4.841-2.371-7.198-3.522c1.752,4.027,3.543,8.148,5.336,12.268
			c-0.789,0.458-1.576,0.915-2.365,1.372c-2.336-0.671-4.673-1.341-7.154-2.053c1.126,2.512,2.047,4.564,2.967,6.617
			c-1.582,0.201-3.164,0.405-4.748,0.606c-2.658-1.945-5.316-3.893-8.822-6.458c0.761-0.635,3.722-2.545,5.918-5.109
			c1.631-1.906,3.201-4.679,3.156-7.034c-0.099-5.138,2.572-7.043,7.719-5.8c3.145,0.759,6.729-0.304,10.115-0.548
			c-0.098-1.217-0.193-2.432-0.287-3.647c-2.187,0.176-4.373,0.352-5.339,0.429c-1.794-3.538-3.42-6.742-5.056-9.973
			c2.463-2.254,5.217-4.774,8.587-7.858c2.056,3.217,4.281,6.698,6.509,10.177c0.005-0.002-0.03-0.263-0.03-0.263
			c-0.244,2.503-0.487,5.005-0.706,7.247C390.256,87.071,394.447,88.589,398.635,90.108z"/>
		<path fill-rule="evenodd" clip-rule="evenodd" fill="#B0688A" d="M393.856,107.333c-1.978-3.892-2.298-6.688,2.544-9.401
			c3.238-1.815,5.113-6.068,7.602-9.231c2.52,1.09,4.957,2.534,7.586,3.164c2.217,0.529,4.659,0.107,7.002,0.107
			c0.627-0.748,1.258-1.495,1.887-2.244c1.557,4.746,3.9,9.396,4.5,14.259c1.07,8.664,7.9,2.428,11.466,4.769
			c-2.835,3.2-5.443,6.146-8.054,9.094l0.275-0.309c-13.415-0.673-19.662-8.278-20.131-22.153
			c-4.248,5.897-2.093,19.211-15.031,11.61L393.856,107.333z"/>
		<path fill-rule="evenodd" clip-rule="evenodd" fill="#B0688A" d="M171.74,279.945c-3.475-0.637-6.634-6.993-5.241-10.7
			c0.706-1.887,1.61-3.699,2.431-5.554c-3.407-1.331-6.705-2.62-10.417-4.07c-3.292,3.118-6.976,6.607-10.663,10.097
			c1.372-7.679-8.896-16.143,1.404-21.527c7.945,4.709,15.434,9.474,23.318,13.453c1.105,0.559,4.146-2.721,6.391-4.293
			c0.354,1.268,1.026,3.684,1.651,5.928c1.642-0.176,3.354-0.358,2.688-0.289c-3.594,5.249-7.664,11.201-11.739,17.149
			C171.563,280.14,171.74,279.945,171.74,279.945z"/>
		<path fill-rule="evenodd" clip-rule="evenodd" fill="#B0688A" d="M615.358,235.252c-2.538-2.068-4.444-3.623-6.351-5.177
			c-0.407,0.471-0.813,0.944-1.218,1.417c2.46,3.703,4.921,7.406,8.05,12.117c1.08-2.727,1.744-4.402,2.76-6.971
			c2.018,4.167,11.023,6.836,1.24,11.296c-2.605,1.188-8.068-0.025-9.951-2.148c-2.18-2.457-1.861-7.134-2.717-11.279
			c-2.441,1.522-3.824,2.382-5.204,3.242c2.874-13.682,16.332-13.731,25.151-19.556C629.88,222.553,629.88,222.553,615.358,235.252z
			"/>
		<path fill-rule="evenodd" clip-rule="evenodd" fill="#B0688A" d="M206.76,454.845c-0.379,3.052-0.758,6.104-1.201,9.685
			c6.73,6.805,9.443-5.938,16.123-3.948c-0.242,1.918-0.492,3.889-0.836,6.602c3.925-2.079,7.406-3.923,12.275-6.501
			c-0.791,4.07-1.309,6.734-1.771,9.11c1.455,0.564,3.049,1.185,4.645,1.804c-0.357,0.916-0.716,1.831-1.074,2.748
			c-3.986-1.765-7.973-3.529-11.484-5.086c-1.389,3.451-2.762,6.857-5.092,12.651c-1.932-4.782-2.821-6.981-3.709-9.182
			c-0.24,0.587-0.479,1.174-0.719,1.761c-4.949-2.039-11.845-2.846-14.184-6.539c-1.652-2.608,2.873-9.129,4.641-13.903
			C205.168,454.312,205.965,454.578,206.76,454.845z"/>
		<path fill-rule="evenodd" clip-rule="evenodd" fill="#B0688A" d="M373.816,520.327c3.624-1.814,7.246-3.628,11.869-5.942
			c1.117,6.407,2.426,11.382,2.598,16.396c0.055,1.605-2.686,4.42-4.51,4.766c-5.156,0.978-10.496,0.965-14.585,1.256
			c-0.946-4.674-1.935-9.569-2.823-13.953c1.693-0.62,4.727-1.729,7.746-2.82C374.1,520.043,373.816,520.327,373.816,520.327z"/>
		<path fill-rule="evenodd" clip-rule="evenodd" fill="#B0688A" d="M303.381,102.283c-7.248-1.921-13.566-3.597-19.719-5.229
			c4.605-5.94,9.424-12.154,14.924-19.249c2.003,0.576-1.17,11.429,7.197,5.946C305.633,90.816,312.367,98.255,303.381,102.283z"/>
		<path fill-rule="evenodd" clip-rule="evenodd" fill="#B0688A" d="M212.459,188.149c0.949-2.003,1.901-4.005,3.041-6.404
			c-5.641-1.109-10.02-2.72-4.812-9.634c1.485-1.973,0.53-5.783,0.785-10.401c1.566,3.495,2.532,5.654,3.112,6.947
			c3.041-2.452,6.044-6.66,9.541-7.123c2.804-0.37,6.209,3.807,11.607,7.524c-6.324,0.554-11.019,0.965-16.258,1.424
			c0.174,4.333,8.887,6.88,2.854,12.85c-3.027,2.995-4.91,7.096-10.145,4.503C212.199,187.848,212.459,188.149,212.459,188.149z"/>
		<path fill-rule="evenodd" clip-rule="evenodd" fill="#B0688A" d="M579.391,466.335c8.586,1.689,15.992,0.931,18.57-10.085
			c2.959,3.753,5.326,6.756,7.326,9.29c-1.646,1.892-3.215,3.698-4.77,5.482c-1.337-0.943-2.854-2.015-3.535-2.493
			c-2.893,4.736-5.498,9-8.104,13.265c-4.251-3.896-12.948-1.356-14.263-9.667c2.55-0.395,4.926-0.76,7.301-1.127
			c-0.842-1.563-1.684-3.124-2.525-4.686V466.335z"/>
		<path fill-rule="evenodd" clip-rule="evenodd" fill="#B0688A" d="M386.304,78.134c0,0,0.035,0.261,0.03,0.263
			c1.442-4.913,2.889-9.827,4.367-14.863c1.666,0.529,4.807,1.524,8.367,2.65c4.867-5.846,4.888-12.059,1.318-18.609l-0.238,0.21
			c3.023,2.585,6.332,4.913,8.977,7.841c2.018,2.237,3.191,5.237,4.869,8.119c-1.992-0.334-4.758-0.797-7.523-1.261
			c-0.551,3.469-1.01,6.373-1.467,9.274c0.006-0.003-0.445,0.146-0.445,0.146c-4.467,0-8.931,0-13.378,0
			c1.956,4.537,3.011,6.989,4.068,9.44c-0.731,0.348-1.46,0.698-2.19,1.045C390.805,80.972,388.555,79.554,386.304,78.134z"/>
		<path fill-rule="evenodd" clip-rule="evenodd" fill="#B0688A" d="M453.5,120.272c-0.178-2.29-0.352-4.58-0.529-6.868
			c1.457-2.763,3.401-5.393,4.206-8.335c0.558-2.039-0.448-4.507-0.757-6.783l0.148,0.17c1.475-1.382,2.952-2.762,4.426-4.145
			c0.969,1.493,2.221,2.877,2.857,4.501c1.719,4.395,3.18,8.891,5.313,13.157c1.221,3.515-7.818-0.042-4.418,7.13
			C465.943,121.626,456.29,123.8,453.5,120.272z"/>
		<path fill-rule="evenodd" clip-rule="evenodd" fill="#B0688A" d="M286.15,519.049c-2.413,2.658-4.83,5.315-8.963,9.862
			c2.942,1.867,6.223,3.946,9.813,6.224c-4.971,5.188-9.564,6.118-13.598,2.047c-3.869-3.907-12.334-7.178-3.586-13.201
			c4.617-2.273,9.234-4.546,13.854-6.821C284.496,517.789,285.324,518.419,286.15,519.049z"/>
		<path fill-rule="evenodd" clip-rule="evenodd" fill="#B0688A" d="M434.33,530.486c0.859,2.623,2.112,6.452,3.385,10.336
			c-3.744-0.653-7.891,8.148-14.057,1.385c-0.34-0.373-3.609,1.263-4.922,2.561c-6.29,6.212-8.453,1.294-11.74-4.498
			C416.771,536.771,425.875,533.513,434.33,530.486z"/>
		<path fill-rule="evenodd" clip-rule="evenodd" fill="#B0688A" d="M488.307,66.285c-7.068,3.027-13.531,5.797-21.029,9.008
			c2.021-5.227,3.738-8.863,4.748-12.686c0.402-1.529-0.18-4.104-1.297-5.119c-7.16-6.505-7.253-6.405-6.803-15.476
			C466.547,55.8,481.199,56.8,488.307,66.285z"/>
		<path fill-rule="evenodd" clip-rule="evenodd" fill="#B0688A" d="M538.33,536.858c0,3.689,0.877,9.158-0.26,14.168
			c-1.037,4.577-4.259,8.659-8.19,13.422c-0.226-3.724-0.448-7.449-0.761-12.603c-4.689-2.906-3.973-6.189,2.021-10.442
			c2.667-1.893,3.376-6.543,5.486-11.033c1.109-0.058,4.291-0.226,7.471-0.396c0.465,0.602,0.929,1.203,1.393,1.803
			C543.367,533.284,541.244,534.791,538.33,536.858z"/>
		<path fill-rule="evenodd" clip-rule="evenodd" fill="#B0688A" d="M454.885,547.188c8.352-1.598,16.385-2.264,13.898-13.494
			c0.921,0.049,1.841,0.094,2.761,0.143c0.849,3.019,1.696,6.039,2.646,9.416c10.623,0.736,16.998,6.506,14.023,12.654
			c-4.322-2.846-8.717-5.741-13.554-8.926c-1.538,2.666-2.921,5.066-3.718,6.448C466.034,551.521,461.273,549.673,454.885,547.188z"
			/>
		<path fill-rule="evenodd" clip-rule="evenodd" fill="#B0688A" d="M463.693,491.072c0.771-2.723,1.541-5.444,2.311-8.166
			c2.134,1.356,4.268,2.713,4.418,2.811c2.559-4.86,5.095-9.676,7.631-14.492c1.266,7.085,2.531,14.172,3.76,21.057
			C476.184,490.85,469.094,502.774,463.693,491.072z"/>
		<path fill-rule="evenodd" clip-rule="evenodd" fill="#B0688A" d="M617.531,396.664c-1.781-0.778-3.566-1.559-6.148-2.688
			c4.688-5.804,5.613-11.192-1.182-15.939c6.877-3.336,14.688-5.318,12.279-17.053c4,1.232,7.152,2.205,10.305,3.176
			c-0.18,0.465-0.362,0.929-0.543,1.393c-1.771,0.141-4.864-0.146-5.072,0.496c-0.658,2.044-0.244,4.437-0.244,6.945
			c-2.463,1.877-5.477,4.174-8.49,6.471c0.41,0.69,0.822,1.38,1.232,2.067c2.345-0.723,4.69-1.444,7.035-2.165
			c-3.611,5.751-11.717,8.816-9.426,17.586L617.531,396.664z"/>
		<path fill-rule="evenodd" clip-rule="evenodd" fill="#B0688A" d="M339.518,69.107c0.757,3.433,1.736,7.861,2.773,12.567
			c2.727,0,5.213,0,10.779,0c-5.077,7.169-8.938,12.623-12.801,18.078c-0.451-0.16-0.898-0.321-1.35-0.481
			c0.924-3.761,1.846-7.521,3.371-13.737c-4.732,3.062-7.262,4.696-9.787,6.331c-0.586-0.443-1.171-0.886-1.754-1.328
			c1.453-2.471,2.911-4.941,4.713-7.998c-1.615-0.44-3.201-0.874-3.6-0.983C334.344,77.525,336.918,73.337,339.518,69.107z"/>
		<path fill-rule="evenodd" clip-rule="evenodd" fill="#B0688A" d="M572.283,192.614l-0.018,0.575
			c7.265-13.136,19.06-10.718,30.843-7.201c-3.409,0.34-6.817,0.681-9.757,0.973c-6.419,4.575-12.996,9.262-20.307,14.471
			C572.772,198.271,572.526,195.443,572.283,192.614z"/>
		<path fill-rule="evenodd" clip-rule="evenodd" fill="#B0688A" d="M400.387,47.575c-2.578,1.806-5.158,3.611-9.725,6.805
			c2.748-8.469,9.758-14.308,1.713-21.083c1.879-1.497,3.914-3.116,6.018-4.79c4.506,8.454,5.631,8.604,12.484,0.861
			c1.037,3.411,1.863,6.12,2.686,8.828c-0.895-0.377-1.79-0.752-2.686-1.13c-1.893,1.811-3.816,3.591-5.668,5.44
			c-1.725,1.721-3.369,3.516-5.057,5.278L400.387,47.575z"/>
		<path fill-rule="evenodd" clip-rule="evenodd" fill="#B0688A" d="M536.225,478.029c4.508-9.689,9.822-10.863,19.791-4.372
			c-3.285,14.501-5.287,16.3-14.449,11.92c1.953-1.234,3.525-2.222,5.092-3.215c1.457-0.922,2.91-1.847,4.436-4.939
			c-2.289,0.15-4.604,0.143-6.859,0.495c-2.15,0.337-4.238,1.052-6.356,1.6C537.326,479.021,536.775,478.524,536.225,478.029z"/>
		<path fill-rule="evenodd" clip-rule="evenodd" fill="#B0688A" d="M555.816,124.371c-4.59-5.064-9.18-10.127-14.523-16.02
			c4.805,0,9.633,0,15.211,0c-0.031-0.572-0.301-1.774-0.104-2.894c0.236-1.324,0.874-2.575,1.527-4.379
			c2.49,1.321,4.557,2.417,7.436,3.944c-2.361,1.063-4.021,1.809-5.676,2.555c0.68,0.384,1.359,0.769,2.038,1.155
			c-2.015,5.192-4.026,10.385-6.005,15.606C555.76,124.368,555.816,124.371,555.816,124.371z"/>
		<path fill-rule="evenodd" clip-rule="evenodd" fill="#B0688A" d="M404.559,71.904c0,0,0.451-0.149,0.445-0.146
			c3.078-0.727,6.159-1.456,9.242-2.186c-0.135,4.836-0.27,9.67-0.404,14.504c-4.777-0.699-9.557-1.397-17.1-2.501
			C400.438,77.002,402.498,74.453,404.559,71.904z"/>
		<path fill-rule="evenodd" clip-rule="evenodd" fill="#B0688A" d="M649.32,283.494c-6.157,3.166-11.104,5.71-16.402,8.434
			c-1.813-2.058-3.724-4.23-6.783-7.703c3.379,0.744,5.158,1.136,5.602,1.233c0-4.384,0-8.792,0-13.197
			c1.374,0.157,3.837,0.077,3.932,0.512c0.34,1.577-0.112,3.326-0.336,5.806c3.467,0,7.834,0,12.627,0
			C648.565,280.769,649.109,282.737,649.32,283.494z"/>
		<path fill-rule="evenodd" clip-rule="evenodd" fill="#B0688A" d="M160.492,285.315c1.768,3.64,3.536,7.278,5.733,11.807
			c-6.686-4.292-15.912,9.8-20.729-5.467c4.314-2.884,9.289-6.209,14.268-9.538C160.008,283.184,160.25,284.249,160.492,285.315z"/>
		<path fill-rule="evenodd" clip-rule="evenodd" fill="#B0688A" d="M525.805,496.749c-3.646,0.648-5.936,1.144-8.249,1.423
			c-1.007,0.123-2.403,0.164-3.017-0.407c-0.691-0.648-1.249-2.258-0.914-3.047c1.731-4.081,2.979-8.86,5.989-11.728
			c1.886-1.799,6.576-0.657,11.509-0.91C528.61,489.009,526.92,493.667,525.805,496.749z"/>
		<path fill-rule="evenodd" clip-rule="evenodd" fill="#B0688A" d="M180.214,144.079c3.962-0.454,8.116-0.93,12.274-1.406
			c0.494,0.371,0.987,0.739,1.482,1.109c-2.838,2.092-5.436,5.348-8.572,6c-4.516,0.937-9.453,0.174-14.125-0.478
			c-0.442-0.062-1.27-5.218-0.164-6.727c1.785-2.437,5.023-3.808,7.652-5.629C179.166,138.936,179.568,140.924,180.214,144.079z"/>
		<path fill-rule="evenodd" clip-rule="evenodd" fill="#B0688A" d="M649.698,250.267c-6.106,2.867-7.089,15.259-18.765,10.928
			c5.781-9.297,5.467-10.549-2.625-16.936C635.129,246.173,641.947,248.09,649.698,250.267z"/>
		<path fill-rule="evenodd" clip-rule="evenodd" fill="#B0688A" d="M588.291,419.164c1-1.789,1.998-3.58,3.494-6.265
			c4.294,1.815,9.563,4.045,15.014,6.351c-2.168,4.17-3.511,6.755-4.911,9.451c-5.376-4.971-10.848-6.631-17.716-0.774
			c1.443-2.998,2.887-5.998,4.304-8.968C588.447,418.988,588.291,419.164,588.291,419.164z"/>
		<path fill-rule="evenodd" clip-rule="evenodd" fill="#B0688A" d="M484.02,524.121c-8.572-1.489-14.049-2.439-20.786-3.61
			c2.257-5.566,3.913-9.646,5.552-13.69c3.512,2.424,6.753,3.95,8.985,6.397C479.977,515.636,481.164,518.981,484.02,524.121z"/>
		<path fill-rule="evenodd" clip-rule="evenodd" fill="#B0688A" d="M136.416,325.109c1.865,6.274,3.02,10.159,4.285,14.412
			c1.652,0,3.6,0,5.688,0c0.253,2.546,0.473,4.771,0.707,7.114c-0.83,0.46-1.781,1.391-2.256,1.189
			c-5.016-2.127-9.988-4.372-14.817-6.883c-0.239-0.122,0.87-3.045,1.508-4.6C132.756,333.359,134.095,330.423,136.416,325.109z"/>
		<path fill-rule="evenodd" clip-rule="evenodd" fill="#B0688A" d="M614.277,345.864c0.355,2.354,0.713,4.708,1.07,7.062
			c0.352,2.921,0.705,5.843,1.146,9.497c-3.545,0.926-7.729,2.02-11.844,3.095c0.623-5.066,1.258-10.227,1.893-15.389
			c-0.779-0.726-1.559-1.45-2.338-2.176C607.563,347.257,610.918,346.561,614.277,345.864z"/>
		<path fill-rule="evenodd" clip-rule="evenodd" fill="#B0688A" d="M346.324,579.161c-2.506-0.548-4.217-0.473-5.295-1.263
			c-1.658-1.211-2.741-3.18-4.32-4.532c-2.885-2.469-5.952-4.718-8.946-7.062c2.229-1.795,4.444-3.607,6.692-5.381
			c0.84-0.661,1.752-1.231,3.451-2.416C340.646,565.234,343.159,571.393,346.324,579.161z"/>
		<path fill-rule="evenodd" clip-rule="evenodd" fill="#B0688A" d="M245.881,130.494c-6.623-0.039-14.127-11.554-11.064-17.361
			c1.631-3.1,4.079-5.772,6.158-8.639c1.027,0.546,2.055,1.09,3.08,1.636c-1.174,3.326-2.344,6.65-3.514,9.976
			c-2.176,5.956,10.459,6.571,5.129,14.541C245.646,130.665,245.881,130.494,245.881,130.494z"/>
		<path fill-rule="evenodd" clip-rule="evenodd" fill="#B0688A" d="M344.271,74.274c11.332-4.633,21.017-0.631,24.972,9.405
			c-2.782-1.819-4.432-2.896-6.29-4.109c-0.263,0.499-0.484,1.222-0.941,1.732c-1.455,1.62-3,3.161-4.51,4.732
			c-0.924-1.604-1.775-3.254-2.793-4.795c-0.926-1.404-1.769-3.128-3.115-3.932C349.35,75.969,346.732,75.252,344.271,74.274z"/>
		<path fill-rule="evenodd" clip-rule="evenodd" fill="#B0688A" d="M176.27,450.569c-8.477,2.129-11.426-1.971-9.189-10.701
			c-3.65,0.34-6.067,0.564-11.311,1.053c4.592-3.986,7.269-6.312,10.625-9.227c-0.203-0.916-0.646-2.915-1.09-4.914
			c0.368-0.147,0.736-0.294,1.105-0.44C169.697,434.414,172.98,442.488,176.27,450.569z"/>
		<path fill-rule="evenodd" clip-rule="evenodd" fill="#B0688A" d="M502.955,528.508c-6.058,2.22-13.111,3.628-9.686,12.491
			c-5.467-1.115-10.262-2.093-15.33-3.127c1.426-3.395,3.162-7.517,5.607-13.331c2.49,3.6,3.811,5.508,4.152,6
			c5.602-0.74,10.424-1.377,15.248-2.015L502.955,528.508z"/>
		<path fill-rule="evenodd" clip-rule="evenodd" fill="#B0688A" d="M567.654,420.472c-0.898-0.688-1.797-1.377-2.695-2.064
			c1.336-6.175,4.663-9.027,10.902-6.021c4.234,2.04,8.248,4.545,12.395,6.811c0.035-0.033,0.191-0.209,0.22-0.238
			c-2.351,1.499-4.729,3.027-7.108,4.557c-0.019-0.651-0.035-1.304-0.053-1.955C576.761,421.198,572.207,420.835,567.654,420.472z"
			/>
		<path fill-rule="evenodd" clip-rule="evenodd" fill="#B0688A" d="M667.507,342.912c-2.507-2.969-5.012-5.938-8.175-9.688
			c-1.535,2.184-3.053,4.34-4.256,6.05c0.994-10.488,11.135-15.974,22.227-10.893c-5.138,3.121-14.107,3.954-7.088,14.063
			C669.313,342.6,668.41,342.757,667.507,342.912z"/>
		<path fill-rule="evenodd" clip-rule="evenodd" fill="#B0688A" d="M612.717,155.461c-0.625,4.834-0.941,7.292-1.15,8.896
			c-2.613-3.275-5.414-6.78-8.213-10.285c-2.986-7.822,3.129-8.552,9.672-8.343c-1.664,0.714-3.328,1.427-6.824,2.925
			c3.383,2.65,6.031,4.724,8.68,6.799c0.488-0.469,0.976-0.937,1.463-1.406c0.707,3.901,1.418,7.802,2.127,11.701
			c-0.701,0.207-1.402,0.414-2.104,0.62C615.393,163.459,614.42,160.549,612.717,155.461z"/>
		<path fill-rule="evenodd" clip-rule="evenodd" fill="#B0688A" d="M579.969,488.881c-3.592,3.374-7.694,7.427-12.056,11.18
			c-1.042,0.896-2.94,0.793-4.446,1.148c-0.152-1.75-0.799-3.634-0.363-5.223c1.193-4.347,2.842-8.567,3.874-11.567
			C571.809,486.078,576.131,487.563,579.969,488.881z"/>
		<path fill-rule="evenodd" clip-rule="evenodd" fill="#B0688A" d="M579.391,466.314c0.158-2.163,0.316-4.329,0.354-4.824
			c-5.226-1.964-9.501-3.435-13.582-5.327c-0.387-0.18,0.451-2.996,0.999-6.24c3.002,3.581,4.719,5.631,6.537,7.8
			c3.961-6.37,9.746-6.866,16.18-1.416c-3.52,3.363-7.004,6.693-10.488,10.027C579.391,466.335,579.391,466.314,579.391,466.314z"/>
		<path fill-rule="evenodd" clip-rule="evenodd" fill="#B0688A" d="M323.201,60.736c-5.252,9.061-12.52,6.197-19.778,5.131
			C308.49,55.126,314.645,53.51,323.201,60.736z"/>
		<path fill-rule="evenodd" clip-rule="evenodd" fill="#B0688A" d="M270.014,74.044c-2.843-2.365-5.672-4.718-9.33-7.763
			c4.477-1.375,8.297-2.549,13.021-4c-2.613-0.627-4.747-0.575-5.922-1.61c-0.895-0.787-0.565-2.959-0.78-4.516
			c1.545-0.196,3.428-1.054,4.574-0.469c4.186,2.142,4.57,11.43,0.987,14.534C271.42,71.209,270.809,72.813,270.014,74.044z"/>
		<path fill-rule="evenodd" clip-rule="evenodd" fill="#B0688A" d="M595.496,210.386c0.467-3.169,0.936-6.339,1.371-9.295
			c2.836,1.3,5.721,2.625,8.869,4.07c0.557-1.677,0.979-2.947,1.4-4.216c1.742,1.008,3.484,2.019,5.553,3.216
			c-1.512,2.811-3.689,8.534-4.641,8.338c-4.146-0.858-9.916,5.798-12.541-2.222C595.504,210.254,595.496,210.386,595.496,210.386z"
			/>
		<path fill-rule="evenodd" clip-rule="evenodd" fill="#B0688A" d="M562.313,460.453c-1.063,1.771-2.608,4.349-4.146,6.914
			c-5.578-4.544-5.578-4.544-6.393-20.003C555.189,451.608,558.605,455.851,562.313,460.453z"/>
		<path fill-rule="evenodd" clip-rule="evenodd" fill="#B0688A" d="M357.082,561.121c-3.835-1.103-6.838-1.07-7.92-2.497
			c-1.451-1.914-1.413-4.955-2.018-7.514c1.997-0.314,4-0.909,5.98-0.841c1.33,0.046,2.682,0.934,3.923,1.626
			c2.124,1.188,4.171,2.516,6.25,3.783C361.039,557.656,358.781,559.635,357.082,561.121z"/>
		<path fill-rule="evenodd" clip-rule="evenodd" fill="#B0688A" d="M651.052,359.687c-2.685-1.315-4.87-2.388-7.056-3.461
			c17.446-4.686,9.533,10.599,13.626,16.614C651.164,373.553,647.959,367.254,651.052,359.687z"/>
		<path fill-rule="evenodd" clip-rule="evenodd" fill="#B0688A" d="M442.543,51.833c-0.046,0.826-0.176,3.216-0.281,5.133
			c-5.072-0.442-9.774-0.476-14.281-1.432c-1.764-0.374-4.08-2.674-4.33-4.364c-0.259-1.742,1.297-4.306,2.837-5.542
			c0.875-0.701,3.415,0.288,5.017,0.959C434.852,47.988,438.074,49.685,442.543,51.833z"/>
		<path fill-rule="evenodd" clip-rule="evenodd" fill="#B0688A" d="M240.418,481.48c-1.104-3.851,4.745-9.23,9.379-8.618
			c2.986,0.396,5.966,0.813,8.948,1.218c-3.966,7.331-13.673,11.083-18.574,7.181L240.418,481.48z"/>
		<path fill-rule="evenodd" clip-rule="evenodd" fill="#B0688A" d="M231.723,99.623c-7.671-7.465-7.223-10.165,1.887-14.723
			C242.757,94.158,242.749,94.243,231.723,99.623z"/>
		<path fill-rule="evenodd" clip-rule="evenodd" fill="#B0688A" d="M246.747,516.25c4.712,1.523,7.947,2.568,11.182,3.613
			c-0.993,2.031-1.515,4.584-3.073,5.992c-4.131,3.735-8.785,6.275-16.086,0.95c4.446-1.583,7.331-2.612,10.788-3.844
			C249.076,521.816,248.346,520.067,246.747,516.25z"/>
		<path fill-rule="evenodd" clip-rule="evenodd" fill="#B0688A" d="M502.371,585.813c-3.102-5.243-6.548-10.463,0.181-14.71
			c1.308-0.827,6.776,1.736,6.72,2.458C508.895,578.481,509.635,584.63,502.371,585.813z"/>
		<path fill-rule="evenodd" clip-rule="evenodd" fill="#B0688A" d="M169.434,472.908c3.703-3.229,5.764-5.025,7.825-6.822
			c1.622,2.494,4.376,4.937,4.499,7.502c0.096,2.02-3.055,4.195-4.762,6.301C174.898,477.952,172.799,476.016,169.434,472.908z"/>
		<path fill-rule="evenodd" clip-rule="evenodd" fill="#B0688A" d="M125.559,254.53c-3.027-3.447-6.059-6.893-9.563-10.884
			c3.119-2.974,5.694-5.424,8.575-8.168c1.397,6.732,2.469,11.899,3.541,17.068C127.26,253.206,126.408,253.867,125.559,254.53z"/>
		<path fill-rule="evenodd" clip-rule="evenodd" fill="#B0688A" d="M617.277,396.952c4.903-0.705,9.799-1.512,14.725-2.046
			c1.215-0.132,3.164,0.256,3.629,1.063c0.537,0.935,0.295,3.247-0.467,3.828c-2.67,2.022-6.377,5.538-8.461,4.837
			c-3.551-1.193-6.172-5.153-9.176-7.96C617.531,396.664,617.277,396.952,617.277,396.952z"/>
		<path fill-rule="evenodd" clip-rule="evenodd" fill="#B0688A" d="M559.787,53.429c-0.781,5.411-1.504,10.404-2.553,17.656
			c3.951-2.804,5.713-4.055,7.559-5.364c0.625,0.905,1.277,1.439,1.188,1.78c-1.672,6.407-5.945,5.049-8.635,4.191
			c-2.634-5.814-4.682-10.331-6.791-14.984C552.715,55.94,556.117,54.732,559.787,53.429z"/>
		<path fill-rule="evenodd" clip-rule="evenodd" fill="#B0688A" d="M164.535,194.04c-2.189-3.928-4.162-6.232-4.75-8.848
			c-0.682-3.041-0.146-6.353-0.139-9.548c2.91,1.234,6.203,2.012,8.508,3.961c0.754,0.637-1.096,4.312-1.703,6.61
			C165.912,188.26,165.441,190.323,164.535,194.04z"/>
		<path fill-rule="evenodd" clip-rule="evenodd" fill="#B0688A" d="M495.752,110.282c-1.796,0.285-4.215,0.667-6.66,1.054
			c-1.078-9.259,0.799-12.006,9.908-15.537C498.062,99.992,497.07,104.408,495.752,110.282z"/>
		<path fill-rule="evenodd" clip-rule="evenodd" fill="#B0688A" d="M159.807,320.926c-3.406,4.992-6.593,9.662-9.778,14.332
			C147.076,321.045,148.074,319.938,159.807,320.926z"/>
		<path fill-rule="evenodd" clip-rule="evenodd" fill="#B0688A" d="M147.418,350.533c2.088,4.776,4.174,9.551,6.209,14.208
			c-1.464,1.203-3.583,2.945-6.367,5.23c-1.893-3.947-4.282-8.934-6.672-13.918C142.864,354.214,145.141,352.373,147.418,350.533z"
			/>
		<path fill-rule="evenodd" clip-rule="evenodd" fill="#B0688A" d="M502.947,528.526c2.725,4.857,5.844,9.553,7.967,14.659
			c0.789,1.895-0.762,4.76-3.201,6.705c0.287-1.729,0.572-3.457,0.885-5.352c-2.332-0.804-4.689-1.616-7.729-2.664
			c0.703-4.494,1.394-8.922,2.086-13.361C502.955,528.508,502.947,528.526,502.947,528.526z"/>
		<path fill-rule="evenodd" clip-rule="evenodd" fill="#B0688A" d="M580.378,173.631c-3.31,0.276-6.617,0.553-8.756,0.73
			c-0.88,4.142-1.588,7.469-2.296,10.796c-0.912,0.067-1.824,0.135-2.738,0.202c-1.229-3.167-4.32-8.085-3.316-9.149
			c2.4-2.551,6.686-3.401,10.293-4.717c2.115-0.771,4.389-1.118,6.594-1.655C580.23,171.102,580.305,172.367,580.378,173.631z"/>
		<path fill-rule="evenodd" clip-rule="evenodd" fill="#B0688A" d="M199.514,423.146c-0.41,2.167-0.442,4.503-1.314,6.467
			c-1.719,3.886-1.008,5.834,2.92,7.019c1.227,0.371,2.264,1.371,3.389,2.084c-1.602,0.499-4.133,1.887-4.648,1.348
			c-3.384-3.543-6.332-7.503-10.385-12.518c4.346-1.75,7.313-2.943,10.281-4.141C199.754,423.401,199.514,423.146,199.514,423.146z"
			/>
		<path fill-rule="evenodd" clip-rule="evenodd" fill="#B0688A" d="M645.619,227.138c0.838,2.759,1.338,4.413,1.837,6.066
			c-1.009,0.201-2.018,0.403-3.026,0.606c0-2.597-0.527-5.348,0.176-7.737c0.498-1.679,2.502-3.113,4.134-4.207
			c1.788-1.201,3.923-1.886,5.907-2.797c0.553,2.06,2.189,4.904,1.402,5.993c-1.184,1.634-4.016,2.21-6.252,2.887
			C648.893,228.225,647.71,227.583,645.619,227.138z"/>
		<path fill-rule="evenodd" clip-rule="evenodd" fill="#B0688A" d="M260.359,79.721c5.965,1.689,9.201,2.606,13.286,3.763
			c-0.767,2.824-1.758,6.479-3.478,12.815C266.299,89.758,263.68,85.335,260.359,79.721z"/>
		<path fill-rule="evenodd" clip-rule="evenodd" fill="#B0688A" d="M423.229,84.448c-2.176,0-3.781,0-6.441,0
			c6.082-6.2,10.977-0.473,16.676,0.785c-2.93,2.315-5.859,4.631-9.732,7.692C423.516,89.314,423.374,86.936,423.229,84.448z"/>
		<path fill-rule="evenodd" clip-rule="evenodd" fill="#B0688A" d="M536.225,478.029c0.551,0.495,1.102,0.991,1.653,1.488
			c1.2,4.815,2.401,9.631,3.923,15.74c-0.423-0.132-2.79-0.147-3.324-1.146C535.793,489.109,527.02,484.709,536.225,478.029z"/>
		<path fill-rule="evenodd" clip-rule="evenodd" fill="#B0688A" d="M594.199,126.167c3.055,2.397,6.469,5.077,9.883,7.756
			c-0.109,0.55-0.219,1.099-0.328,1.647c-2.186-0.565-4.346-1.377-6.568-1.613c-1.514-0.159-3.121,0.461-4.677,0.782
			c-1.616,0.334-3.218,0.73-4.825,1.101c0.57-1.981,0.748-4.215,1.822-5.871C590.502,128.435,592.451,127.521,594.199,126.167z"/>
		<path fill-rule="evenodd" clip-rule="evenodd" fill="#B0688A" d="M526.682,112.162c4.174-0.703,7.652-1.286,11.129-1.871
			c0.148,0.385,0.295,0.769,0.441,1.155c-2.205,1.259-4.41,2.518-7.508,4.288c2.33,1.664,3.973,2.836,6.521,4.659
			c-2.403,2.268-4.516,4.261-7.689,7.258C528.49,121.841,527.672,117.467,526.682,112.162z"/>
		<path fill-rule="evenodd" clip-rule="evenodd" fill="#B0688A" d="M615.633,210.301c0-2.735,0-5.995,0-11.88
			c5.52,2.921,9.605,5.083,15.344,8.12C624.568,208.111,620.297,209.157,615.633,210.301z"/>
		<path fill-rule="evenodd" clip-rule="evenodd" fill="#B0688A" d="M601.262,165.065c-2.559,8.032,0.412,12.216,10.373,12.407
			c-0.825,1.172-1.652,2.345-2.479,3.517c-3.725-0.88-8.658-0.577-10.92-2.887C593.625,173.391,597.643,168.991,601.262,165.065z"/>
		<path fill-rule="evenodd" clip-rule="evenodd" fill="#B0688A" d="M607.76,443.511c0.678,3.752,1.353,7.502,2.029,11.254
			c-2.339,0.262-4.674,0.523-7.01,0.784c0-3.932,0-7.863,0-11.793C604.438,443.674,606.1,443.592,607.76,443.511z"/>
		<path fill-rule="evenodd" clip-rule="evenodd" fill="#B0688A" d="M569.76,548.575c-6.631-3.436-10.867-5.629-17.611-9.123
			c5.27-1.87,9.925-4.549,10.785-3.64C565.644,538.681,566.93,542.895,569.76,548.575z"/>
		<path fill-rule="evenodd" clip-rule="evenodd" fill="#B0688A" d="M132.923,228.493c-0.115,0.062,1.378-1.37,2.687-1.215
			c1.285,0.152,3.287,1.856,3.353,2.976c0.099,1.667-0.835,3.87-2.098,4.96c-0.716,0.62-3.538,0-4.399-0.966
			c-2.586-2.897-4.672-6.238-6.953-9.407c0.664-0.667,1.33-1.333,1.994-2C129.101,224.503,130.694,226.167,132.923,228.493z"/>
		<path fill-rule="evenodd" clip-rule="evenodd" fill="#B0688A" d="M240.171,481.261c0.745,2.227,1.284,4.551,2.304,6.646
			c0.816,1.683,2.217,3.083,3.356,4.608c-0.679,0.643-1.36,1.282-2.04,1.924c-4.493-3.438-8.987-6.875-13.521-10.345
			c1.896-6.37,6.271-3.51,10.135-2.624C240.418,481.48,240.171,481.261,240.171,481.261z"/>
		<path fill-rule="evenodd" clip-rule="evenodd" fill="#B0688A" d="M327.309,108.848c-3.257-0.86-6.747-1.271-9.664-2.787
			c-1.297-0.674-1.438-3.577-2.102-5.467c1.988-0.386,4.123-1.411,5.924-0.995c2.334,0.541,4.4,2.23,7.32,3.831
			c-0.33,1.092-1.02,3.366-1.712,5.644C327.074,109.077,327.309,108.848,327.309,108.848z"/>
		<path fill-rule="evenodd" clip-rule="evenodd" fill="#B0688A" d="M220.158,486.957c4.963,1.615,8.027,2.611,11.094,3.607
			c0.494,0.876,0.989,1.75,1.482,2.623c-2.821,1.729-5.643,3.457-10.053,6.159C221.977,495.891,221.255,492.351,220.158,486.957z"/>
		<path fill-rule="evenodd" clip-rule="evenodd" fill="#B0688A" d="M210.512,157.263c0-3.59,0-7.182,0-10.772
			c0.658-0.418,1.313-0.834,1.969-1.252c2.01,2.547,4.986,4.877,5.635,7.733c0.34,1.501-3.392,3.928-5.283,5.937
			C212.059,158.36,211.285,157.811,210.512,157.263z"/>
		<path fill-rule="evenodd" clip-rule="evenodd" fill="#B0688A" d="M183.865,448.001c-3.113-2.875-4.654-4.299-6.194-5.723
			c3.45-3.729,2.167-7.166-0.269-10.85c-0.289-0.438,2.052-2.615,3.175-3.984c1.095,1.07,3.058,2.076,3.138,3.218
			C184.064,435.601,183.865,440.58,183.865,448.001z"/>
		<path fill-rule="evenodd" clip-rule="evenodd" fill="#B0688A" d="M478.053,471.225c-2.536,4.816-5.072,9.632-7.631,14.492
			c-0.15-0.098-2.284-1.454-4.418-2.811c1.638-4.051,2.746-8.471,5.19-11.955c0.872-1.246,4.976-0.226,7.604-0.237
			C478.547,470.881,478.301,471.052,478.053,471.225z"/>
		<path fill-rule="evenodd" clip-rule="evenodd" fill="#B0688A" d="M473.433,76.431c1.808,2.221,3.267,4.01,5.026,6.171
			c-5.318,1.292-13.521-2.353-14.216,7.754C461.113,81.269,469.307,80.402,473.433,76.431z"/>
		<path fill-rule="evenodd" clip-rule="evenodd" fill="#B0688A" d="M530.846,534.789c-3.686,2.292-5.967,3.711-7.925,4.93
			c-1.474-2.142-2.888-4.185-4.283-6.239c-1.165-1.717-2.308-3.448-3.46-5.174c0.607-0.566,1.215-1.133,1.821-1.7
			C521.287,529.139,525.573,531.672,530.846,534.789z"/>
		<path fill-rule="evenodd" clip-rule="evenodd" fill="#B0688A" d="M347.088,35.92c1.828-2.623,3.244-5.819,5.693-7.578
			c0.947-0.681,4.235,1.897,6.457,2.993c-2.722,2.59-5.441,5.18-8.162,7.771C349.746,38.045,348.418,36.982,347.088,35.92z"/>
		<path fill-rule="evenodd" clip-rule="evenodd" fill="#B0688A" d="M622.143,273.442c0,6.503,0,11.43,0,18.512
			c-3.803-4.055-5.609-5.979-7.018-7.481C617.24,281.146,619.246,277.993,622.143,273.442z"/>
		<path fill-rule="evenodd" clip-rule="evenodd" fill="#B0688A" d="M198.379,200.144c2.826,2.549,5.881,4.894,8.391,7.723
			c1.541,1.735,2.246,4.211,3.327,6.356c-0.763,0.338-1.526,0.678-2.289,1.017c-2.865-1.314-5.73-2.628-8.866-4.064
			c-0.158-3.234-0.35-7.088-0.543-10.969C198.395,200.182,198.379,200.144,198.379,200.144z"/>
		<path fill-rule="evenodd" clip-rule="evenodd" fill="#B0688A" d="M445.176,555.621c-2.008,0.355-4.014,0.71-6.488,1.148
			c0,2.288,0,4.674,0,9.003c-3.375-2.742-5.556-4.514-10.234-8.311c6.832-2.092,11.357-3.478,15.885-4.863
			C444.615,553.605,444.896,554.612,445.176,555.621z"/>
		<path fill-rule="evenodd" clip-rule="evenodd" fill="#B0688A" d="M555.35,418.672c3.443,6.147,0.488,9.433-6.67,11.89
			c0.545-5.197,1.043-9.942,1.592-15.183c1.538,1.023,3.342,2.222,5.15,3.425C555.425,418.808,555.35,418.672,555.35,418.672z"/>
		<path fill-rule="evenodd" clip-rule="evenodd" fill="#B0688A" d="M643.148,330.06c1.067-5.884,1.656-9.126,2.336-12.864
			c3.75,1.617,6.867,2.96,11.121,4.793C652.488,324.458,649.053,326.517,643.148,330.06z"/>
		<path fill-rule="evenodd" clip-rule="evenodd" fill="#B0688A" d="M442.09,68.145c-0.047-9.619,0.498-9.933,15.881-7.322
			C451.846,63.646,447.404,65.694,442.09,68.145z"/>
		<path fill-rule="evenodd" clip-rule="evenodd" fill="#B0688A" d="M366.166,558.147c2.727-1.366,4.479-2.614,6.422-3.122
			c2.488-0.65,5.131-0.705,7.707-1.018c0.133,1.269,0.773,3.386,0.312,3.662c-2.513,1.506-5.218,3.185-8.013,3.534
			C370.805,561.428,368.741,559.457,366.166,558.147z"/>
		<path fill-rule="evenodd" clip-rule="evenodd" fill="#B0688A" d="M159.266,406.143c3.072,5.569,5.564,10.089,8.057,14.606
			c-0.607,0.277-1.219,0.555-1.828,0.832c-2.98-1.698-5.961-3.396-9.076-5.171C157.133,413.836,157.984,410.771,159.266,406.143z"/>
		<path fill-rule="evenodd" clip-rule="evenodd" fill="#B0688A" d="M613.977,447.679c1.272-2.805,2.546-5.61,4.652-10.261
			c1.174,6.025,1.941,9.977,3.219,16.551c-4.875-2.968-8.102-4.932-11.328-6.897C611.672,447.273,612.824,447.476,613.977,447.679z"
			/>
		<path fill-rule="evenodd" clip-rule="evenodd" fill="#B0688A" d="M132.09,283.578c3.011,5.51,5.344,9.783,7.68,14.056
			C130.249,296.303,127.975,291.764,132.09,283.578z"/>
		<path fill-rule="evenodd" clip-rule="evenodd" fill="#B0688A" d="M625.984,166.246c2.696,2.161,5.66,4.538,9.785,7.846
			c-3.522,2.612-6.23,4.621-9.016,6.689C626.471,175.452,626.24,171.082,625.984,166.246z"/>
		<path fill-rule="evenodd" clip-rule="evenodd" fill="#B0688A" d="M165.785,129.912c5.42-0.766,10.843-1.532,16.264-2.298
			c0.375,0.872,0.748,1.746,1.121,2.619c-1.699,1.05-3.311,2.748-5.115,2.984c-2.26,0.297-4.662-0.714-7.025-0.958
			c-1.746-0.181-3.527-0.036-5.292-0.036C165.755,131.452,165.769,130.682,165.785,129.912z"/>
		<path fill-rule="evenodd" clip-rule="evenodd" fill="#B0688A" d="M589.608,388.027c4.177,0.276,8.354,0.553,13.819,0.916
			c-3.264,2.313-6.926,4.904-10.586,7.498c-1.019-2.875-2.039-5.751-3.043-8.646C589.813,387.775,589.608,388.027,589.608,388.027z"
			/>
		<path fill-rule="evenodd" clip-rule="evenodd" fill="#B0688A" d="M161.484,225.59c-0.777-4.882-1.556-9.764-2.334-14.644
			c1.762-0.148,3.524-0.297,5.393-0.454c-0.695,5.542-1.283,10.197-1.866,14.853C162.277,225.426,161.881,225.508,161.484,225.59z"
			/>
		<path fill-rule="evenodd" clip-rule="evenodd" fill="#B0688A" d="M401.628,525.091c3.327,2.756,6.479,5.365,10.569,8.752
			c-5.033,1.355-8.113,2.185-11.516,3.099C401.008,532.865,401.256,529.771,401.628,525.091z"/>
		<path fill-rule="evenodd" clip-rule="evenodd" fill="#B0688A" d="M189.102,414.626c-2.326-0.755-4.656-1.509-5.385-1.745
			c0.822-4.48,1.328-7.068,1.766-9.664c0.561-3.316,0.125-8.901,1.754-9.581c8.18-3.409,5.016-10.058,6.457-15.728
			c1.133-4.451,6.397-7.849,9.828-11.713c0.871,0.509,1.74,1.017,2.611,1.525c-2.011,4.153-4.021,8.309-6.379,13.181
			c1.887,0.295,3.941,0.74,6.02,0.904c1.93,0.151,3.881,0.001,5.822-0.016c-0.919,1.863-1.839,3.727-3.402,6.894
			c5.506-0.439,10.324-0.825,14.943-1.193c-0.459,2.256-1.148,5.652-1.875,9.231c-0.938-1.452-1.959-3.027-3.184-4.922
			c-0.874,1.541-1.629,2.867-1.537,2.707c-3.092-0.806-5.723-2.419-7.398-1.724c-2.889,1.197-5.184,3.829-8.438,6.426
			c-0.918-2.595-1.602-4.53-2.492-7.052c-2.599,1.095-4.832,2.035-7.93,3.343c2.475,1.688,4.225,2.882,5.684,3.877
			c-2.479,5.417-4.769,10.432-7.066,15.444C188.898,414.823,189.102,414.626,189.102,414.626z"/>
		<path fill-rule="evenodd" clip-rule="evenodd" fill="#B0688A" d="M610.39,299.853c0.907,3.8,1.716,7.184,2.337,9.782
			c-4.676,1.332-9.556,2.723-15.112,4.306c-0.089-0.15-1.396-2.341-2.571-4.317c-5.752,4.009-11.221,7.818-16.203,11.292
			c-0.898-4.39-1.586-7.753-2.275-11.118c-2.171,0.55-4.342,1.1-6.867,1.739c-1.813-8.278,5.588-10.692,10.84-12.813
			c3.167-1.278,8.761-0.947,11.606,4.135C594.176,306.485,604.977,304.758,610.39,299.853z"/>
		<path fill-rule="evenodd" clip-rule="evenodd" fill="#B0688A" d="M306.598,151.835c5.645-9.664,9.609-16.452,13.577-23.245
			c2.292,2.478,4.192,4.536,6.094,6.594c0.337-0.326,0.677-0.652,1.014-0.979c-2.968-6.372-5.935-12.744-8.901-19.115
			c0.68-0.475,1.358-0.949,2.037-1.423c2.004,2.51,4.004,5.022,6.192,7.764c0.753-0.33,2.382-1.039,2.425-1.058
			c3.82,5.718,7.093,10.616,11.025,16.503C329.684,141.513,318.898,146.335,306.598,151.835z"/>
		<path fill-rule="evenodd" clip-rule="evenodd" fill="#B0688A" d="M393.502,106.999c12.938,7.601,10.783-5.713,15.031-11.61
			c0.469,13.875,6.716,21.48,20.131,22.153c-2.572,7.03-4.662,6.93-10.557,1.211c-6.266,0.797-11.246,2.737-15.449,1.654
			C396.645,118.856,393.543,113.548,393.502,106.999z"/>
		<path fill-rule="evenodd" clip-rule="evenodd" fill="#B0688A" d="M266.99,151.154c-3.402-2.677-8.275-6.512-13.316-10.479
			c4.189-3.727,15.307-4.754,3.76-11.876c-0.361-0.222,0.717-4.566,1.677-4.809c3.382-0.854,9.788-1.737,10.095-0.864
			c2.488,7.056,6.888,2.273,12.222,2.283c-1.568,2.483-2.245,4.863-3.75,5.642c-2.483,1.283-5.825,0.988-8.191,2.391
			c-1.794,1.064-3.093,3.619-3.651,5.761c-0.197,0.753,2.799,2.03,3.732,3.46c1.238,1.891,1.883,4.166,2.782,6.276
			C271.199,149.415,270.047,149.891,266.99,151.154z"/>
		<path fill-rule="evenodd" clip-rule="evenodd" fill="#B0688A" d="M227.705,239.898c2.676,1.664,6.609,4.113,12.143,7.556
			c-8.377,2.121-15.271,3.867-24.773,6.275c5.141,3.873,8.699,6.556,12.48,9.405c-3.563,2.663-7.721,5.768-13.88,10.371
			c0.366-6.36,0.599-10.36,0.929-16.075c-2.152,1.862-3.625,3.133-5.096,4.406c-0.469-0.196-0.938-0.394-1.406-0.59
			c0.758-1.99,0.984-4.525,2.369-5.87C215.752,250.24,221.411,245.485,227.705,239.898z"/>
		<path fill-rule="evenodd" clip-rule="evenodd" fill="#B0688A" d="M423.063,498.619c1.004-3.463,1.838-6.341,2.582-8.908
			c2.757,1.178,5.846,2.495,9.877,4.214c0.34-3.561,0.563-5.901,0.967-10.142c3.913,5.896,6.998,10.546,9.959,15.009
			C437.791,512.453,430.49,499.818,423.063,498.619z"/>
		<path fill-rule="evenodd" clip-rule="evenodd" fill="#B0688A" d="M300.047,121.854c-1.465,4.782-2.932,9.563-4.916,16.032
			c-4.756,4.549-11.373,10.875-17.99,17.201c-0.521-0.292-1.045-0.585-1.568-0.877c3.232-5.008,6.462-10.019,9.583-14.853
			c-1.558-0.251-4.882-0.785-8.206-1.319c0.031-0.667,0.063-1.336,0.096-2.005c4.484-0.309,8.973-0.617,13.711-0.944
			c3.172-4.025-3.752-15.774,9.418-13.134C300.205,121.981,300.047,121.854,300.047,121.854z"/>
		<path fill-rule="evenodd" clip-rule="evenodd" fill="#B0688A" d="M202.027,358.93c-10.182-6.975-0.646-11.101-0.693-16.734
			c-1.941,0-3.884,0-7.768,0c4.932-5.4,8.977-9.831,13.023-14.258c0.529,0.509,1.061,1.021,1.594,1.533
			c-2.318,2.624-4.637,5.251-6.766,7.659c3.111,1.569,6.299,3.175,9.939,5.011C208.057,348.08,205.121,353.365,202.027,358.93z"/>
		<path fill-rule="evenodd" clip-rule="evenodd" fill="#B0688A" d="M231.148,439.039c-0.787-1.109-2.188-2.189-2.242-3.334
			c-0.139-2.925,0.324-5.878,0.604-9.612c-12.196,5.433-12.196,5.433-14.856,0.781c9.037,1.555,7.412-3.585,5.826-8.575
			c-2.4-7.547,0.717-9.299,8.408-7.443c-4.662,10.747,4.088,16.055,8.697,22.078c-2.494,2.363-4.564,4.324-6.635,6.286
			L231.148,439.039z"/>
		<path fill-rule="evenodd" clip-rule="evenodd" fill="#B0688A" d="M513.982,460.34c-10.23,2.52-18.654,15.68-15.529,24.255
			c-6.488-2.611-7.576-8.666-2.793-15.103c1.501-2.019,3.248-4.017,4.123-6.313C503.768,452.729,505.676,452.285,513.982,460.34z"/>
		<path fill-rule="evenodd" clip-rule="evenodd" fill="#B0688A" d="M561.117,293.305c1.226-7.036-1.143-15.793,9.021-17.493
			c1.698-0.283,3.836,2.038,5.768,3.153c-0.346,0.708-0.694,1.417-1.04,2.125c-2.123-0.783-4.246-1.566-8.072-2.976
			c4.289,6.755,7.564,11.916,11.209,17.656C571.656,294.844,566.347,294.069,561.117,293.305z"/>
		<path fill-rule="evenodd" clip-rule="evenodd" fill="#B0688A" d="M507.23,175.426c-2.254-9.93-6.543-2.703-10.152-1.2
			c-6.592-7.827-6.298-8.653,4.813-11.27c-1.343-1.809-2.48-3.339-5.313-7.153c5.471,1.907,8.59,2.995,12.07,4.206
			c-1.031,1.689-1.883,3.084-2.748,4.505c3.394,0.916,6.63,1.792,9.867,2.667c-0.123,0.966-0.245,1.932-0.369,2.897
			c-2.422-0.466-4.842-0.932-7.447-1.432c0.318,2.025,0.67,4.278,1.024,6.531C508.395,175.262,507.813,175.344,507.23,175.426z"/>
		<path fill-rule="evenodd" clip-rule="evenodd" fill="#B0688A" d="M413.743,501.015c-4.679-1.763-9.362-3.523-13.433-5.058
			c5.157-5.325,9.867-10.188,15.645-16.153c-3.973,7.603,6.146,14.971-2.387,21.353L413.743,501.015z"/>
		<path fill-rule="evenodd" clip-rule="evenodd" fill="#B0688A" d="M519.614,423.995c7.704,1.701,14.585,3.218,20.032,4.421
			c-4.25,2.663-10.359,6.488-17.737,11.109C521.047,433.7,520.261,428.377,519.614,423.995z"/>
		<path fill-rule="evenodd" clip-rule="evenodd" fill="#B0688A" d="M389.082,459.477c6.945,11.436,10.516-3.768,17.908-1.515
			c-4.377,3.934-8.121,7.3-11.938,10.733c-6.738,1.651-14.264,3.494-23.393,5.732C378.41,468.634,383.283,464.452,389.082,459.477z"
			/>
		<path fill-rule="evenodd" clip-rule="evenodd" fill="#B0688A" d="M244.008,388.74c0.311,0.86,0.748,2.21,1.279,3.521
			c0.533,1.317,1.164,2.598,1.811,4.022c-2.158,2.556-4.342,5.139-8.34,9.87c1.656-6.676-9.729-8.393-0.191-14.117
			c-2.783-1.943-4.801-3.352-8.612-6.012C235.975,387.188,239.717,387.911,244.008,388.74z"/>
		<path fill-rule="evenodd" clip-rule="evenodd" fill="#B0688A" d="M540.328,211.507c8.121,11.183-6.732,10.486-8.133,16.518
			C524.181,217.807,531.449,214.395,540.328,211.507z"/>
		<path fill-rule="evenodd" clip-rule="evenodd" fill="#B0688A" d="M491.642,466.441c4.042-12.041-1.743-17.646-13.716-19.812
			c5.813-1.506,9.873-2.557,14.303-3.705C489.551,449.346,501.242,457.132,491.642,466.441z"/>
		<path fill-rule="evenodd" clip-rule="evenodd" fill="#B0688A" d="M568.135,199.927c-3.379,5.409-6.607,10.925-10.307,16.102
			c-0.516,0.722-3.35-0.214-5.109-0.382c0.34-1.863,0.047-4.317,1.137-5.488c3.791-4.08,8.061-7.716,12.146-11.521
			C566.715,199.067,567.425,199.497,568.135,199.927z"/>
		<path fill-rule="evenodd" clip-rule="evenodd" fill="#B0688A" d="M232.283,376.445c1.076-0.613,2.411-1.371,3.746-2.131
			c0.553,0.795,1.103,1.592,1.654,2.387c-3.334,2.422-6.668,4.843-11.082,8.046c0-6.675,0-10.915,0-15.935
			C228.506,371.371,230.18,373.62,232.283,376.445z"/>
		<path fill-rule="evenodd" clip-rule="evenodd" fill="#B0688A" d="M507.23,175.426c0.582-0.082,1.164-0.164,1.745-0.247
			c3.122,2.875,6.246,5.752,9.368,8.627c-0.562,0.694-1.123,1.389-1.686,2.083c-5.471-2.783-10.943-5.568-16.416-8.351
			c0.318-0.938,0.637-1.877,0.956-2.816C503.209,174.957,505.219,175.192,507.23,175.426z"/>
		<path fill-rule="evenodd" clip-rule="evenodd" fill="#B0688A" d="M456.42,98.287c0.309,2.276,1.314,4.744,0.757,6.783
			c-0.805,2.942-2.749,5.572-4.206,8.335c-1.748-1.676-3.495-3.354-6.558-6.291C449.619,104.287,453.02,101.287,456.42,98.287z"/>
		<path fill-rule="evenodd" clip-rule="evenodd" fill="#B0688A" d="M569.324,263.674c-1.579-3.353-3.158-6.706-4.738-10.058
			c0.838-0.476,1.676-0.95,2.512-1.427c1.624,1.795,3.248,3.591,5.768,6.374c0.197-3.287,0.327-5.43,0.46-7.641
			c0.71,0.169,1.618,0.362,1.614,0.387c-0.768,4.229-1.602,8.443-2.432,12.66C571.447,263.871,570.385,263.773,569.324,263.674z"/>
		<path fill-rule="evenodd" clip-rule="evenodd" fill="#B0688A" d="M347.387,488.244c4.9,4.48,7.58,6.928,9.552,8.732
			c-2.012,3.021-4.101,6.156-7.136,10.715C349.039,501.546,348.363,496.104,347.387,488.244z"/>
		<path fill-rule="evenodd" clip-rule="evenodd" fill="#B0688A" d="M362.424,493.738c-2.563-5.995,4.029-6.804,7.34-8.633
			c1.936-1.07,5.688,1.148,8.221,3.744C372.998,490.416,368.012,491.982,362.424,493.738z"/>
		<path fill-rule="evenodd" clip-rule="evenodd" fill="#B0688A" d="M553.086,340.449c-0.908,6.424-1.818,12.849-2.674,18.891
			c-1.262-1.852-2.813-4.128-4.966-7.286c1.521-2.886,3.831-7.276,6.144-11.667C552.088,340.407,552.588,340.428,553.086,340.449z"
			/>
		<path fill-rule="evenodd" clip-rule="evenodd" fill="#B0688A" d="M237.295,214.181c1.684-2.171,3.369-4.341,4.473-5.766
			c4.322,0.493,7.99,0.913,11.66,1.331c0.223,0.396,0.441,0.792,0.664,1.188c-5.169,1.645-10.34,3.29-15.508,4.935
			C238.156,215.307,237.726,214.744,237.295,214.181z"/>
		<path fill-rule="evenodd" clip-rule="evenodd" fill="#B0688A" d="M413.568,501.156c11.111-3.546,8.602,4.557,9.639,11.404
			c-3.941-1.932-6.838-3.354-9.016-4.423c-0.137-2.674-0.254-4.93-0.408-7.155C413.743,501.015,413.568,501.156,413.568,501.156z"/>
		<path fill-rule="evenodd" clip-rule="evenodd" fill="#B0688A" d="M238.438,365.369c-4.235,0-7.509,0-10.737,0
			c-0.503-3.076-1.017-6.203-1.9-11.587C230.572,358.155,234.08,361.373,238.438,365.369z"/>
		<path fill-rule="evenodd" clip-rule="evenodd" fill="#B0688A" d="M261.469,194.004c1.408-1.874,3.225-4.293,6.43-8.563
			c-1.689,5.832-2.662,9.186-3.867,13.344c-3.541-0.309-7.941-0.693-12.344-1.079c-0.059-1.048-0.117-2.097-0.174-3.145
			C254.48,194.396,257.447,194.229,261.469,194.004z"/>
		<path fill-rule="evenodd" clip-rule="evenodd" fill="#B0688A" d="M258.956,438.399c-1.651,1.649-3.618,3.614-5.63,5.622
			c-2.172-3.133-4.072-5.879-6.127-8.846c1.105-0.907,2.814-2.311,4.35-3.57C253.881,433.745,256.188,435.86,258.956,438.399z"/>
		<path fill-rule="evenodd" clip-rule="evenodd" fill="#B0688A" d="M285.949,454.476c2.606,1.223,5.219,2.445,8.398,3.937
			c-0.594,3.678-1.192,7.406-1.791,11.135c-0.983,0.35-1.965,0.699-2.945,1.051c-3.2-5.679-6.4-11.357-9.601-17.037
			c0.604-0.498,1.212-0.998,1.815-1.496c1.486,0.874,2.973,1.749,4.439,2.616C286.244,454.672,285.949,454.476,285.949,454.476z"/>
		<path fill-rule="evenodd" clip-rule="evenodd" fill="#B0688A" d="M364.135,313.188c0-6.273,0-10.519,0-14.765
			c0.605-0.259,1.211-0.517,1.818-0.776c2.311,4.346,4.621,8.692,6.934,13.039c-0.846,0.402-1.688,0.804-2.533,1.206
			c-0.54-1.613-1.084-3.228-1.848-5.504C367.244,308.353,366.195,309.983,364.135,313.188z"/>
		<path fill-rule="evenodd" clip-rule="evenodd" fill="#B0688A" d="M465.135,262.207c-3.355-1.287-5.369-2.058-8.021-3.071
			c0.536-3.945,1.092-8.013,1.645-12.082c0.851-0.068,1.7-0.133,2.548-0.201C462.467,251.507,463.628,256.162,465.135,262.207z"/>
		<path fill-rule="evenodd" clip-rule="evenodd" fill="#B0688A" d="M460.758,368.022c0-6.273,0-10.519,0-14.764
			c0.605-0.26,1.211-0.518,1.816-0.777c2.313,4.347,4.625,8.693,6.936,13.04c-0.846,0.402-1.688,0.804-2.532,1.206
			c-0.544-1.615-1.083-3.229-1.849-5.505C463.867,363.186,462.816,364.818,460.758,368.022z"/>
	</g>
</g>
</svg>
