<?xml version="1.0" encoding="utf-8"?>
<!-- Generator: Adobe Illustrator 16.0.0, SVG Export Plug-In . SVG Version: 6.00 Build 0)  -->
<!DOCTYPE svg PUBLIC "-//W3C//DTD SVG 1.1//EN" "http://www.w3.org/Graphics/SVG/1.1/DTD/svg11.dtd">
<svg version="1.1" xmlns="http://www.w3.org/2000/svg" xmlns:xlink="http://www.w3.org/1999/xlink" x="0px" y="0px" width="1920px"
	 height="1080px" viewBox="0 0 1920 1080" enable-background="new 0 0 1920 1080" xml:space="preserve">
<g id="Layer_1">
	<rect fill="#414042" width="1499.926" height="1079.852"/>
	<rect x="1499.926" fill="#939598" width="420.074" height="1080"/>
</g>
<g id="Layer_2">
	<circle fill="#0069A4" stroke="#000000" stroke-miterlimit="10" cx="535.407" cy="186.39" r="132.407"/>
	<circle fill="#D3D3EA" stroke="#000000" stroke-width="1.1786" stroke-miterlimit="10" cx="1040.233" cy="187.366" r="50"/>
	<circle fill="#699FCA" stroke="#000000" stroke-width="1.1786" stroke-miterlimit="10" cx="823.308" cy="187.366" r="66.667"/>
	<circle fill="#469250" stroke="#000000" stroke-width="0.8538" stroke-miterlimit="10" cx="162.645" cy="744.617" r="113.044"/>
	<circle fill="#7DBB80" stroke="#000000" stroke-width="0.8404" stroke-miterlimit="10" cx="162.645" cy="543.78" r="47.537"/>
	<circle fill="#B0D3AE" stroke="#000000" stroke-width="1.0695" stroke-miterlimit="10" cx="162.645" cy="383.743" r="60.5"/>
	<circle fill="#FFF682" stroke="#000000" stroke-width="0.7838" stroke-miterlimit="10" cx="526.148" cy="919.658" r="103.784"/>
	<circle fill="#FFF34D" stroke="#000000" stroke-width="0.8538" stroke-miterlimit="10" cx="823.308" cy="910.398" r="113.044"/>
	<circle fill="#FFF200" stroke="#000000" stroke-width="1.1786" stroke-miterlimit="10" cx="1040.234" cy="919.659" r="50"/>
	<circle fill="#FAC8C9" stroke="#000000" stroke-width="0.6649" stroke-miterlimit="10" cx="1342.08" cy="383.739" r="88.044"/>
	<circle fill="#F38393" stroke="#000000" stroke-width="0.8404" stroke-miterlimit="10" cx="1342.08" cy="540" r="47.537"/>
	<circle fill="#EF4871" stroke="#000000" stroke-width="1.0695" stroke-miterlimit="10" cx="1342.081" cy="740.464" r="108.892"/>
</g>
<g id="Layer_3">
	<g>
		
			<line fill="#48A061" stroke="#92C83E" stroke-width="2" stroke-miterlimit="10" x1="1047.288" y1="236.869" x2="223.145" y2="396.185"/>
		
			<line fill="#48A061" stroke="#92C83E" stroke-width="2" stroke-miterlimit="10" x1="223.145" y1="396.185" x2="1040.234" y2="869.659"/>
		
			<line fill="#48A061" stroke="#92C83E" stroke-width="2" stroke-miterlimit="10" x1="1040.234" y1="869.659" x2="1233.188" y2="740.464"/>
		
			<line fill="#48A061" stroke="#92C83E" stroke-width="2" stroke-miterlimit="10" x1="1047.288" y1="236.869" x2="1233.188" y2="740.464"/>
	</g>
	<g>
		
			<line fill="none" stroke="#F68D3D" stroke-width="4" stroke-miterlimit="10" x1="273.817" y1="724.055" x2="526.148" y2="815.875"/>
		
			<line fill="none" stroke="#F68D3D" stroke-width="4" stroke-miterlimit="10" x1="526.148" y1="815.875" x2="1260.689" y2="415.726"/>
		
			<line fill="none" stroke="#F68D3D" stroke-width="4" stroke-miterlimit="10" x1="1260.689" y1="415.726" x2="535.407" y2="318.798"/>
		
			<line fill="none" stroke="#F68D3D" stroke-width="4" stroke-miterlimit="10" x1="535.407" y1="318.798" x2="273.817" y2="724.055"/>
	</g>
	<g>
		
			<line fill="none" stroke="#B3D9C8" stroke-width="3" stroke-miterlimit="10" x1="210.025" y1="539.926" x2="823.308" y2="797.356"/>
		
			<line fill="none" stroke="#B3D9C8" stroke-width="3" stroke-miterlimit="10" x1="823.308" y1="797.356" x2="1294.812" y2="531.846"/>
		
			<line fill="none" stroke="#B3D9C8" stroke-width="3" stroke-miterlimit="10" x1="1294.812" y1="532.399" x2="823.308" y2="246.185"/>
		
			<line fill="none" stroke="#B3D9C8" stroke-width="3" stroke-miterlimit="10" x1="823.308" y1="246.185" x2="210.025" y2="539.926"/>
	</g>
</g>
<g id="Layer_4">
	<g>
		<line fill="none" stroke="#808285" stroke-miterlimit="10" x1="758.631" y1="171.154" x2="823.308" y2="187.366"/>
		<line fill="none" stroke="#808285" stroke-miterlimit="10" x1="823.308" y1="187.366" x2="790.97" y2="129.06"/>
	</g>
	<circle fill="#469250" stroke="#000000" stroke-width="0.8538" stroke-miterlimit="10" cx="1528.007" cy="910.267" r="12.585"/>
	<circle fill="#7DBB80" stroke="#000000" stroke-width="0.8404" stroke-miterlimit="10" cx="1528.007" cy="878.945" r="12.585"/>
	<circle fill="#B0D3AE" stroke="#000000" stroke-width="1.0695" stroke-miterlimit="10" cx="1528.407" cy="847.044" r="12.585"/>
	<circle fill="#FFF682" stroke="#000000" stroke-width="0.7838" stroke-miterlimit="10" cx="1528.208" cy="801.858" r="12.585"/>
	<circle fill="#FFF34D" stroke="#000000" stroke-width="0.8538" stroke-miterlimit="10" cx="1528.208" cy="770.537" r="12.585"/>
	<circle fill="#FFF200" stroke="#000000" stroke-width="1.1786" stroke-miterlimit="10" cx="1528.607" cy="738.636" r="12.585"/>
	<circle fill="#EF4871" stroke="#000000" stroke-width="1.0695" stroke-miterlimit="10" cx="1527.808" cy="696.762" r="12.585"/>
	<circle fill="#F38393" stroke="#000000" stroke-width="0.8404" stroke-miterlimit="10" cx="1527.808" cy="665.44" r="12.585"/>
	<circle fill="#FAC8C9" stroke="#000000" stroke-width="0.6649" stroke-miterlimit="10" cx="1528.208" cy="633.539" r="12.585"/>
	<circle fill="#D3D3EA" stroke="#000000" stroke-width="1.1786" stroke-miterlimit="10" cx="1528.407" cy="592.667" r="12.585"/>
	<circle fill="#699FCA" stroke="#000000" stroke-width="1.1786" stroke-miterlimit="10" cx="1528.407" cy="561.347" r="12.585"/>
	<circle fill="#0069A4" stroke="#000000" stroke-miterlimit="10" cx="1528.807" cy="529.444" r="12.585"/>
	
		<line fill="none" stroke="#F68D3D" stroke-width="5" stroke-miterlimit="10" x1="1540.792" y1="414.518" x2="1515.622" y2="414.518"/>
	
		<line fill="none" stroke="#B3D9C8" stroke-width="5" stroke-miterlimit="10" x1="1540.393" y1="448.42" x2="1515.223" y2="448.42"/>
	
		<line fill="#48A061" stroke="#92C83E" stroke-width="5" stroke-miterlimit="10" x1="1540.393" y1="485.74" x2="1515.223" y2="485.74"/>
	
		<line fill="none" stroke="#000000" stroke-width="2" stroke-miterlimit="10" x1="1541.591" y1="304.696" x2="1516.421" y2="304.696"/>
	
		<line fill="none" stroke="#000000" stroke-width="3" stroke-miterlimit="10" x1="1541.191" y1="338.599" x2="1516.021" y2="338.599"/>
	
		<line fill="#48A061" stroke="#000000" stroke-width="5" stroke-miterlimit="10" x1="1541.191" y1="375.919" x2="1516.021" y2="375.919"/>
</g>
<g id="Layer_5">
	<rect x="1515.723" y="988" fill="none" width="388.481" height="91.852"/>
	<text transform="matrix(1 0 0 1 1515.7227 1018.959)"><tspan x="0" y="0" fill="#414042" font-family="'LeagueSpartan-Bold'" font-size="36">Saloni Shah</tspan><tspan x="0" y="36" fill="#414042" font-family="'LeagueSpartan-Bold'" font-size="24">10 September 2019</tspan></text>
	<rect x="1515.723" y="33.72" fill="none" width="388.481" height="124.493"/>
	<text transform="matrix(1 0 0 1 1515.7227 64.6797)"><tspan x="0" y="0" fill="#414042" font-family="'LeagueSpartan-Bold'" font-size="36">Major Studio 1</tspan><tspan x="0" y="36" fill="#414042" font-family="'LeagueSpartan-Bold'" font-size="24">MSDV</tspan><tspan x="0" y="72" fill="#414042" font-family="'LeagueSpartan-Bold'" font-size="24">Assignment 1</tspan></text>
	<rect x="1515.723" y="174.622" fill="none" width="388.481" height="108.378"/>
	<text transform="matrix(1 0 0 1 1515.7227 205.582)"><tspan x="0" y="0" font-family="'LeagueSpartan-Bold'" font-size="36">Portrayal of Women </tspan><tspan x="0" y="48" font-family="'LeagueSpartan-Bold'" font-size="36">in Artworks at Met </tspan></text>
	<rect x="1554" y="517" fill="none" width="346" height="100"/>
	<text transform="matrix(1 0 0 1 1554 530.2485)"><tspan x="0" y="0" font-family="'CenturyGothic'" font-size="18">Male Artist</tspan><tspan x="0" y="36" font-family="'CenturyGothic'" font-size="18">Collaboration Work</tspan><tspan x="0" y="72" font-family="'CenturyGothic'" font-size="18">Female Artist</tspan></text>
	<rect x="1554" y="623.641" fill="none" width="346" height="100"/>
	<text transform="matrix(1 0 0 1 1554 636.8887)"><tspan x="0" y="0" font-family="'CenturyGothic'" font-size="18">Nude Art</tspan><tspan x="0" y="36" font-family="'CenturyGothic'" font-size="18">Semi Nude Art</tspan><tspan x="0" y="72" font-family="'CenturyGothic'" font-size="18">Dressed</tspan></text>
	<rect x="1554" y="727.122" fill="none" width="346" height="100"/>
	<text transform="matrix(1 0 0 1 1554 740.3701)"><tspan x="0" y="0" font-family="'CenturyGothic'" font-size="18">Outdoor</tspan><tspan x="0" y="36" font-family="'CenturyGothic'" font-size="18">Domesticated</tspan><tspan x="0" y="72" font-family="'CenturyGothic'" font-size="18">Indoor</tspan></text>
	<rect x="1554" y="835.945" fill="none" width="346" height="100"/>
	<text transform="matrix(1 0 0 1 1554 849.1934)"><tspan x="0" y="0" font-family="'CenturyGothic'" font-size="18">Looking at the Viewer</tspan><tspan x="0" y="36" font-family="'CenturyGothic'" font-size="18">Turned Back</tspan><tspan x="0" y="72" font-family="'CenturyGothic'" font-size="18">Looking Away</tspan></text>
	<rect x="1553.4" y="407.073" fill="none" width="346" height="100"/>
	<text transform="matrix(1 0 0 1 1553.4004 420.3213)"><tspan x="0" y="0" font-family="'CenturyGothic'" font-size="18">Modern Art</tspan><tspan x="0" y="36" font-family="'CenturyGothic'" font-size="18">Classical Art</tspan><tspan x="0" y="72" font-family="'CenturyGothic'" font-size="18">Expressionist Art</tspan></text>
	<rect x="1553.4" y="295.599" fill="none" width="346" height="100"/>
	<text transform="matrix(1 0 0 1 1553.4004 308.8477)"><tspan x="0" y="0" font-family="'CenturyGothic'" font-size="18">0 - 5 Similar Works by Same Artist</tspan><tspan x="0" y="36" font-family="'CenturyGothic'" font-size="18">6 - 10 Similar Works by Same Artist</tspan><tspan x="0" y="72" font-family="'CenturyGothic'" font-size="18">11 or More Similar Works by Same Artist</tspan></text>
</g>
</svg>
